<svg width="609" height="395" viewBox="0 0 609 395" fill="none" xmlns="http://www.w3.org/2000/svg">
<g clip-path="url(#clip0_47_12281)">
<path d="M77.5876 394.185C137.559 394.185 186.175 390.493 186.175 385.938C186.175 381.383 137.559 377.691 77.5876 377.691C17.6163 377.691 -31 381.383 -31 385.938C-31 390.493 17.6163 394.185 77.5876 394.185Z" fill="#300253"/>
<path d="M52.002 99.1345C70.8995 91.0967 94.4366 96.1894 117.423 99.7239C117.637 95.4436 120.23 90.2343 117.514 87.2481C114.214 83.6202 114.518 79.8082 116.504 75.9744C121.581 66.1706 114.306 55.7388 106.961 47.0648C105.306 45.1142 103.214 43.5815 100.855 42.5914C98.4954 41.6012 95.9361 41.1815 93.3843 41.3662L79.7782 42.3381C76.4673 42.5746 73.3076 43.8166 70.7218 45.8979C68.1361 47.9792 66.2477 50.8006 65.3093 53.9845C62.0604 58.4031 60.3215 62.8094 61.4163 67.1927C56.55 70.5183 55.7325 74.5326 57.9192 79.0579C59.7734 81.9073 59.7537 84.6809 57.8348 87.3777C55.3148 90.8159 53.3847 94.6496 52.1236 98.7217L52.002 99.1345Z" fill="#2F2E41"/>
<path d="M501.086 342.799H115.931C112.506 342.799 109.221 341.439 106.799 339.017C104.377 336.595 103.017 333.31 103.017 329.885C242.635 313.659 379.63 313.659 514 329.885C514 333.31 512.64 336.595 510.218 339.017C507.796 341.439 504.511 342.799 501.086 342.799Z" fill="#2F2E41"/>
<path d="M514 330.645L103.017 329.885L150.648 249.739L150.876 249.36V72.7277C150.876 70.5838 151.298 68.4608 152.118 66.4801C152.939 64.4993 154.141 62.6995 155.657 61.1835C157.173 59.6676 158.973 58.465 160.954 57.6447C162.935 56.8243 165.058 56.4022 167.201 56.4023H447.536C449.68 56.4022 451.803 56.8243 453.784 57.6447C455.765 58.465 457.565 59.6676 459.08 61.1835C460.596 62.6995 461.799 64.4993 462.619 66.4801C463.44 68.4608 463.862 70.5838 463.862 72.7277V250.575L514 330.645Z" fill="#3F3D56"/>
<path d="M166.829 67.7974C165.42 67.7989 164.068 68.3597 163.071 69.3566C162.074 70.3536 161.513 71.7052 161.512 73.1151V234.166C161.513 235.576 162.074 236.927 163.071 237.924C164.068 238.921 165.42 239.482 166.829 239.484H450.188C451.598 239.482 452.949 238.921 453.946 237.924C454.943 236.927 455.504 235.576 455.506 234.166V73.1151C455.504 71.7052 454.943 70.3536 453.946 69.3567C452.949 68.3598 451.598 67.799 450.188 67.7974H166.829Z" fill="white"/>
<path d="M168.017 260.754C167.581 260.755 167.155 260.88 166.788 261.115C166.421 261.35 166.129 261.685 165.946 262.081L151.269 293.987C151.109 294.334 151.04 294.716 151.066 295.097C151.092 295.479 151.214 295.847 151.421 296.169C151.627 296.491 151.91 296.756 152.246 296.939C152.581 297.123 152.957 297.219 153.339 297.219H461.984C462.372 297.219 462.755 297.119 463.094 296.93C463.433 296.741 463.718 296.468 463.923 296.138C464.127 295.807 464.243 295.43 464.26 295.042C464.278 294.654 464.196 294.268 464.022 293.92L448.069 262.014C447.881 261.635 447.59 261.316 447.23 261.093C446.87 260.87 446.454 260.753 446.031 260.754H168.017Z" fill="#2F2E41"/>
<path d="M307.369 65.1386C309.257 65.1386 310.787 63.608 310.787 61.72C310.787 59.832 309.257 58.3015 307.369 58.3015C305.481 58.3015 303.95 59.832 303.95 61.72C303.95 63.608 305.481 65.1386 307.369 65.1386Z" fill="white"/>
<path d="M277.032 303.296C276.531 303.297 276.044 303.462 275.646 303.767C275.249 304.072 274.962 304.499 274.831 304.983L271.15 318.657C271.059 318.995 271.047 319.349 271.115 319.692C271.182 320.035 271.328 320.358 271.541 320.636C271.754 320.913 272.028 321.138 272.342 321.293C272.655 321.448 273 321.529 273.35 321.529H343.364C343.728 321.529 344.086 321.442 344.409 321.275C344.732 321.109 345.01 320.867 345.221 320.571C345.431 320.275 345.568 319.933 345.62 319.574C345.671 319.214 345.636 318.847 345.517 318.504L340.784 304.83C340.629 304.382 340.338 303.994 339.952 303.719C339.566 303.444 339.104 303.297 338.631 303.296H277.032Z" fill="#2F2E41"/>
<path d="M463.862 246.701V249.739H150.648L150.884 249.36V246.701H463.862Z" fill="#2F2E41"/>
<path d="M455.125 121.354C484.494 121.354 508.303 97.5461 508.303 68.1772C508.303 38.8082 484.494 15 455.125 15C425.756 15 401.948 38.8082 401.948 68.1772C401.948 97.5461 425.756 121.354 455.125 121.354Z" fill="#19C6DF"/>
<path d="M477.156 91.3471H433.095C432.29 91.3463 431.517 91.0259 430.948 90.4562C430.378 89.8866 430.057 89.1141 430.057 88.3084V61.7198C430.057 60.9142 430.378 60.1418 430.948 59.5721C431.517 59.0024 432.29 58.682 433.095 58.6812H477.156C477.962 58.682 478.734 59.0024 479.304 59.5721C479.874 60.1418 480.194 60.9142 480.195 61.7198V88.3084C480.194 89.1141 479.874 89.8865 479.304 90.4562C478.735 91.0259 477.962 91.3463 477.156 91.3471ZM433.095 61.7199V88.3084H477.159L477.156 61.7198L433.095 61.7199Z" fill="white"/>
<path d="M468.799 61.7198H441.451V49.5651C441.451 40.7613 447.202 34.3716 455.125 34.3716C463.048 34.3716 468.799 40.7613 468.799 49.5651L468.799 61.7198ZM444.49 58.6812H465.761V49.5651C465.761 42.4086 461.387 37.4103 455.125 37.4103C448.863 37.4103 444.49 42.4086 444.49 49.5651L444.49 58.6812Z" fill="white"/>
<path d="M455.126 77.2932C456.804 77.2932 458.164 75.9327 458.164 74.2545C458.164 72.5763 456.804 71.2158 455.126 71.2158C453.447 71.2158 452.087 72.5763 452.087 74.2545C452.087 75.9327 453.447 77.2932 455.126 77.2932Z" fill="white"/>
<path d="M418.003 184.857H199.013C197.938 184.856 196.907 184.428 196.147 183.668C195.387 182.907 194.959 181.877 194.958 180.801V126.479C194.959 125.404 195.387 124.374 196.147 123.613C196.907 122.853 197.938 122.425 199.013 122.424H418.003C419.078 122.425 420.109 122.853 420.869 123.613C421.629 124.374 422.057 125.404 422.058 126.479V180.801C422.057 181.877 421.629 182.907 420.869 183.668C420.109 184.428 419.078 184.856 418.003 184.857ZM199.013 124.046C198.368 124.047 197.75 124.304 197.294 124.76C196.837 125.216 196.581 125.834 196.58 126.479V180.801C196.581 181.447 196.837 182.065 197.294 182.521C197.75 182.977 198.368 183.234 199.013 183.235H418.003C418.648 183.234 419.267 182.977 419.723 182.521C420.179 182.065 420.435 181.447 420.436 180.801V126.479C420.435 125.834 420.179 125.216 419.723 124.76C419.267 124.303 418.648 124.047 418.003 124.046L199.013 124.046Z" fill="#E6E6E6"/>
<path d="M233.04 168.076C242.163 168.076 249.559 160.68 249.559 151.556C249.559 142.433 242.163 135.037 233.04 135.037C223.916 135.037 216.521 142.433 216.521 151.556C216.521 160.68 223.916 168.076 233.04 168.076Z" fill="#E6E6E6"/>
<path d="M271.192 140.543C270.83 140.543 270.472 140.613 270.137 140.752C269.803 140.89 269.499 141.092 269.243 141.348C268.986 141.604 268.783 141.908 268.645 142.242C268.506 142.576 268.435 142.935 268.435 143.296C268.435 143.658 268.506 144.017 268.645 144.351C268.783 144.685 268.986 144.989 269.243 145.245C269.499 145.501 269.803 145.703 270.137 145.841C270.472 145.979 270.83 146.05 271.192 146.05H400.987C401.717 146.05 402.418 145.76 402.934 145.243C403.45 144.727 403.74 144.027 403.74 143.296C403.74 142.566 403.45 141.866 402.934 141.35C402.418 140.833 401.717 140.543 400.987 140.543H271.192Z" fill="#E6E6E6"/>
<path d="M271.192 157.062C270.461 157.062 269.761 157.353 269.245 157.869C268.729 158.385 268.438 159.086 268.438 159.816C268.438 160.546 268.729 161.246 269.245 161.763C269.761 162.279 270.461 162.569 271.192 162.569H327.043C327.773 162.569 328.473 162.279 328.99 161.763C329.506 161.246 329.796 160.546 329.796 159.816C329.796 159.086 329.506 158.385 328.99 157.869C328.473 157.353 327.773 157.062 327.043 157.062H271.192Z" fill="#E6E6E6"/>
<path d="M150.11 158.176L109.628 179.698L109.115 161.763C122.328 159.558 134.899 155.717 146.523 149.465L150.756 139.005C151.218 137.865 151.968 136.865 152.932 136.102C153.897 135.34 155.043 134.841 156.259 134.656C157.474 134.47 158.717 134.604 159.866 135.044C161.014 135.483 162.028 136.214 162.809 137.164C163.951 138.555 164.521 140.327 164.405 142.122C164.29 143.918 163.496 145.602 162.184 146.833L150.11 158.176Z" fill="#FFB8B8"/>
<path d="M51.1952 282.437C50.8999 281.354 50.8372 280.22 51.0112 279.111C51.1852 278.002 51.5921 276.942 52.205 276.002L61.0977 262.354C63.201 259.126 66.4284 256.795 70.1537 255.812C73.879 254.829 77.8366 255.265 81.2586 257.035C77.5212 263.397 78.0422 268.978 82.5493 273.828C75.5526 277.243 69.086 281.652 63.3499 286.917C62.3027 287.631 61.1001 288.084 59.8422 288.239C58.5844 288.394 57.3077 288.246 56.1185 287.808C54.9293 287.37 53.8621 286.653 53.0057 285.719C52.1493 284.785 51.5286 283.66 51.1952 282.437Z" fill="#2F2E41"/>
<path d="M151.952 264.592C150.607 266.835 148.707 268.694 146.436 269.992C144.165 271.289 141.599 271.981 138.983 272L79.9059 272.448L77.3438 257.588L103.478 249.901L81.4432 232.991L105.527 204.807L149.272 245.579C151.828 247.962 153.49 251.15 153.978 254.611C154.466 258.072 153.751 261.595 151.952 264.592Z" fill="#2F2E41"/>
<path d="M70.6823 366.223H56.8467C44.4243 281.072 31.7796 195.684 69.145 163.813L113.214 170.987L107.577 208.394L82.9806 236.578L70.6823 366.223Z" fill="#2F2E41"/>
<path d="M82.8449 385.512C81.7618 385.807 80.6285 385.87 79.5194 385.696C78.4103 385.522 77.3506 385.115 76.41 384.502L61.3874 382.483C58.1593 380.38 55.8275 377.153 54.8445 373.427C53.8614 369.702 54.2972 365.745 56.0673 362.322C62.4291 366.059 68.0099 365.538 72.8595 361.031C76.2862 367.95 81.9321 367.528 87.3241 373.357C88.038 374.404 88.4914 375.606 88.6465 376.864C88.8016 378.122 88.6539 379.399 88.2156 380.588C87.7774 381.777 87.0614 382.845 86.1272 383.701C85.193 384.557 84.0676 385.178 82.8449 385.512Z" fill="#2F2E41"/>
<path d="M103.478 106.933L77.8564 100.784C82.1118 92.0739 82.4622 82.3819 80.4186 72.0881L97.8412 71.5757C98.3871 84.3762 100.039 96.3352 103.478 106.933Z" fill="#FFB8B8"/>
<path d="M110.52 186.416C91.8687 199.126 78.6901 186.851 68.6333 167.913C70.0308 156.324 67.768 142.456 63.5773 127.387C61.7135 120.741 62.4094 113.637 65.5274 107.479C68.6454 101.32 73.959 96.5548 80.4191 94.1228L102.454 103.347C121.163 118.597 124.846 135.117 117.826 152.54L110.52 186.416Z" fill="#AA1CD3"/>
<path d="M56.8467 119.744L36.3495 130.505L72.732 152.027L77.7944 164.515C78.1323 165.348 78.2969 166.242 78.2782 167.141C78.2595 168.04 78.0578 168.926 77.6856 169.744C77.3133 170.563 76.7782 171.297 76.1128 171.902C75.4475 172.508 74.6659 172.971 73.8157 173.264C72.8492 173.597 71.8187 173.702 70.8049 173.571C69.7911 173.439 68.8214 173.075 67.972 172.506C67.1225 171.937 66.4162 171.18 65.9084 170.292C65.4006 169.405 65.1052 168.412 65.0451 167.392L64.5332 158.689L18.2915 143.429C16.7335 142.915 15.3129 142.053 14.1374 140.909C12.9618 139.764 12.0621 138.367 11.5064 136.823C10.6963 134.573 10.6551 132.118 11.3891 129.842C12.1231 127.566 13.591 125.598 15.563 124.245L52.7473 98.7346L56.8467 119.744Z" fill="#FFB8B8"/>
<path d="M77.344 121.794C68.7954 118.048 61.022 122.117 51.2101 125.381L49.6729 98.2221C59.4156 93.0294 68.7046 91.6294 77.344 95.66L77.344 121.794Z" fill="#AA1CD3"/>
<path d="M87.5702 85.0284C96.6047 85.0284 103.929 77.7045 103.929 68.6701C103.929 59.6356 96.6047 52.3118 87.5702 52.3118C78.5358 52.3118 71.2119 59.6356 71.2119 68.6701C71.2119 77.7045 78.5358 85.0284 87.5702 85.0284Z" fill="#FFB8B8"/>
<path d="M107.14 66.6062C90.9436 68.1924 78.6023 65.5436 70.7148 58.0016V51.9277H105.765L107.14 66.6062Z" fill="#2F2E41"/>
</g>
<defs>
<clipPath id="clip0_47_12281">
<rect width="609" height="394.185" fill="white"/>
</clipPath>
</defs>
</svg>
