<svg width="133" height="48" viewBox="0 0 133 48" fill="none" xmlns="http://www.w3.org/2000/svg">
<path d="M0 24C0 11.0213 10.5213 0.5 23.5 0.5H109.5C122.479 0.5 133 11.0213 133 24C133 36.9787 122.479 47.5 109.5 47.5H23.5C10.5213 47.5 0 36.9787 0 24Z" fill="#CA25FA"/>
<path d="M60.2734 28.9668V30.5H53.1641V28.9668H60.2734ZM53.5352 16.2812V30.5H51.6504V16.2812H53.5352ZM61.6797 25.334V25.1094C61.6797 24.3477 61.7904 23.6413 62.0117 22.9902C62.2331 22.3327 62.5521 21.763 62.9688 21.2812C63.3854 20.793 63.89 20.4154 64.4824 20.1484C65.0749 19.875 65.7389 19.7383 66.4746 19.7383C67.2168 19.7383 67.8841 19.875 68.4766 20.1484C69.0755 20.4154 69.5833 20.793 70 21.2812C70.4232 21.763 70.7454 22.3327 70.9668 22.9902C71.1882 23.6413 71.2988 24.3477 71.2988 25.1094V25.334C71.2988 26.0957 71.1882 26.8021 70.9668 27.4531C70.7454 28.1042 70.4232 28.6738 70 29.1621C69.5833 29.6439 69.0788 30.0215 68.4863 30.2949C67.9004 30.5618 67.2363 30.6953 66.4941 30.6953C65.752 30.6953 65.0846 30.5618 64.4922 30.2949C63.8997 30.0215 63.3919 29.6439 62.9688 29.1621C62.5521 28.6738 62.2331 28.1042 62.0117 27.4531C61.7904 26.8021 61.6797 26.0957 61.6797 25.334ZM63.4863 25.1094V25.334C63.4863 25.8613 63.5482 26.3594 63.6719 26.8281C63.7956 27.2904 63.9811 27.7005 64.2285 28.0586C64.4824 28.4167 64.7982 28.6999 65.1758 28.9082C65.5534 29.11 65.9928 29.2109 66.4941 29.2109C66.9889 29.2109 67.4219 29.11 67.793 28.9082C68.1706 28.6999 68.4831 28.4167 68.7305 28.0586C68.9779 27.7005 69.1634 27.2904 69.2871 26.8281C69.4173 26.3594 69.4824 25.8613 69.4824 25.334V25.1094C69.4824 24.5885 69.4173 24.097 69.2871 23.6348C69.1634 23.166 68.9746 22.7526 68.7207 22.3945C68.4733 22.0299 68.1608 21.7435 67.7832 21.5352C67.4121 21.3268 66.9759 21.2227 66.4746 21.2227C65.9798 21.2227 65.5436 21.3268 65.166 21.5352C64.7949 21.7435 64.4824 22.0299 64.2285 22.3945C63.9811 22.7526 63.7956 23.166 63.6719 23.6348C63.5482 24.097 63.4863 24.5885 63.4863 25.1094ZM80.4102 19.9336H82.0508V30.2754C82.0508 31.2064 81.862 32.0007 81.4844 32.6582C81.1068 33.3158 80.5794 33.8138 79.9023 34.1523C79.2318 34.4974 78.457 34.6699 77.5781 34.6699C77.2135 34.6699 76.7839 34.6113 76.2891 34.4941C75.8008 34.3835 75.319 34.1914 74.8438 33.918C74.375 33.651 73.9811 33.2897 73.6621 32.834L74.6094 31.7598C75.0521 32.2936 75.5143 32.6647 75.9961 32.873C76.4844 33.0814 76.9661 33.1855 77.4414 33.1855C78.0143 33.1855 78.5091 33.0781 78.9258 32.8633C79.3424 32.6484 79.6647 32.3294 79.8926 31.9062C80.127 31.4896 80.2441 30.9753 80.2441 30.3633V22.2578L80.4102 19.9336ZM73.1348 25.334V25.1289C73.1348 24.3216 73.2292 23.5892 73.418 22.9316C73.6133 22.2676 73.89 21.6979 74.248 21.2227C74.6126 20.7474 75.0521 20.3828 75.5664 20.1289C76.0807 19.8685 76.6602 19.7383 77.3047 19.7383C77.9688 19.7383 78.5482 19.8555 79.043 20.0898C79.5443 20.3177 79.9674 20.653 80.3125 21.0957C80.6641 21.5319 80.9408 22.0592 81.1426 22.6777C81.3444 23.2962 81.4844 23.9961 81.5625 24.7773V25.6758C81.4909 26.4505 81.3509 27.1471 81.1426 27.7656C80.9408 28.3841 80.6641 28.9115 80.3125 29.3477C79.9674 29.7839 79.5443 30.1191 79.043 30.3535C78.5417 30.5814 77.9557 30.6953 77.2852 30.6953C76.6536 30.6953 76.0807 30.5618 75.5664 30.2949C75.0586 30.028 74.6224 29.6536 74.2578 29.1719C73.8932 28.6901 73.6133 28.1237 73.418 27.4727C73.2292 26.8151 73.1348 26.1022 73.1348 25.334ZM74.9414 25.1289V25.334C74.9414 25.8613 74.9935 26.3561 75.0977 26.8184C75.2083 27.2806 75.3743 27.6875 75.5957 28.0391C75.8236 28.3906 76.1133 28.6673 76.4648 28.8691C76.8164 29.0645 77.2363 29.1621 77.7246 29.1621C78.3236 29.1621 78.8184 29.0352 79.209 28.7812C79.5996 28.5273 79.9089 28.1921 80.1367 27.7754C80.3711 27.3587 80.5534 26.9062 80.6836 26.418V24.0645C80.612 23.7064 80.5013 23.3613 80.3516 23.0293C80.2083 22.6908 80.0195 22.3913 79.7852 22.1309C79.5573 21.8639 79.2741 21.6523 78.9355 21.4961C78.597 21.3398 78.1999 21.2617 77.7441 21.2617C77.2493 21.2617 76.8229 21.3659 76.4648 21.5742C76.1133 21.776 75.8236 22.056 75.5957 22.4141C75.3743 22.7656 75.2083 23.1758 75.0977 23.6445C74.9935 24.1068 74.9414 24.6016 74.9414 25.1289ZM92.0508 16.2812V30.5H90.166V16.2812H92.0508ZM97.0117 22.1895V30.5H95.2051V19.9336H96.9141L97.0117 22.1895ZM96.582 24.8164L95.8301 24.7871C95.8366 24.0645 95.944 23.3971 96.1523 22.7852C96.3607 22.1667 96.6536 21.6296 97.0312 21.1738C97.4089 20.7181 97.8581 20.3665 98.3789 20.1191C98.9062 19.8652 99.4889 19.7383 100.127 19.7383C100.648 19.7383 101.117 19.8099 101.533 19.9531C101.95 20.0898 102.305 20.3112 102.598 20.6172C102.897 20.9232 103.125 21.3203 103.281 21.8086C103.438 22.2904 103.516 22.8796 103.516 23.5762V30.5H101.699V23.5566C101.699 23.0033 101.618 22.5605 101.455 22.2285C101.292 21.89 101.055 21.6458 100.742 21.4961C100.43 21.3398 100.046 21.2617 99.5898 21.2617C99.1406 21.2617 98.7305 21.3561 98.3594 21.5449C97.9948 21.7337 97.679 21.9941 97.4121 22.3262C97.1517 22.6582 96.9466 23.0391 96.7969 23.4688C96.6536 23.8919 96.582 24.3411 96.582 24.8164Z" fill="white"/>
<path d="M23.5 0.5C36.4787 0.5 47 11.0213 47 24C47 36.9787 36.4787 47.5 23.5 47.5C10.5213 47.5 0 36.9787 0 24C0 11.0213 10.5213 0.5 23.5 0.5Z" fill="#6C63FF"/>
<mask id="mask0_53_6270" style="mask-type:luminance" maskUnits="userSpaceOnUse" x="0" y="0" width="47" height="48">
<path d="M23.5 47.5C36.4787 47.5 47 36.9787 47 24C47 11.0213 36.4787 0.5 23.5 0.5C10.5213 0.5 0 11.0213 0 24C0 36.9787 10.5213 47.5 23.5 47.5Z" fill="white"/>
</mask>
<g mask="url(#mask0_53_6270)">
<path d="M24.8853 19.4766C27.1282 19.4766 28.9464 17.6584 28.9464 15.4155C28.9464 13.1726 27.1282 11.3544 24.8853 11.3544C22.6424 11.3544 20.8242 13.1726 20.8242 15.4155C20.8242 17.6584 22.6424 19.4766 24.8853 19.4766Z" fill="#FFB9B9"/>
<path d="M21.3775 16.3381C21.3775 16.3381 21.1929 22.0605 20.27 22.7989C19.347 23.5374 23.5926 26.6753 23.5926 26.6753L26.3612 22.2452V18.1841L21.3775 16.3381Z" fill="#FFB9B9"/>
<path d="M23.2232 24.0913L20.9821 20.7072L19.7161 22.43L17.8701 27.5986L19.347 47.7193L28.0231 47.9039L29.1307 24.8298L26.3621 21.5072L23.2232 24.0913Z" fill="#F2F2F2"/>
<path d="M32.6376 25.3833L34.1145 25.1987C34.1145 25.1987 34.4836 25.3833 34.6683 26.6754C34.853 27.9674 37.0673 39.4125 37.0673 39.4125L34.1137 53.441L30.791 49.0108L32.8223 41.2585L30.7916 33.5055L32.6376 25.3833Z" fill="#090814"/>
<path d="M13.8092 25.199H12.7017L9.93262 40.1509L12.5168 51.7805L15.1012 47.5348L14.3628 42.92L14.7309 38.8589L16.0235 36.459L13.8092 25.199Z" fill="#090814"/>
<path d="M22.4855 15.4155L23.2239 15.2309C23.2239 15.2309 23.7777 12.0919 25.0699 12.4623C26.3621 12.8326 29.6848 13.2007 29.6848 11.7239C29.6848 10.247 26.5458 8.95527 24.7008 9.13945C22.8559 9.32363 19.7169 9.87787 19.9013 12.6465C20.0858 15.4152 21.277 18.1091 21.277 18.1091L21.3739 16.4673L22.4855 15.4155Z" fill="#090814"/>
<path d="M33.9305 25.1987L28.0234 22.799L26.639 21.7837L22.4853 40.1508L19.7167 31.844L20.5473 21.2299L12.887 25.1987L15.4714 37.7512L15.8405 42.5507L14.7328 46.4272C14.7328 46.4272 10.8563 49.1958 12.1485 52.1496C13.4407 55.1034 14.9171 55.2886 14.9171 55.2886C14.9171 55.2886 21.1933 49.3815 21.5632 47.9049C21.9331 46.4282 22.4861 43.8438 22.4861 43.8438C22.4861 43.8438 25.625 55.6579 29.3158 55.4732C33.0065 55.2885 33.0078 51.4121 33.0078 51.4121L32.0849 47.351L30.6082 43.1053L31.3466 36.091L33.9305 25.1987Z" fill="#090814"/>
</g>
</svg>
