<svg width="454" height="301" viewBox="0 0 454 301" fill="none" xmlns="http://www.w3.org/2000/svg">
<path d="M223.177 216.421H217.84V277.696H223.177V216.421Z" fill="#353535"/>
<path d="M260.334 216.421C260.334 218.392 258.735 219.991 256.765 219.991H183.577C181.607 219.991 180.008 218.392 180.008 216.421C180.008 214.451 181.607 212.852 183.577 212.852H256.765C258.735 212.852 260.334 214.451 260.334 216.421Z" fill="#353535"/>
<path d="M193.304 189.577C193.304 189.577 188.068 192.741 186.098 199.542C184.128 206.343 189.026 221.206 198.788 221.859C215.643 222.996 217.456 214.067 228.997 219.979C240.538 225.89 251.652 221.825 253.329 216.983C254.996 212.142 262.495 191.548 241.754 190.05C218.796 189.251 193.304 189.566 193.304 189.566V189.577Z" fill="#006163"/>
<path d="M195.871 114.87C195.871 114.87 198.359 99.4333 206.984 97.8457C215.62 96.2469 227.668 99.5347 227.668 99.5347C227.668 99.5347 236.743 107.416 239.671 113.587C242.587 119.757 202.244 125.95 195.859 114.87H195.871Z" fill="#707070"/>
<path d="M206.421 70.3046C206.421 70.3046 215.169 72.0386 217.838 68.0752C220.506 64.1118 222.995 66.1047 226.328 70.4284C229.66 74.7522 235.29 83.9738 235.955 91.3038C236.788 95.5375 235.223 98.3299 235.223 98.3299C235.223 98.3299 234.007 99.9062 231.541 100.008C229.075 100.109 226.283 103.825 226.283 109.905C226.283 117.415 222.567 118.259 222.567 118.259C222.567 118.259 208.301 123.191 207.884 110.513C207.637 102.969 208.47 101.651 207.682 99.4108C206.893 97.1701 201.815 97.1138 199 92.9815C196.186 88.8492 188.045 72.0611 206.421 70.3046Z" fill="#FABB86"/>
<path d="M225.618 61.5336C225.618 61.5336 227.115 66.5554 225.618 69.528C224.897 70.9579 219.841 75.1915 215.484 75.0452C211.126 74.9101 207.748 76.3062 207.748 76.3062H212.669C212.669 76.3062 214.076 79.8193 214.639 82.2176C215.202 84.6159 212.635 84.8186 213.052 86.789C213.468 88.7594 216.148 92.5089 216.148 92.5089L213.581 93.8938C213.581 93.8938 210.665 87.5884 208.582 87.138C205.35 86.4399 202.907 89.8516 205.485 92.5539C208.368 95.5828 209.235 96.112 207.917 104.005C207.309 101.066 199.247 98.4765 194.755 90.0881C190.251 81.6996 192.953 75.169 196.613 72.0726C196.196 67.1409 201.961 63.3464 205.902 63.763C209.843 64.1796 213.356 59.687 213.356 59.687C213.356 59.687 212.939 62.2204 211.385 63.2C213.074 63.4815 214.482 61.3197 214.482 60.858C214.898 61.984 214.009 63.2451 214.009 63.2451C214.009 63.2451 217.195 63.2451 218.085 61.5111C218.22 62.029 217.713 63.2 217.195 63.5266C218.603 63.6617 219.965 63.5716 221.091 61.9277C221.226 62.8622 220.765 63.9432 219.447 64.5512C222.026 64.9791 223.298 62.1078 223.433 61.4097C223.715 62.4006 223.298 64.5512 222.634 65.4857C224.086 65.6208 225.302 63.2338 225.584 61.4998L225.618 61.5336Z" fill="#7F3F22"/>
<path d="M257.438 153.874C254.229 142.288 247.462 117.494 245.142 116.289C242.823 115.085 238.285 114.803 233.466 113.328C228.647 111.842 226.384 107.969 226.384 107.969C225.123 116.515 221.137 118.249 217.162 118.463C212.411 118.046 209.1 116.042 207.839 107.484C207.839 107.484 205.666 111.842 200.847 113.328C196.028 114.814 191.49 115.085 189.171 116.289C186.851 117.494 180.084 142.288 176.875 153.874C173.666 165.46 172.428 168.174 176.875 170.156C179.803 171.462 187.437 172.43 192.312 172.959C192.211 179.681 192.199 185.716 192.436 188.79C208.008 195.4 227.555 197.764 241.877 188.79C242.102 185.705 242.102 179.681 241.99 172.971C246.865 172.453 254.499 171.473 257.427 170.167C261.874 168.196 260.636 165.472 257.427 153.885L257.438 153.874ZM192.549 162.477C190.06 162.24 187.696 161.981 187.257 161.756C186.266 161.26 193.19 142.727 193.19 142.727C193.19 142.727 192.819 152.039 192.549 162.477ZM247.068 161.756C246.629 161.981 244.264 162.24 241.776 162.477C241.506 152.039 241.134 142.727 241.134 142.727C241.134 142.727 248.047 161.26 247.068 161.756Z" fill="#9DC030"/>
<path d="M257.438 153.874C254.229 142.288 247.462 117.494 245.142 116.289C242.823 115.084 238.961 112.979 234.153 111.492C233.567 111.312 231.946 110.141 231.428 109.894C225.517 137.784 227.96 192.01 232.554 198.957C238.184 195.771 241.933 191.447 249.376 191.954C250.975 192.055 242.125 181.606 241.99 172.959C246.865 172.441 254.499 171.461 257.427 170.155C261.874 168.185 260.636 165.46 257.427 153.874H257.438ZM247.068 161.756C246.629 161.981 244.264 162.24 241.776 162.476C241.505 152.038 241.134 142.727 241.134 142.727C241.134 142.727 248.047 161.26 247.068 161.756Z" fill="#939393"/>
<path d="M234.625 109.905C234.039 109.725 231.945 110.141 231.438 109.905C229.659 118.305 228.5 127.042 227.7 135.904C230.493 127.549 234.805 120.275 239.759 113.621C238.093 112.878 236.697 110.536 234.636 109.905H234.625Z" fill="#707070"/>
<path d="M204.462 109.173C203.471 109.962 201.286 111.819 199.823 112.27C195.004 113.756 191.502 115.085 189.182 116.289C186.863 117.494 180.096 142.288 176.887 153.874C173.678 165.46 172.439 168.174 176.887 170.156C179.814 171.462 187.448 172.43 192.324 172.959C192.189 181.607 183.913 192.54 186.424 198.327C186.424 198.327 187.944 190.108 207.558 198.327C213.751 182.845 213.481 137.322 204.462 109.173ZM192.549 162.477C190.061 162.24 187.696 161.981 187.257 161.756C186.266 161.26 193.191 142.727 193.191 142.727C193.191 142.727 192.819 152.039 192.549 162.477Z" fill="#939393"/>
<path d="M204.461 109.173C203.471 109.962 201.005 109.444 199.541 109.905C198.302 110.288 197.424 113.035 196.354 113.396C202.029 119.116 206.522 125.421 209.832 132.312C208.594 124.441 206.871 116.695 204.461 109.173Z" fill="#707070"/>
<path d="M218.817 278.101C218.817 278.101 234.524 249.727 242.181 237.611C249.838 225.507 256.267 213.392 256.019 204.992C255.771 196.593 253.88 194.926 250.333 193.879C246.786 192.821 238.972 195.849 235.504 200.792C232.047 205.735 225.134 227.478 217.962 248.229L209.066 273.924C209.066 273.924 212.264 278.09 218.806 278.09L218.817 278.101Z" fill="#006A72"/>
<path d="M210.689 268.395C210.689 268.395 204.496 279.463 199.058 283.224C193.619 286.985 188.08 288.854 185.546 293.166C184.792 296.094 206.985 295.294 214.641 291.342C218.109 289.552 219.933 281.31 221.577 274.397C223.232 267.483 210.689 268.395 210.689 268.395Z" fill="#262626"/>
<path d="M226.272 267.055C226.272 267.055 215.136 268.339 213.233 260.176C210.463 262.788 206.567 267.821 206.567 267.821C206.567 267.821 211.634 276.131 223.716 275.703C225.146 272.888 226.272 267.044 226.272 267.044V267.055Z" fill="#494949"/>
<path d="M222.737 278.102C222.737 278.102 207.029 249.727 199.362 237.612C191.705 225.508 185.276 213.392 185.524 204.993C185.771 196.593 187.663 194.927 191.21 193.879C194.756 192.821 202.571 195.85 206.039 200.793C209.495 205.736 216.409 227.478 223.581 248.23L232.476 273.924C232.476 273.924 229.279 278.09 222.737 278.09V278.102Z" fill="#007686"/>
<path d="M230.867 268.396C230.867 268.396 237.06 279.464 242.498 283.225C247.936 286.974 253.476 288.854 256.01 293.167C256.764 296.094 234.571 295.295 226.915 291.343C223.447 289.553 221.623 281.311 219.979 274.397C218.323 267.484 230.867 268.396 230.867 268.396Z" fill="#353535"/>
<path d="M215.846 265.784C215.846 265.784 226.216 269.499 228.119 261.336C231.058 261.336 234.999 267.833 234.999 267.833C234.999 267.833 229.932 276.142 217.85 275.715C214.867 271.357 215.846 265.784 215.846 265.784Z" fill="#595959"/>
<path d="M82.9482 268.666C82.9482 268.666 81.0003 274.78 84.0967 283.889C86.236 287.402 100.57 292.525 100.57 292.525C100.57 292.525 102.99 296.601 88.229 295.836C80.6625 295.442 69.7407 281.525 67.6238 277.449C65.4958 273.373 68.4345 271.661 71.1143 270.423C73.7941 269.184 75.4943 266.639 75.4943 266.639C75.4943 266.639 81.9123 266.313 82.9482 268.666Z" fill="#823D1A"/>
<path d="M50.4303 205.083C50.4303 205.083 53.9546 200.602 47.5253 211.445C41.1073 222.288 109.521 203.709 110.962 207.279C109.206 212.717 101.38 206.986 93.3521 229.01C85.7293 249.885 74.0981 267.045 74.0981 267.045L83.3535 274.487C83.3535 274.487 99.3986 253.162 114.532 235.619C129.664 218.077 137.985 202.786 130.239 196.796C130.239 196.796 131.185 189.894 62.5007 200.872C51.5225 202.628 50.4078 205.083 50.4078 205.083H50.4303Z" fill="#545454"/>
<path d="M163.781 176.247H112.336V177.429H163.781V176.247Z" fill="#303030"/>
<path d="M180.051 126.873C180.22 126.333 180.795 126.017 181.335 126.186C181.876 126.355 182.191 126.929 182.022 127.47L166.709 177.44C166.54 177.981 165.966 178.296 165.414 178.127C164.873 177.958 164.569 177.384 164.727 176.843L180.04 126.873H180.051Z" fill="#8C8C8C"/>
<path d="M110.58 176.99C110.557 177.136 110.546 177.282 110.546 177.44C110.546 178.904 111.503 180.097 112.674 180.097H162.746C163.928 180.097 164.874 178.904 164.874 177.44C164.874 177.282 164.862 177.136 164.84 176.99H110.58Z" fill="#515151"/>
<path d="M327.96 269.015C327.96 269.015 326.271 278.113 315.011 283.979C303.752 289.845 314.167 292.66 324.582 290.971C334.997 289.282 336.472 283.337 339.783 281.333C343.093 279.329 339.22 273.834 338.094 270.152C336.968 266.47 327.96 269.015 327.96 269.015Z" fill="#262626"/>
<path d="M285.906 270.523C285.906 270.523 281.515 278.664 269.006 280.804C256.496 282.943 265.549 288.809 275.975 290.386C286.413 291.962 289.633 286.749 293.394 285.859C297.155 284.958 295.151 278.54 295.207 274.701C295.263 270.861 285.906 270.512 285.906 270.512V270.523Z" fill="#262626"/>
<path d="M277.833 134.924C277.833 134.924 276.403 177.046 278.227 199.194C280.051 221.342 282.787 253.916 280.67 273.879C290.872 275.625 296.805 273.879 296.805 273.879C296.805 273.879 301.129 235.585 301.343 217.21C301.557 198.834 306.759 171.822 307.885 168.782C311.634 181.505 323.761 258.499 325.641 271.661C335.775 272.438 339.153 270.119 339.153 270.119C339.153 270.119 338.905 230.721 335.032 210.082C331.159 189.443 334.852 144.776 330.19 127.887C310.891 119.251 277.844 134.935 277.844 134.935L277.833 134.924Z" fill="#B78C58"/>
<path d="M285.152 45.4884C285.152 45.4884 278.024 48.0669 273.903 50.4427C269.782 52.8185 256.113 87.7234 251.328 94.6368C246.542 101.55 220.994 132.176 220.994 132.176V142.333C220.994 142.333 245.991 124.103 260.594 107.135C267.677 98.9042 277.304 83.2533 277.304 83.2533C277.304 83.2533 283.575 111.087 274.106 142.153C304.879 151.16 332.802 140.937 332.802 140.937C332.802 140.937 327.972 118.226 328.513 75.2027L335.088 106.414L340.999 145.733L351.066 137.84C351.066 137.84 350.221 104.219 346.911 91.3265C336.777 59.304 328.017 46.074 321.137 41.9417C314.258 37.8094 304.879 36.3907 299.249 37.1C293.619 37.8094 285.152 45.4997 285.152 45.4997V45.4884Z" fill="#0AACC1"/>
<path d="M271.864 8.16301C271.864 8.16301 267.079 15.6957 262.372 14.885C257.666 14.0856 257.396 17.2608 258.218 22.6542C259.051 28.0475 261.843 38.4852 266.685 44.025C269.184 47.5493 272.281 48.3487 272.281 48.3487C272.281 48.3487 274.263 48.5514 276.042 46.8399C277.821 45.1284 282.426 45.6576 286.84 49.8575C292.278 55.0369 297.367 46.7611 297.367 46.7611C297.367 46.7611 302.063 39.0707 299.968 36.9539C294.654 31.5831 293.145 31.2565 292.075 29.151C290.994 27.0454 294.462 23.3185 293.404 18.4318C292.357 13.5451 285.815 -3.92985 271.864 8.16301Z" fill="#FABB86"/>
<path d="M258.893 19.1299C258.893 19.1299 263.003 21.044 269.781 19.0398C277.314 16.8104 278.451 15.3804 279.183 19.0398C279.915 22.6992 281.041 23.1158 283.011 23.8252C284.981 24.5345 286.107 28.7569 286.107 28.7569L287.931 26.9328C287.931 26.9328 286.524 24.6809 286.805 21.5845C287.087 18.4881 290.138 18.2179 291.591 21.0215C293.043 23.8252 289.868 27.7998 293.449 30.9751C294.687 25.2439 296.23 13.5676 288.067 6.1025C279.903 -1.36265 261.471 6.38398 259.49 11.3044C257.508 16.2249 259.298 18.2517 258.882 19.1412L258.893 19.1299Z" fill="#939393"/>
<path d="M258.307 23.4986C258.307 23.4986 265.13 19.5915 277.099 18.8371C288.009 18.1502 294.45 21.4606 294.45 21.4606C294.45 21.4606 296.015 9.36771 289.282 3.96308C282.549 -1.43029 268.091 -0.585819 261.898 3.96308C255.706 8.51198 256.032 15.6844 258.307 23.4873V23.4986Z" fill="#353535"/>
<path d="M279.183 18.7585C279.183 18.7585 266.763 15.7973 257.857 16.3602C248.95 16.9232 239.661 23.42 245.291 27.7663C250.921 32.1125 260.176 30.9527 260.176 30.9527C260.176 30.9527 258.803 25.5031 258.87 24.4447C263.16 20.8528 276.187 18.7135 279.183 18.7585Z" fill="#F2595B"/>
<path d="M251.303 129.418H184.376C183.275 129.418 182.383 130.31 182.383 131.411V174.614C182.383 175.715 183.275 176.607 184.376 176.607H251.303C252.404 176.607 253.296 175.715 253.296 174.614V131.411C253.296 130.31 252.404 129.418 251.303 129.418Z" fill="#DBDBDB"/>
<path d="M253.319 179.681C253.319 179.907 252.925 180.098 252.429 180.098H183.272C182.777 180.098 182.383 179.907 182.383 179.681V177.024C182.383 176.788 182.777 176.607 183.272 176.607H252.429C252.925 176.607 253.319 176.799 253.319 177.024V179.681Z" fill="#515151"/>
<path d="M362.808 258.172C362.808 258.172 365.702 263.7 364.249 272.933C362.785 276.649 347.968 284.891 347.968 284.891C347.968 284.891 347.968 288.044 362.256 286.434C371.613 285.375 377.603 268.272 378.966 264.016C380.317 259.759 377.22 258.611 374.45 257.868C371.681 257.125 369.62 254.974 369.62 254.974C369.62 254.974 363.416 255.729 362.819 258.161L362.808 258.172Z" fill="#F2595B"/>
<path d="M385.575 189.297C385.575 189.297 381.454 185.592 389.415 194.904C397.375 204.216 328.748 197.831 327.96 201.491C330.549 206.411 337.091 199.61 348.452 219.371C359.228 238.085 373.313 256.382 373.313 256.382L363.63 263.509C363.63 263.509 346.684 243.501 329.266 229.223C311.858 214.946 301.331 201.682 307.749 194.656C307.749 194.656 305.688 188.193 373.302 187.27C384.111 187.123 385.586 189.285 385.586 189.285L385.575 189.297Z" fill="#0D1F60"/>
<path d="M376.375 287.717C376.375 287.717 338.374 292.322 337.394 292.469C336.415 292.615 336.133 289.158 340.626 287.717C345.13 286.276 372.659 281.344 372.659 281.344L376.375 287.717Z" fill="#353535"/>
<path d="M376.375 287.717C376.375 287.717 414.376 292.322 415.356 292.469C416.335 292.615 416.617 289.158 412.124 287.717C407.621 286.276 380.091 281.344 380.091 281.344L376.375 287.717Z" fill="#353535"/>
<path d="M381.296 229.201H371.443V288.314H381.296V229.201Z" fill="#545454"/>
<path d="M383.829 220.824H368.91V230.957H383.829V220.824Z" fill="#353535"/>
<path d="M334.681 223.92L416.583 223.785L441.017 124.914L436.648 123.788L412.293 218.369L334.85 218.504L334.681 223.92Z" fill="#353535"/>
<path d="M436.355 124.914C436.355 124.914 424.375 121.885 422.123 141.162C419.871 160.438 413.96 197.268 409.264 203.09C404.569 208.911 410.638 216.748 412.293 218.369C415.829 204.632 436.355 124.914 436.355 124.914Z" fill="#017994"/>
<path d="M336.91 218.504H412.293C412.293 218.504 411.482 209.947 403.353 209.947C395.224 209.947 376.803 215.858 369.101 214.541C361.411 213.223 336.054 205.758 336.91 218.504Z" fill="#017994"/>
<path d="M290.295 277.707C290.295 277.707 280.645 284.947 262.405 287.616C253.037 288.584 251.708 289.294 251.708 289.294C251.708 289.294 249.985 293.538 257.147 293.989C264.319 294.439 286.084 295.126 290.543 294.878C295.001 294.631 294.979 291.332 294.686 288.472C294.393 285.612 295.677 282.932 295.677 282.932C295.677 282.932 292.772 277.403 290.284 277.707H290.295Z" fill="#F2595B"/>
<path d="M406.798 188.406C406.798 188.406 413.937 198.81 406.731 208.708C399.513 218.605 339.128 220.598 335.379 220.677C331.19 224.336 339.342 235.933 322.756 251.562C307.038 266.38 296.184 283.37 296.184 283.37L285.982 277.954C285.982 277.954 298.852 248.612 308.693 228.367C318.545 208.122 324.198 196.795 333.858 196.615L377.996 187.292C388.378 184.274 406.81 188.395 406.81 188.395L406.798 188.406Z" fill="#12357C"/>
<path d="M408.859 188.463L409.005 194.048C409.005 194.048 394.683 184.207 376.184 185.186C377.174 182.946 377.794 180.784 377.794 180.784L408.848 188.452L408.859 188.463Z" fill="#999999"/>
<path d="M366.4 76.1368C366.4 76.1368 363.664 86.0903 365.521 88.9616C363.765 93.0938 362.121 95.3908 362.121 95.3908L365.916 97.395C365.916 97.395 367.436 100.514 366.985 101.764C366.535 103.002 366.085 104.669 368.224 106.211C370.363 107.765 379.236 106.549 379.236 106.549C379.236 106.549 380.632 112.337 381.251 115.928C381.859 119.498 393.367 116.232 393.367 116.232L391.892 104.173C391.892 104.173 398.963 90.4028 399.323 82.1495C399.683 73.8961 392.68 66.3972 384.584 66.127C376.5 65.8568 367.593 70.4845 366.422 76.1481L366.4 76.1368Z" fill="#FABB86"/>
<path d="M372.502 101.539C372.502 101.539 371.185 97.5526 369.958 96.832C368.73 96.1114 366.478 97.4625 365.274 96.9446C364.08 96.4266 365.274 98.87 366.028 99.2303C367.12 98.7574 368.37 98.3633 369.744 98.9488C371.117 99.5343 371.613 102.034 371.286 102.642C370.971 103.239 369.924 104.432 368.607 103.745C367.289 103.047 366.906 102.473 366.985 101.764C366.163 102.034 365.6 103.486 366.129 105.66C366.659 107.833 369.62 107.923 369.62 107.923L376.736 106.819C376.736 106.819 372.57 105.006 372.502 101.539Z" fill="#3D3D3D"/>
<path d="M365.983 87.5204C365.983 87.5204 365.623 85.3698 366.49 84.6154C367.357 83.861 372.48 87.4078 374.372 87.0137C371.32 88.0158 366.456 86.0904 365.983 87.5204Z" fill="#3D3D3D"/>
<path d="M392.623 110.152C392.623 110.152 386.216 119.79 381.723 116.063C380.147 118.687 372.727 131.849 371.398 138.11C370.081 144.381 368.955 153.186 370.734 161.44C372.513 169.693 368.763 180.806 366.579 187.28C376.96 187.258 408.285 193.518 412.316 198.225C412.023 188.474 412.102 178.926 413.07 171.956C414.748 159.908 416.099 121.13 392.6 110.163L392.623 110.152Z" fill="#FFE164"/>
<path d="M406.235 168.849C406.235 168.849 400.504 140.193 396.991 133.134C393.478 126.085 394.649 121.716 401.067 122.583C407.496 123.462 409.94 130.611 409.94 130.611C409.94 130.611 418.092 165.145 416.133 175.369C414.173 185.592 396 179.782 386.621 179.681C377.197 179.591 360.532 179.681 360.532 179.681L355.556 173.511C360.138 170.617 406.224 168.849 406.224 168.849H406.235Z" fill="#FABB86"/>
<path d="M399.468 117.831C393.05 116.953 390.979 125.691 394.48 132.739C395.967 135.723 397.734 142.107 399.299 148.491C403.657 145.834 408.679 144.325 413.836 143.593C412.079 135.126 410.39 128.37 410.39 128.37C410.39 128.37 405.886 118.71 399.468 117.831Z" fill="#FFED9F"/>
<path d="M367.052 74.0995C367.052 74.0995 376.477 74.9214 380.98 76.419C385.484 77.9165 382.478 81.4858 381.915 82.0488C381.352 82.6118 380.417 85.6857 382.106 87.521C383.795 89.3563 383.424 91.8447 383.424 91.8447H385.304C385.304 91.8447 385.586 85.9897 389.054 86.9242C392.522 87.8588 390.641 91.5182 390.641 94.0516C390.641 96.585 390.72 103.104 391.756 104.163C393.929 100.909 399.84 88.3317 399.739 80.3598C399.649 72.388 392.42 66.0939 384.629 65.5309C376.837 64.9679 368.302 70.0347 367.041 74.0995H367.052Z" fill="#939393"/>
<path d="M336.855 139.641C336.855 139.641 332.722 135.982 330.504 132.289C328.286 128.595 327.262 126.816 327.262 126.816C327.262 126.816 320.123 123.348 318.423 122.639C316.722 121.918 307.602 123.844 304.821 123.686C304.1 125.229 308.323 125.319 310.473 125.184C312.624 125.06 315.529 125.173 315.529 125.173L310.958 126.816C310.958 126.816 308.841 130.532 308.3 130.937C308.706 131.703 309.933 131.759 311.768 128.776C313.57 127.796 317.657 128.291 317.657 128.291C317.657 128.291 314.133 129.158 313.345 129.53C312.568 129.902 310.496 132.412 310.496 132.412C310.496 132.412 310.406 134.113 314.031 131.118C316.103 129.406 317.353 130.859 320.269 133.876C323.197 136.883 324.593 136.534 324.593 136.534L332.835 145.845L337.271 139.788" fill="#FABB86"/>
<path d="M327.262 138.808H381.77C382.671 138.808 383.391 139.539 383.391 140.429V175.615C383.391 176.516 382.66 177.237 381.77 177.237H327.262C326.361 177.237 325.641 176.505 325.641 175.615V140.44C325.641 139.54 326.373 138.819 327.262 138.819V138.808Z" fill="#DBDBDB"/>
<path d="M383.414 179.748C383.414 179.939 383.087 180.085 382.693 180.085H326.361C325.956 180.085 325.641 179.939 325.641 179.748V177.586C325.641 177.394 325.967 177.248 326.361 177.248H382.693C383.099 177.248 383.414 177.394 383.414 177.586V179.748Z" fill="#515151"/>
<path d="M139.44 185.829H132.312V295.115H139.44V185.829Z" fill="#D67838"/>
<path d="M144.472 295.115C144.472 295.565 144.112 295.926 143.662 295.926H128.078C127.628 295.926 127.268 295.565 127.268 295.115C127.268 294.665 127.628 294.304 128.078 294.304H143.662C144.112 294.304 144.472 294.665 144.472 295.115Z" fill="#D67838"/>
<path d="M65.2705 295.318C65.2705 295.318 103.272 299.923 104.263 300.07C105.254 300.216 105.524 296.759 101.02 295.318C96.516 293.877 68.9862 288.945 68.9862 288.945L65.2705 295.318Z" fill="#353535"/>
<path d="M65.2701 295.318C65.2701 295.318 27.2688 299.923 26.2892 300.07C25.3096 300.216 25.0281 296.759 29.532 295.318C34.0358 293.877 61.5657 288.945 61.5657 288.945L65.2814 295.318H65.2701Z" fill="#353535"/>
<path d="M70.2018 236.903H60.3496V296.016H70.2018V236.903Z" fill="#545454"/>
<path d="M72.7354 239.965H57.8164V250.099H72.7354V239.965Z" fill="#353535"/>
<path d="M106.976 243.062L25.0731 242.927L0.639648 144.056L4.99713 142.93L29.3518 237.511L106.807 237.646L106.976 243.062Z" fill="#353535"/>
<path d="M5.30078 144.056C5.30078 144.056 17.281 141.027 19.533 160.304C21.7849 179.58 27.6962 216.411 32.3915 222.232C37.0868 228.053 31.0178 235.89 29.3627 237.511C25.8271 223.774 5.31204 144.056 5.31204 144.056H5.30078Z" fill="#017994"/>
<path d="M104.735 237.646H29.3516C29.3516 237.646 30.1735 229.088 38.2917 229.088C46.4099 229.088 64.842 235 72.5436 233.682C80.2339 232.365 105.591 224.9 104.735 237.646Z" fill="#017994"/>
<path d="M123.067 165.179C123.067 165.179 128.37 163.568 131.939 161.125C135.509 158.682 137.186 157.488 137.186 157.488C137.186 157.488 145.158 157.308 147.005 157.364C148.862 157.421 156.373 162.983 158.985 163.996C158.996 165.708 155.1 164.019 153.197 163.006C151.283 161.992 148.592 160.877 148.592 160.877L152.083 164.289C152.083 164.289 152.466 168.568 152.781 169.165C152.083 169.694 150.957 169.232 150.529 165.742C149.29 164.098 145.349 162.837 145.349 162.837C145.349 162.837 148.209 165.1 148.761 165.775C149.324 166.451 150.157 169.592 150.157 169.592C150.157 169.592 149.538 171.191 147.466 166.924C146.284 164.492 144.55 165.302 140.609 166.834C136.68 168.365 135.554 167.453 135.554 167.453L124.136 172.509L122.616 165.122" fill="#E5A576"/>
<path d="M171.551 276.649C171.551 276.649 181.887 284.857 201.738 288.337C211.95 289.677 213.38 290.499 213.38 290.499C213.38 290.499 215.137 295.194 207.289 295.464C199.441 295.734 175.616 295.824 170.74 295.419C165.865 295.014 166 291.399 166.405 288.292C166.811 285.184 165.493 282.2 165.493 282.2C165.493 282.2 168.849 276.244 171.551 276.649Z" fill="#823D1A"/>
<path d="M28.7444 207.346C28.7444 207.346 22.788 219.799 32.2574 229.28C41.738 238.749 107.337 230.676 111.401 230.136C116.547 233.378 108.575 239.931 129.147 254.006C148.637 267.36 163.252 283.878 163.252 283.878L173.363 276.3C173.363 276.3 155.618 254.141 141.544 233.93C127.469 213.719 119.43 202.437 108.969 203.878L59.6971 201.288C47.9646 199.78 28.7444 207.369 28.7444 207.369V207.346Z" fill="#666666"/>
<path d="M27.6962 205.207L27.5273 211.568C27.5273 211.568 43.8201 200.376 64.8643 201.491C63.7384 198.946 63.029 196.48 63.029 196.48L27.7075 205.207H27.6962Z" fill="#999999"/>
<path d="M125.791 163.647C109.397 164.48 78.084 167.813 78.084 167.813C78.084 167.813 59.787 141.544 56.7807 133.1C53.7744 124.655 44.9919 119.464 40.6456 125.409C36.2882 131.354 40.6456 142.67 40.6456 142.67C40.6456 142.67 61.7575 174.107 71.666 180.582C81.5745 187.056 89.6251 181.708 103.418 178.611C112.448 176.584 121.524 174.501 127.266 173.173C127.266 171.574 125.735 164.323 125.791 163.658V163.647Z" fill="#E06873"/>
<path d="M85.2561 82.5782C85.2561 82.5782 85.7177 94.3108 82.914 97.0131C83.8036 102.046 85.0196 105.019 85.0196 105.019L80.3018 106.257C80.3018 106.257 77.8134 109.331 77.9936 110.817C78.1625 112.304 78.2413 114.263 75.4827 115.434C72.7241 116.605 63.1984 112.968 63.1984 112.968C63.1984 112.968 60.1583 119.014 58.5482 122.831C56.9493 126.626 45.0479 120.039 45.0479 120.039L49.7882 107.057C49.7882 107.057 45.4982 89.9758 47.2435 80.7429C48.9775 71.51 58.672 65.0019 67.7023 66.7922C76.7325 68.5825 85.4024 75.9913 85.2448 82.5782H85.2561Z" fill="#FABB86"/>
<path d="M64.4373 81.5083C64.4373 81.5083 65.9911 85.179 72.9834 85.224C79.9869 85.269 82.3289 87.566 81.3718 89.4238C83.4098 88.3091 82.7905 85.9896 82.7905 85.9896C82.7905 85.9896 86.0108 87.1719 85.3239 90.9214C86.2697 90.0882 87.0917 86.8116 85.9657 84.053C86.9453 84.0868 87.6885 85.787 88.1501 87.5547C88.319 85.9784 86.4386 75.5632 79.4239 71.0031C81.5745 70.8679 82.3514 69.2128 82.0812 67.445C81.8222 68.4809 80.2909 72.8159 75.0326 67.749C69.7631 62.6822 60.1023 63.369 56.6569 66.6005C57.2987 64.3261 59.6294 62.6822 61.431 62.3556C60.1248 62.1192 54.5063 64.2585 53.6731 67.963C53.6168 64.7089 55.0242 62.8736 55.0242 62.8736C55.0242 62.8736 51.9391 64.7427 51.5337 68.7849C49.0228 68.4809 44.1361 70.5414 43.1228 77.0157C42.1094 83.49 39.2945 87.1494 38.709 86.4288C40.2178 87.003 42.3121 85.3816 42.83 84.7624C42.0981 87.87 40.6119 90.6849 42.0306 93.8939C43.4606 97.1029 45.9602 102.17 43.5619 104.85C44.8793 104.309 46.1178 102.035 45.9377 100.244C46.7371 102.17 45.5211 105.84 46.5907 107.957C47.6604 110.074 46.0278 113.351 45.0932 114.173C46.8159 113.79 48.7526 112.258 49.0341 110.299C49.5746 110.243 50.2276 113.182 49.2931 114.308C50.5992 113.463 52.0179 112.213 52.1305 109.049C52.7836 109.308 53.4929 110.367 52.8961 112.776C53.5942 112.371 59.4042 108.926 58.2445 103.802C57.0847 98.6793 57.8617 93.1283 58.5035 91.901C59.5393 92.4977 59.3141 95.9319 58.5372 98.2965C59.6745 97.801 60.9806 95.0311 60.9018 92.5315C62.2079 93.0607 62.8046 95.718 62.0728 96.5962C63.0749 95.2563 63.4802 92.3401 62.8159 90.9664C62.1628 89.5815 67.6913 89.5815 64.4485 81.5083H64.4373Z" fill="#7F3F22"/>
<path d="M71.9365 109.151C71.9365 109.151 74.4249 105.075 75.9788 104.591C77.5213 104.107 79.6719 106.179 81.1357 105.92C82.5994 105.661 80.6403 108.048 79.717 108.262C78.636 107.451 77.3412 106.708 75.6747 107.001C74.0083 107.294 72.8148 109.94 73.0062 110.694C73.1976 111.437 74.0646 113.036 75.6973 112.608C77.3299 112.18 77.9042 111.64 78.0055 110.829C78.85 111.336 79.0977 113.092 77.9492 115.367C76.8007 117.63 73.5016 116.977 73.5016 116.977L65.9014 113.914C65.9014 113.914 70.9907 112.98 71.9478 109.163L71.9365 109.151Z" fill="#7F3F22"/>
<path d="M82.7679 95.3019C82.7679 95.3019 83.7137 93.0162 82.948 91.9578C82.1824 90.8994 75.5955 93.5116 73.6025 92.5771C76.7215 94.4687 82.6215 93.5904 82.7679 95.3019Z" fill="#7F3F22"/>
<path d="M46.1626 116.12C46.1626 116.12 53.4589 127.087 58.5595 122.842C60.3498 125.826 68.7945 140.79 70.2921 147.917C71.7896 155.045 66.081 163.309 64.0542 172.689C62.0388 182.068 62.962 193.71 65.4392 201.074C53.6278 201.052 31.4913 202.392 26.8974 207.74C27.2352 196.649 29.352 191.132 28.2598 183.205C26.3569 169.491 19.4435 128.596 46.1626 116.12Z" fill="#F2595B"/>
<path d="M27.2354 175.729C27.393 176.967 27.5506 178.15 27.697 179.231C38.7652 174.806 51.9841 174.851 63.1424 179.366C63.2324 178.06 63.3788 176.776 63.5702 175.515C52.1079 171.349 38.8441 172.587 27.2354 175.729Z" fill="#F47D83"/>
<path d="M28.1695 182.575C28.2032 182.777 28.2258 183.003 28.2595 183.194C28.6086 185.694 28.6311 187.946 28.496 190.209C39.5417 186.234 51.2067 185.378 62.9956 186.212C62.9393 184.646 62.9618 183.07 63.0181 181.494C51.3981 178.69 39.7782 179.76 28.1582 182.563L28.1695 182.575Z" fill="#F47D83"/>
<path d="M124.632 168.241C124.632 168.241 130.104 167.397 133.988 165.482C137.873 163.58 139.697 162.623 139.697 162.623C139.697 162.623 147.613 163.58 149.437 163.895C151.261 164.21 157.926 170.786 160.358 172.159C160.133 173.86 156.519 171.63 154.762 170.358C153.017 169.086 150.506 167.599 150.506 167.599L153.468 171.473C153.468 171.473 153.242 175.763 153.468 176.393C152.702 176.821 151.655 176.202 151.722 172.689C150.731 170.887 147.004 169.086 147.004 169.086C147.004 169.086 149.515 171.732 149.966 172.475C150.427 173.218 150.799 176.449 150.799 176.449C150.799 176.449 149.955 177.936 148.513 173.432C147.691 170.853 145.856 171.416 141.746 172.373C137.636 173.33 136.646 172.272 136.646 172.272L124.632 175.661L124.17 168.14" fill="#FABB86"/>
<path d="M76.957 171.192C76.957 171.192 58.6601 144.923 55.6538 136.478C52.6474 128.033 43.8649 122.831 39.5187 128.788C35.1612 134.733 39.5187 146.049 39.5187 146.049C39.5187 146.049 60.6305 177.486 70.539 183.96C80.4475 190.434 88.4982 185.086 102.291 181.99C112.751 179.636 124.349 176.968 129.337 175.819L128.222 166.868C112.763 167.476 76.9683 171.203 76.9683 171.203L76.957 171.192Z" fill="#F47D83"/>
<path d="M62.2531 87.1831C61.9829 88.2753 60.8794 88.9397 59.776 88.6694C58.6838 88.3992 58.0195 87.2957 58.2897 86.1923L64.0659 62.9073C64.3362 61.8152 65.4396 61.1508 66.5431 61.4211C67.6352 61.6913 68.2996 62.7947 68.0293 63.8982L62.2531 87.1831Z" fill="#ADADAD"/>
<path d="M65.4618 93.252C64.5836 96.7988 60.9917 98.9607 57.4449 98.0824C53.8981 97.2042 51.7363 93.6123 52.6145 90.0655C53.4928 86.5187 57.0846 84.3569 60.6314 85.2351C64.1782 86.1134 66.3401 89.7052 65.4618 93.252Z" fill="#6D6D6D"/>
<path d="M271.143 164.368V173.161C271.143 175.965 272.528 178.442 274.656 179.962H284.35C286.467 178.442 287.863 175.976 287.863 173.161V164.368H271.154H271.143Z" fill="#DBDBDB"/>
<path d="M292.671 180.244C292.671 180.672 292.322 181.021 291.894 181.021H267.719C267.291 181.021 266.942 180.672 266.942 180.244C266.942 179.816 267.291 179.467 267.719 179.467H291.894C292.322 179.467 292.671 179.816 292.671 180.244Z" fill="#A3A3A3"/>
<path d="M286.94 177.181C286.467 177.181 286.197 177.136 286.163 177.125L286.366 176.021C286.366 176.021 287.762 176.258 289.822 175.481C291.061 175.019 291.849 171.259 291.444 169.052C291.309 168.297 291.084 168.117 291.05 168.117H286.264V166.991H291.05C291.489 166.991 292.255 167.228 292.547 168.849C292.941 171.033 292.345 175.729 290.217 176.528C288.798 177.057 287.649 177.17 286.94 177.17V177.181Z" fill="#DBDBDB"/>
<path d="M155.124 164.525V173.319C155.124 176.123 156.509 178.6 158.637 180.12H168.332C170.448 178.6 171.845 176.134 171.845 173.319V164.525H155.135H155.124Z" fill="#DBDBDB"/>
<path d="M176.64 180.402C176.64 180.83 176.291 181.179 175.863 181.179H151.689C151.261 181.179 150.912 180.83 150.912 180.402C150.912 179.974 151.261 179.625 151.689 179.625H175.863C176.291 179.625 176.64 179.974 176.64 180.402Z" fill="#A3A3A3"/>
<path d="M170.92 177.339C170.448 177.339 170.177 177.294 170.144 177.283L170.346 176.179C170.346 176.179 171.742 176.416 173.803 175.639C175.042 175.177 175.83 171.416 175.424 169.209C175.289 168.455 175.064 168.275 175.03 168.275H170.245V167.149H175.03C175.469 167.149 176.235 167.385 176.528 169.007C176.922 171.191 176.325 175.886 174.197 176.686C172.778 177.215 171.63 177.328 170.92 177.328V177.339Z" fill="#DBDBDB"/>
<path d="M418.554 295.115C418.554 295.565 418.194 295.926 417.744 295.926H402.16C401.71 295.926 401.35 295.565 401.35 295.115C401.35 294.665 401.71 294.304 402.16 294.304H417.744C418.194 294.304 418.554 294.665 418.554 295.115Z" fill="#D67838"/>
<path d="M413.51 185.829H406.383V295.115H413.51V185.829Z" fill="#D67838"/>
<path d="M454 181.021H92.5762V189.781H454V181.021Z" fill="#FF9A55"/>
</svg>
