<svg width="249" height="235" viewBox="0 0 249 235" fill="none" xmlns="http://www.w3.org/2000/svg">
<g clip-path="url(#clip0_39_418)">
<path d="M2.00621 229.427V214.881H7.19087C8.31777 214.881 9.2529 215.075 9.99627 215.463C10.7444 215.852 11.3031 216.389 11.6724 217.076C12.0417 217.757 12.2264 218.546 12.2264 219.441C12.2264 220.331 12.0394 221.114 11.6653 221.792C11.296 222.464 10.7373 222.987 9.98917 223.361C9.2458 223.735 8.31067 223.922 7.18377 223.922H3.25621V222.033H6.98491C7.69514 222.033 8.27279 221.931 8.71786 221.728C9.16767 221.524 9.49674 221.228 9.70508 220.84C9.91341 220.452 10.0176 219.985 10.0176 219.441C10.0176 218.891 9.91104 218.416 9.69798 218.013C9.48964 217.611 9.16057 217.303 8.71076 217.09C8.26568 216.872 7.68093 216.763 6.9565 216.763H4.20082V229.427H2.00621ZM9.18661 222.864L12.7804 229.427H10.2804L6.75763 222.864H9.18661ZM19.2914 229.647C18.2166 229.647 17.2909 229.417 16.5144 228.958C15.7426 228.494 15.146 227.843 14.7246 227.005C14.3079 226.162 14.0996 225.175 14.0996 224.043C14.0996 222.926 14.3079 221.941 14.7246 221.088C15.146 220.236 15.7331 219.571 16.486 219.093C17.2435 218.614 18.129 218.375 19.1422 218.375C19.7578 218.375 20.3543 218.477 20.932 218.681C21.5096 218.884 22.0281 219.204 22.4874 219.64C22.9467 220.075 23.3089 220.641 23.574 221.337C23.8392 222.028 23.9718 222.869 23.9718 223.858V224.611H15.2999V223.02H21.8908C21.8908 222.462 21.7772 221.967 21.5499 221.536C21.3226 221.1 21.003 220.757 20.5911 220.506C20.1839 220.255 19.7057 220.13 19.1564 220.13C18.5598 220.13 18.039 220.276 17.5939 220.57C17.1536 220.859 16.8127 221.238 16.5712 221.706C16.3345 222.17 16.2161 222.675 16.2161 223.219V224.462C16.2161 225.191 16.3439 225.811 16.5996 226.323C16.86 226.834 17.2222 227.225 17.6863 227.495C18.1503 227.76 18.6924 227.892 19.3127 227.892C19.7151 227.892 20.0821 227.836 20.4135 227.722C20.745 227.604 21.0314 227.428 21.2729 227.196C21.5144 226.964 21.699 226.678 21.8269 226.337L23.8368 226.699C23.6758 227.291 23.387 227.81 22.9703 228.255C22.5584 228.695 22.04 229.038 21.415 229.284C20.7947 229.526 20.0868 229.647 19.2914 229.647ZM26.3279 233.517V218.517H28.4018V220.286H28.5794C28.7025 220.059 28.88 219.796 29.112 219.498C29.344 219.199 29.666 218.939 30.0779 218.716C30.4899 218.489 31.0344 218.375 31.7115 218.375C32.5922 218.375 33.3781 218.598 34.0694 219.043C34.7607 219.488 35.3029 220.13 35.6958 220.968C36.0936 221.806 36.2924 222.814 36.2924 223.993C36.2924 225.172 36.0959 226.183 35.7029 227.026C35.31 227.864 34.7702 228.51 34.0836 228.965C33.3971 229.415 32.6135 229.64 31.7328 229.64C31.0699 229.64 30.5278 229.528 30.1064 229.306C29.6897 229.083 29.363 228.823 29.1262 228.525C28.8895 228.226 28.7072 227.961 28.5794 227.729H28.4515V233.517H26.3279ZM28.4089 223.972C28.4089 224.739 28.5202 225.411 28.7427 225.989C28.9653 226.567 29.2872 227.019 29.7086 227.346C30.13 227.668 30.6461 227.829 31.2569 227.829C31.8914 227.829 32.4217 227.66 32.8478 227.324C33.274 226.983 33.5959 226.522 33.8137 225.939C34.0363 225.357 34.1475 224.701 34.1475 223.972C34.1475 223.252 34.0386 222.606 33.8208 222.033C33.6078 221.46 33.2858 221.008 32.8549 220.677C32.4288 220.345 31.8961 220.179 31.2569 220.179C30.6414 220.179 30.1206 220.338 29.6944 220.655C29.273 220.972 28.9534 221.415 28.7356 221.983C28.5178 222.552 28.4089 223.214 28.4089 223.972ZM43.2669 229.647C42.2441 229.647 41.3516 229.412 40.5893 228.944C39.827 228.475 39.2351 227.819 38.8137 226.976C38.3923 226.133 38.1816 225.149 38.1816 224.022C38.1816 222.89 38.3923 221.9 38.8137 221.053C39.2351 220.205 39.827 219.547 40.5893 219.079C41.3516 218.61 42.2441 218.375 43.2669 218.375C44.2896 218.375 45.1821 218.61 45.9444 219.079C46.7067 219.547 47.2986 220.205 47.72 221.053C48.1414 221.9 48.3521 222.89 48.3521 224.022C48.3521 225.149 48.1414 226.133 47.72 226.976C47.2986 227.819 46.7067 228.475 45.9444 228.944C45.1821 229.412 44.2896 229.647 43.2669 229.647ZM43.274 227.864C43.9368 227.864 44.4861 227.689 44.9217 227.338C45.3573 226.988 45.6793 226.522 45.8876 225.939C46.1007 225.357 46.2072 224.715 46.2072 224.015C46.2072 223.319 46.1007 222.679 45.8876 222.097C45.6793 221.51 45.3573 221.039 44.9217 220.684C44.4861 220.329 43.9368 220.151 43.274 220.151C42.6064 220.151 42.0524 220.329 41.612 220.684C41.1764 221.039 40.8521 221.51 40.639 222.097C40.4307 222.679 40.3265 223.319 40.3265 224.015C40.3265 224.715 40.4307 225.357 40.639 225.939C40.8521 226.522 41.1764 226.988 41.612 227.338C42.0524 227.689 42.6064 227.864 43.274 227.864ZM50.7225 229.427V218.517H52.775V220.25H52.8887C53.0875 219.663 53.4379 219.202 53.9398 218.865C54.4464 218.525 55.0194 218.354 55.6586 218.354C55.7911 218.354 55.9474 218.359 56.1273 218.368C56.312 218.378 56.4564 218.39 56.5605 218.404V220.435C56.4753 220.411 56.3238 220.385 56.106 220.357C55.8882 220.324 55.6704 220.307 55.4526 220.307C54.9507 220.307 54.5033 220.414 54.1103 220.627C53.722 220.835 53.4142 221.126 53.187 221.5C52.9597 221.87 52.8461 222.291 52.8461 222.765V229.427H50.7225ZM64.1351 218.517V220.222H58.1763V218.517H64.1351ZM59.7743 215.904H61.8979V226.223C61.8979 226.635 61.9595 226.945 62.0826 227.154C62.2057 227.357 62.3643 227.497 62.5584 227.573C62.7573 227.644 62.9727 227.679 63.2047 227.679C63.3752 227.679 63.5243 227.668 63.6522 227.644C63.78 227.62 63.8794 227.601 63.9505 227.587L64.334 229.341C64.2109 229.389 64.0357 229.436 63.8084 229.483C63.5811 229.535 63.2971 229.564 62.9561 229.569C62.3974 229.578 61.8766 229.479 61.3936 229.27C60.9107 229.062 60.5201 228.74 60.2218 228.304C59.9235 227.869 59.7743 227.322 59.7743 226.664V215.904ZM71.9476 229.427V214.881H77.1323C78.2639 214.881 79.2014 215.087 79.9448 215.499C80.6882 215.911 81.2445 216.474 81.6138 217.189C81.9831 217.9 82.1678 218.7 82.1678 219.59C82.1678 220.485 81.9808 221.29 81.6067 222.005C81.2374 222.715 80.6787 223.278 79.9306 223.695C79.1872 224.107 78.2521 224.313 77.1252 224.313H73.5598V222.452H76.9263C77.6413 222.452 78.2213 222.329 78.6664 222.083C79.1114 221.832 79.4382 221.491 79.6465 221.06C79.8548 220.629 79.959 220.139 79.959 219.59C79.959 219.041 79.8548 218.553 79.6465 218.127C79.4382 217.701 79.1091 217.367 78.6593 217.125C78.2142 216.884 77.6271 216.763 76.8979 216.763H74.1422V229.427H71.9476ZM84.5701 229.427V218.517H86.6227V220.25H86.7363C86.9352 219.663 87.2856 219.202 87.7875 218.865C88.2941 218.525 88.867 218.354 89.5062 218.354C89.6388 218.354 89.795 218.359 89.975 218.368C90.1596 218.378 90.304 218.39 90.4082 218.404V220.435C90.323 220.411 90.1715 220.385 89.9537 220.357C89.7359 220.324 89.5181 220.307 89.3002 220.307C88.7984 220.307 88.3509 220.414 87.9579 220.627C87.5697 220.835 87.2619 221.126 87.0346 221.5C86.8074 221.87 86.6937 222.291 86.6937 222.765V229.427H84.5701ZM96.4505 229.647C95.4277 229.647 94.5352 229.412 93.7729 228.944C93.0106 228.475 92.4187 227.819 91.9973 226.976C91.5759 226.133 91.3652 225.149 91.3652 224.022C91.3652 222.89 91.5759 221.9 91.9973 221.053C92.4187 220.205 93.0106 219.547 93.7729 219.079C94.5352 218.61 95.4277 218.375 96.4505 218.375C97.4732 218.375 98.3657 218.61 99.128 219.079C99.8903 219.547 100.482 220.205 100.904 221.053C101.325 221.9 101.536 222.89 101.536 224.022C101.536 225.149 101.325 226.133 100.904 226.976C100.482 227.819 99.8903 228.475 99.128 228.944C98.3657 229.412 97.4732 229.647 96.4505 229.647ZM96.4576 227.864C97.1204 227.864 97.6697 227.689 98.1053 227.338C98.5409 226.988 98.8629 226.522 99.0712 225.939C99.2843 225.357 99.3908 224.715 99.3908 224.015C99.3908 223.319 99.2843 222.679 99.0712 222.097C98.8629 221.51 98.5409 221.039 98.1053 220.684C97.6697 220.329 97.1204 220.151 96.4576 220.151C95.79 220.151 95.236 220.329 94.7956 220.684C94.36 221.039 94.0357 221.51 93.8226 222.097C93.6143 222.679 93.5101 223.319 93.5101 224.015C93.5101 224.715 93.6143 225.357 93.8226 225.939C94.0357 226.522 94.36 226.988 94.7956 227.338C95.236 227.689 95.79 227.864 96.4576 227.864ZM104.077 229.427V214.881H106.2V220.286H106.328C106.451 220.059 106.629 219.796 106.861 219.498C107.093 219.199 107.415 218.939 107.827 218.716C108.238 218.489 108.783 218.375 109.46 218.375C110.341 218.375 111.127 218.598 111.818 219.043C112.509 219.488 113.051 220.13 113.444 220.968C113.842 221.806 114.041 222.814 114.041 223.993C114.041 225.172 113.845 226.183 113.452 227.026C113.059 227.864 112.519 228.51 111.832 228.965C111.146 229.415 110.362 229.64 109.481 229.64C108.818 229.64 108.276 229.528 107.855 229.306C107.438 229.083 107.112 228.823 106.875 228.525C106.638 228.226 106.456 227.961 106.328 227.729H106.15V229.427H104.077ZM106.157 223.972C106.157 224.739 106.269 225.411 106.491 225.989C106.714 226.567 107.036 227.019 107.457 227.346C107.879 227.668 108.395 227.829 109.006 227.829C109.64 227.829 110.17 227.66 110.596 227.324C111.023 226.983 111.345 226.522 111.562 225.939C111.785 225.357 111.896 224.701 111.896 223.972C111.896 223.252 111.787 222.606 111.569 222.033C111.356 221.46 111.034 221.008 110.604 220.677C110.177 220.345 109.645 220.179 109.006 220.179C108.39 220.179 107.869 220.338 107.443 220.655C107.022 220.972 106.702 221.415 106.484 221.983C106.266 222.552 106.157 223.214 106.157 223.972ZM118.549 214.881V229.427H116.426V214.881H118.549ZM126.108 229.647C125.033 229.647 124.107 229.417 123.331 228.958C122.559 228.494 121.962 227.843 121.541 227.005C121.124 226.162 120.916 225.175 120.916 224.043C120.916 222.926 121.124 221.941 121.541 221.088C121.962 220.236 122.55 219.571 123.302 219.093C124.06 218.614 124.945 218.375 125.959 218.375C126.574 218.375 127.171 218.477 127.748 218.681C128.326 218.884 128.845 219.204 129.304 219.64C129.763 220.075 130.125 220.641 130.39 221.337C130.656 222.028 130.788 222.869 130.788 223.858V224.611H122.116V223.02H128.707C128.707 222.462 128.594 221.967 128.366 221.536C128.139 221.1 127.819 220.757 127.407 220.506C127 220.255 126.522 220.13 125.973 220.13C125.376 220.13 124.855 220.276 124.41 220.57C123.97 220.859 123.629 221.238 123.388 221.706C123.151 222.17 123.032 222.675 123.032 223.219V224.462C123.032 225.191 123.16 225.811 123.416 226.323C123.676 226.834 124.039 227.225 124.503 227.495C124.967 227.76 125.509 227.892 126.129 227.892C126.532 227.892 126.898 227.836 127.23 227.722C127.561 227.604 127.848 227.428 128.089 227.196C128.331 226.964 128.515 226.678 128.643 226.337L130.653 226.699C130.492 227.291 130.203 227.81 129.787 228.255C129.375 228.695 128.856 229.038 128.231 229.284C127.611 229.526 126.903 229.647 126.108 229.647ZM133.144 229.427V218.517H135.183V220.293H135.318C135.545 219.692 135.917 219.223 136.433 218.887C136.949 218.546 137.567 218.375 138.286 218.375C139.016 218.375 139.626 218.546 140.119 218.887C140.616 219.228 140.983 219.696 141.22 220.293H141.333C141.594 219.711 142.008 219.247 142.576 218.901C143.144 218.551 143.821 218.375 144.607 218.375C145.597 218.375 146.404 218.686 147.029 219.306C147.659 219.926 147.974 220.861 147.974 222.111V229.427H145.85V222.31C145.85 221.571 145.649 221.036 145.247 220.705C144.844 220.373 144.364 220.208 143.805 220.208C143.114 220.208 142.576 220.421 142.193 220.847C141.809 221.268 141.617 221.811 141.617 222.473V229.427H139.501V222.175C139.501 221.583 139.316 221.107 138.947 220.748C138.578 220.388 138.097 220.208 137.505 220.208C137.103 220.208 136.731 220.314 136.39 220.527C136.054 220.736 135.782 221.027 135.573 221.401C135.37 221.775 135.268 222.208 135.268 222.701V229.427H133.144ZM158.995 221.181L157.07 221.522C156.99 221.275 156.862 221.041 156.687 220.819C156.516 220.596 156.284 220.414 155.991 220.272C155.697 220.13 155.33 220.059 154.89 220.059C154.288 220.059 153.787 220.194 153.384 220.463C152.982 220.729 152.78 221.072 152.78 221.493C152.78 221.858 152.915 222.151 153.185 222.374C153.455 222.596 153.891 222.779 154.492 222.921L156.225 223.319C157.229 223.551 157.977 223.908 158.469 224.391C158.962 224.874 159.208 225.501 159.208 226.273C159.208 226.927 159.019 227.509 158.64 228.02C158.266 228.527 157.742 228.925 157.07 229.213C156.403 229.502 155.628 229.647 154.748 229.647C153.526 229.647 152.529 229.386 151.758 228.865C150.986 228.34 150.512 227.594 150.337 226.628L152.39 226.316C152.518 226.851 152.78 227.256 153.178 227.53C153.576 227.8 154.094 227.935 154.733 227.935C155.43 227.935 155.986 227.791 156.403 227.502C156.819 227.208 157.028 226.851 157.028 226.429C157.028 226.088 156.9 225.802 156.644 225.57C156.393 225.338 156.007 225.163 155.486 225.044L153.64 224.64C152.622 224.408 151.869 224.038 151.381 223.532C150.898 223.025 150.657 222.383 150.657 221.607C150.657 220.963 150.837 220.4 151.197 219.917C151.556 219.434 152.054 219.057 152.688 218.787C153.323 218.513 154.049 218.375 154.868 218.375C156.047 218.375 156.975 218.631 157.653 219.142C158.33 219.649 158.777 220.329 158.995 221.181ZM174.939 218.702C174.864 218.03 174.551 217.509 174.002 217.14C173.453 216.766 172.761 216.579 171.928 216.579C171.331 216.579 170.815 216.673 170.38 216.863C169.944 217.047 169.606 217.303 169.364 217.63C169.127 217.952 169.009 218.319 169.009 218.73C169.009 219.076 169.09 219.374 169.251 219.625C169.416 219.876 169.632 220.087 169.897 220.257C170.167 220.423 170.456 220.563 170.763 220.677C171.071 220.785 171.367 220.875 171.651 220.946L173.072 221.316C173.536 221.429 174.011 221.583 174.499 221.777C174.987 221.971 175.439 222.227 175.856 222.544C176.272 222.862 176.608 223.255 176.864 223.723C177.125 224.192 177.255 224.753 177.255 225.407C177.255 226.23 177.042 226.962 176.616 227.601C176.194 228.24 175.581 228.745 174.776 229.114C173.976 229.483 173.008 229.668 171.871 229.668C170.782 229.668 169.84 229.495 169.045 229.15C168.249 228.804 167.626 228.314 167.177 227.679C166.727 227.04 166.478 226.283 166.431 225.407H168.633C168.675 225.932 168.846 226.37 169.144 226.721C169.447 227.066 169.833 227.324 170.302 227.495C170.775 227.66 171.294 227.743 171.857 227.743C172.477 227.743 173.029 227.646 173.512 227.452C174 227.253 174.383 226.979 174.662 226.628C174.942 226.273 175.081 225.859 175.081 225.385C175.081 224.954 174.958 224.602 174.712 224.327C174.471 224.052 174.142 223.825 173.725 223.645C173.313 223.465 172.847 223.307 172.326 223.169L170.607 222.701C169.442 222.383 168.519 221.917 167.837 221.302C167.16 220.686 166.822 219.872 166.822 218.858C166.822 218.02 167.049 217.289 167.503 216.664C167.958 216.039 168.573 215.553 169.35 215.208C170.126 214.857 171.002 214.682 171.978 214.682C172.963 214.682 173.831 214.855 174.584 215.201C175.342 215.546 175.939 216.022 176.374 216.628C176.81 217.23 177.037 217.921 177.056 218.702H174.939ZM184.409 229.647C183.334 229.647 182.408 229.417 181.632 228.958C180.86 228.494 180.263 227.843 179.842 227.005C179.425 226.162 179.217 225.175 179.217 224.043C179.217 222.926 179.425 221.941 179.842 221.088C180.263 220.236 180.85 219.571 181.603 219.093C182.361 218.614 183.246 218.375 184.259 218.375C184.875 218.375 185.472 218.477 186.049 218.681C186.627 218.884 187.145 219.204 187.605 219.64C188.064 220.075 188.426 220.641 188.691 221.337C188.956 222.028 189.089 222.869 189.089 223.858V224.611H180.417V223.02H187.008C187.008 222.462 186.894 221.967 186.667 221.536C186.44 221.1 186.12 220.757 185.708 220.506C185.301 220.255 184.823 220.13 184.274 220.13C183.677 220.13 183.156 220.276 182.711 220.57C182.271 220.859 181.93 221.238 181.688 221.706C181.452 222.17 181.333 222.675 181.333 223.219V224.462C181.333 225.191 181.461 225.811 181.717 226.323C181.977 226.834 182.339 227.225 182.803 227.495C183.267 227.76 183.81 227.892 184.43 227.892C184.832 227.892 185.199 227.836 185.531 227.722C185.862 227.604 186.149 227.428 186.39 227.196C186.632 226.964 186.816 226.678 186.944 226.337L188.954 226.699C188.793 227.291 188.504 227.81 188.088 228.255C187.676 228.695 187.157 229.038 186.532 229.284C185.912 229.526 185.204 229.647 184.409 229.647ZM196.04 229.647C194.984 229.647 194.075 229.408 193.313 228.929C192.555 228.446 191.973 227.781 191.566 226.934C191.159 226.086 190.955 225.115 190.955 224.022C190.955 222.914 191.163 221.936 191.58 221.088C191.997 220.236 192.584 219.571 193.341 219.093C194.099 218.614 194.992 218.375 196.019 218.375C196.848 218.375 197.586 218.529 198.235 218.837C198.884 219.14 199.407 219.566 199.805 220.115C200.207 220.665 200.446 221.306 200.522 222.04H198.455C198.341 221.529 198.081 221.088 197.674 220.719C197.271 220.35 196.732 220.165 196.055 220.165C195.463 220.165 194.944 220.321 194.499 220.634C194.059 220.942 193.715 221.382 193.469 221.955C193.223 222.523 193.1 223.195 193.1 223.972C193.1 224.767 193.221 225.454 193.462 226.032C193.704 226.609 194.045 227.057 194.485 227.374C194.93 227.691 195.453 227.85 196.055 227.85C196.457 227.85 196.822 227.776 197.148 227.63C197.48 227.478 197.757 227.263 197.979 226.983C198.206 226.704 198.365 226.368 198.455 225.975H200.522C200.446 226.68 200.216 227.31 199.833 227.864C199.449 228.418 198.936 228.854 198.292 229.171C197.653 229.488 196.902 229.647 196.04 229.647ZM209.703 224.902V218.517H211.834V229.427H209.746V227.537H209.632C209.381 228.12 208.979 228.605 208.425 228.993C207.876 229.377 207.191 229.569 206.372 229.569C205.672 229.569 205.051 229.415 204.512 229.107C203.977 228.794 203.555 228.333 203.247 227.722C202.944 227.111 202.793 226.356 202.793 225.456V218.517H204.916V225.201C204.916 225.944 205.122 226.536 205.534 226.976C205.946 227.417 206.481 227.637 207.139 227.637C207.537 227.637 207.932 227.537 208.325 227.338C208.723 227.14 209.052 226.839 209.313 226.436C209.578 226.034 209.708 225.523 209.703 224.902ZM214.687 229.427V218.517H216.74V220.25H216.854C217.052 219.663 217.403 219.202 217.905 218.865C218.411 218.525 218.984 218.354 219.623 218.354C219.756 218.354 219.912 218.359 220.092 218.368C220.277 218.378 220.421 218.39 220.525 218.404V220.435C220.44 220.411 220.289 220.385 220.071 220.357C219.853 220.324 219.635 220.307 219.417 220.307C218.916 220.307 218.468 220.414 218.075 220.627C217.687 220.835 217.379 221.126 217.152 221.5C216.925 221.87 216.811 222.291 216.811 222.765V229.427H214.687ZM226.674 229.647C225.599 229.647 224.674 229.417 223.897 228.958C223.125 228.494 222.529 227.843 222.107 227.005C221.691 226.162 221.482 225.175 221.482 224.043C221.482 222.926 221.691 221.941 222.107 221.088C222.529 220.236 223.116 219.571 223.869 219.093C224.626 218.614 225.512 218.375 226.525 218.375C227.141 218.375 227.737 218.477 228.315 218.681C228.892 218.884 229.411 219.204 229.87 219.64C230.329 220.075 230.692 220.641 230.957 221.337C231.222 222.028 231.355 222.869 231.355 223.858V224.611H222.683V223.02H229.274C229.274 222.462 229.16 221.967 228.933 221.536C228.705 221.1 228.386 220.757 227.974 220.506C227.567 220.255 227.088 220.13 226.539 220.13C225.943 220.13 225.422 220.276 224.977 220.57C224.536 220.859 224.195 221.238 223.954 221.706C223.717 222.17 223.599 222.675 223.599 223.219V224.462C223.599 225.191 223.727 225.811 223.982 226.323C224.243 226.834 224.605 227.225 225.069 227.495C225.533 227.76 226.075 227.892 226.695 227.892C227.098 227.892 227.465 227.836 227.796 227.722C228.128 227.604 228.414 227.428 228.656 227.196C228.897 226.964 229.082 226.678 229.21 226.337L231.22 226.699C231.059 227.291 230.77 227.81 230.353 228.255C229.941 228.695 229.423 229.038 228.798 229.284C228.177 229.526 227.47 229.647 226.674 229.647ZM235.834 214.881V229.427H233.711V214.881H235.834ZM240.034 233.517C239.716 233.517 239.427 233.491 239.167 233.439C238.907 233.392 238.713 233.34 238.585 233.283L239.096 231.543C239.484 231.647 239.83 231.692 240.133 231.678C240.436 231.664 240.704 231.55 240.936 231.337C241.172 231.124 241.381 230.776 241.561 230.293L241.823 229.569L237.832 218.517H240.105L242.867 226.983H242.981L245.744 218.517H248.024L243.528 230.882C243.32 231.451 243.054 231.931 242.732 232.324C242.41 232.722 242.027 233.02 241.582 233.219C241.137 233.418 240.621 233.517 240.034 233.517Z" fill="#19C6DF"/>
<rect x="4" y="8.42651" width="241" height="164" rx="18" fill="url(#paint0_linear_39_418)"/>
<path d="M123.137 171.353C130.447 171.353 136.374 165.426 136.374 158.116C136.374 150.805 130.447 144.879 123.137 144.879C115.827 144.879 109.9 150.805 109.9 158.116C109.9 165.426 115.827 171.353 123.137 171.353Z" fill="#19C6DF"/>
<path d="M202.212 170.604C209.607 168.388 217.492 166.058 223.362 160.763C228.599 156.044 232.167 148.821 229.98 141.742C227.822 134.664 221.319 129.944 214.614 127.614C210.816 126.29 206.816 125.542 202.845 124.966C198.529 124.333 194.184 123.815 189.838 123.326C172.257 121.312 154.589 120.074 136.892 119.643C128.144 119.413 119.396 119.441 110.649 119.557C102.85 119.672 94.6207 119.672 87.3693 116.334C81.7293 113.744 76.636 109.053 75.0534 102.896C73.2405 95.7593 76.5785 88.5079 81.384 83.3571C83.9162 80.6234 86.8513 78.3501 89.9015 76.2495C93.2107 73.9763 96.6349 71.8469 100.117 69.8614C106.994 65.9767 114.188 62.6388 121.641 59.9339C125.295 58.6102 129.036 57.4592 132.777 56.3945C135.942 55.5025 139.136 54.6104 142.186 53.3731C148.114 51.0135 153.754 47.0137 155.25 40.4529C156.689 34.2375 154.272 27.504 150.042 22.8712C145.15 17.519 137.813 15.1881 130.734 14.8141C122.821 14.3824 115.08 16.3679 107.627 18.9002C99.6851 21.5763 91.9158 24.6553 83.8011 26.8422C75.7728 29.0003 67.5718 30.5254 59.2845 31.3887C55.2272 31.8203 51.0547 32.3095 46.9686 31.9642C43.5443 31.6764 40.1488 30.6693 37.6454 28.2522C35.4872 26.1803 34.1923 23.3028 34.6528 20.3102C34.7391 19.7634 35.5736 19.9936 35.4872 20.5404C34.9405 24.2236 37.444 27.5903 40.5229 29.3169C44.0623 31.3311 48.4074 31.3311 52.3496 31.1009C60.9247 30.583 69.4422 29.3456 77.8158 27.4177C86.0456 25.5473 93.9876 22.8424 101.901 19.9936C109.44 17.26 117.123 14.6126 125.151 14.0084C132.115 13.4904 139.481 14.5263 145.553 18.152C150.905 21.3461 154.819 26.6983 156.085 32.8275C157.322 38.8127 155.624 44.8556 151.078 49.028C146.388 53.3443 139.942 55.2147 133.928 56.9125C126.302 59.0706 118.878 61.6029 111.656 64.8833C104.347 68.1924 97.3256 72.1347 90.7072 76.6524C84.3191 81.0262 77.9885 86.5223 75.9742 94.3493C75.0246 97.975 75.1973 101.831 76.7799 105.284C78.1899 108.334 80.4919 110.895 83.1968 112.881C89.6137 117.6 97.7284 118.578 105.469 118.664C114.188 118.78 122.907 118.492 131.626 118.636C149.38 118.923 167.106 120.017 184.803 121.887C189.234 122.348 193.666 122.866 198.097 123.441C202.068 123.959 206.068 124.448 209.981 125.369C216.945 126.981 223.707 130.088 228.023 135.987C229.951 138.548 231.131 141.57 231.448 144.735C231.764 148.044 230.93 151.382 229.433 154.317C226.124 160.849 219.909 164.993 213.29 167.727C209.751 169.194 206.097 170.288 202.413 171.381C201.895 171.611 201.694 170.777 202.212 170.604Z" fill="#F2F2F2"/>
<path d="M35.2284 27.3315C39.0425 27.3315 42.1345 24.2395 42.1345 20.4254C42.1345 16.6113 39.0425 13.5193 35.2284 13.5193C31.4142 13.5193 28.3223 16.6113 28.3223 20.4254C28.3223 24.2395 31.4142 27.3315 35.2284 27.3315Z" fill="#F2F2F2"/>
<path d="M83.1395 40.4242C86.9536 40.4242 90.0456 37.3323 90.0456 33.5182C90.0456 29.704 86.9536 26.6121 83.1395 26.6121C79.3254 26.6121 76.2334 29.704 76.2334 33.5182C76.2334 37.3323 79.3254 40.4242 83.1395 40.4242Z" fill="#F2F2F2"/>
<path d="M123.713 14.2387C127.527 14.2387 130.619 11.1467 130.619 7.33261C130.619 3.51848 127.527 0.426514 123.713 0.426514C119.899 0.426514 116.807 3.51848 116.807 7.33261C116.807 11.1467 119.899 14.2387 123.713 14.2387Z" fill="#F2F2F2"/>
<path d="M149.035 43.5895C152.849 43.5895 155.941 40.4976 155.941 36.6834C155.941 32.8693 152.849 29.7773 149.035 29.7773C145.221 29.7773 142.129 32.8693 142.129 36.6834C142.129 40.4976 145.221 43.5895 149.035 43.5895Z" fill="#F2F2F2"/>
<path d="M114.792 77.5444C118.606 77.5444 121.698 74.4524 121.698 70.6383C121.698 66.8241 118.606 63.7322 114.792 63.7322C110.978 63.7322 107.886 66.8241 107.886 70.6383C107.886 74.4524 110.978 77.5444 114.792 77.5444Z" fill="#F2F2F2"/>
<path d="M78.1588 88.1455C78.7698 84.3805 76.2131 80.8331 72.4482 80.2221C68.6832 79.6111 65.1358 82.1678 64.5248 85.9328C63.9138 89.6977 66.4705 93.2451 70.2355 93.8561C74.0004 94.4671 77.5478 91.9104 78.1588 88.1455Z" fill="#F2F2F2"/>
<path d="M117.382 119.557C121.196 119.557 124.288 116.465 124.288 112.65C124.288 108.836 121.196 105.744 117.382 105.744C113.568 105.744 110.476 108.836 110.476 112.65C110.476 116.465 113.568 119.557 117.382 119.557Z" fill="#F2F2F2"/>
<path d="M166.876 133.944C170.69 133.944 173.782 130.852 173.782 127.038C173.782 123.224 170.69 120.132 166.876 120.132C163.062 120.132 159.97 123.224 159.97 127.038C159.97 130.852 163.062 133.944 166.876 133.944Z" fill="#F2F2F2"/>
<path d="M224.714 130.779C228.528 130.779 231.62 127.687 231.62 123.873C231.62 120.059 228.528 116.967 224.714 116.967C220.9 116.967 217.808 120.059 217.808 123.873C217.808 127.687 220.9 130.779 224.714 130.779Z" fill="#F2F2F2"/>
<path d="M121.727 19.9936C101.038 20.1375 84.089 36.9423 83.8013 57.6318C83.8013 57.8333 83.8013 59.1569 83.8013 60.9122C83.8013 66.2644 88.1463 70.6095 93.4986 70.6095C98.8508 70.6095 103.225 66.2645 103.225 60.8835C103.225 59.6749 103.225 58.8692 103.225 58.8116C103.225 48.6539 111.454 40.3954 121.641 40.3954C131.827 40.3954 140.057 48.6251 140.057 58.8116C140.057 65.0847 136.863 70.9261 131.568 74.3216C131.568 74.3216 117.756 83.2132 113.526 95.4139C112.778 97.9174 112.404 100.507 112.404 103.126C112.404 104.19 112.462 113.571 112.577 121.197C112.663 126.664 117.123 131.038 122.59 131.038C128.115 131.038 132.604 126.549 132.604 121.024C132.604 120.995 132.604 120.995 132.604 120.966C132.576 114.003 132.547 105.888 132.547 105.284C132.547 97.8023 139.769 90.3207 145.726 85.4576C152.574 79.8464 157.495 72.221 159.452 63.5883C159.883 61.8043 160.142 59.9914 160.171 58.1786C160.171 37.0862 143.079 19.9648 121.986 19.9648C121.9 19.9936 121.814 19.9936 121.727 19.9936Z" fill="#19C6DF"/>
<path d="M179.825 78.9835C184.592 78.9835 188.457 75.1185 188.457 70.3509C188.457 65.5832 184.592 61.7183 179.825 61.7183C175.057 61.7183 171.192 65.5832 171.192 70.3509C171.192 75.1185 175.057 78.9835 179.825 78.9835Z" fill="#2F2E41"/>
<path d="M163.883 167.928H160.373L158.675 154.317H163.883V167.928Z" fill="#A0616A"/>
<path d="M157.84 166.921H164.631V171.209H153.553C153.553 168.849 155.481 166.921 157.84 166.921Z" fill="#2F2E41"/>
<path d="M191.22 167.928H187.709L186.011 154.317H191.22V167.928Z" fill="#A0616A"/>
<path d="M185.177 166.921H191.968V171.209H180.889C180.889 168.849 182.817 166.921 185.177 166.921Z" fill="#2F2E41"/>
<path d="M178.53 79.0408C182.439 79.0408 185.609 75.8715 185.609 71.962C185.609 68.0526 182.439 64.8833 178.53 64.8833C174.62 64.8833 171.451 68.0526 171.451 71.962C171.451 75.8715 174.62 79.0408 178.53 79.0408Z" fill="#A0616A"/>
<path d="M182.731 101.831L185.896 94.5798C187.479 91.098 186.673 86.9831 183.91 84.3358C183.623 84.048 183.335 83.8178 183.018 83.5588C181.465 82.3503 179.537 81.6597 177.551 81.6597C176.227 81.6597 174.904 81.9474 173.695 82.5229C173.58 82.5805 173.494 82.6093 173.379 82.6668C173.177 82.7531 172.976 82.8682 172.803 82.9833C170.3 84.4221 168.602 86.9831 168.285 89.8607L166.875 101.543C166.53 102.464 154.013 135.614 158.387 160.907C158.473 161.454 158.933 161.885 159.48 161.972L163.912 162.576C164.573 162.662 165.206 162.231 165.35 161.569L172.803 126.06C172.918 125.513 173.465 125.168 173.983 125.283C174.357 125.369 174.645 125.628 174.76 126.003L185.292 163.353C185.436 163.9 185.954 164.303 186.529 164.303C186.615 164.303 186.702 164.303 186.788 164.274L192.198 163.238C192.86 163.123 193.291 162.519 193.234 161.857C192.486 152.936 188.227 108.392 182.731 101.831Z" fill="#2F2E41"/>
<path d="M151.049 77.8324C150.877 79.4151 151.999 80.8538 153.581 81.0553C153.754 81.084 153.927 81.084 154.099 81.0553L158.042 90.5511L161.034 86.1197L156.833 77.7749C156.632 76.1922 155.164 75.0412 153.581 75.2426C152.258 75.444 151.222 76.5087 151.049 77.8324Z" fill="#A0616A"/>
<path d="M178.127 111.385C179.709 111.183 180.86 109.744 180.659 108.162C180.63 107.989 180.601 107.816 180.544 107.673L188.86 101.63L183.853 99.7593L176.717 105.802C175.22 106.378 174.443 108.047 175.019 109.543C175.537 110.78 176.803 111.557 178.127 111.385Z" fill="#A0616A"/>
<path d="M164.574 96.8819C164.257 96.8819 163.941 96.8531 163.624 96.7955C162.099 96.5078 160.804 95.4719 160.2 94.0331L154.675 87.2709C154.215 86.7241 154.301 85.8897 154.848 85.458C154.905 85.4292 154.934 85.4005 154.992 85.3717L158.934 82.9258C159.538 82.5517 160.344 82.7244 160.718 83.3574L164.631 89.7743L172.113 84.2495C173.494 83.5301 175.163 84.048 175.882 85.4292C176.458 86.5227 176.257 87.8752 175.365 88.7384L167.912 95.5294C166.991 96.3927 165.811 96.8819 164.574 96.8819Z" fill="#2F2E41"/>
<path d="M184.774 107.039H184.745C184.371 107.039 184.026 106.867 183.796 106.579L180.285 102.493C179.825 101.946 179.882 101.14 180.429 100.68C180.458 100.651 180.515 100.623 180.544 100.594L187.105 96.2199L181.177 89.0836C180.371 87.7599 180.803 86.0334 182.127 85.2564C183.191 84.6234 184.544 84.7673 185.465 85.6017L192.687 92.6517C194.615 94.4358 194.759 97.4284 193.004 99.3564C192.63 99.788 192.169 100.133 191.651 100.392L185.752 106.665C185.465 106.896 185.119 107.039 184.774 107.039Z" fill="#2F2E41"/>
<path d="M176.717 91.9897C176.659 91.9897 176.602 91.9897 176.544 91.9897C176.055 91.9322 175.623 91.5869 175.479 91.0977L172.861 83.0406C172.717 82.609 172.918 82.1485 173.321 81.9759L173.408 81.9471C173.494 81.9183 173.551 81.8608 173.638 81.832C174.875 81.2565 176.199 80.9688 177.551 80.9688C179.306 80.9688 181.033 81.4867 182.501 82.4651C182.903 82.7241 183.019 83.2996 182.76 83.7024L177.81 91.443C177.58 91.7595 177.177 91.9897 176.717 91.9897Z" fill="#C716D8"/>
<path d="M186.644 66.495C188.202 66.495 189.464 65.2324 189.464 63.675C189.464 62.1175 188.202 60.855 186.644 60.855C185.087 60.855 183.824 62.1175 183.824 63.675C183.824 65.2324 185.087 66.495 186.644 66.495Z" fill="#2F2E41"/>
<path d="M176.947 60.5671C172.803 60.5671 169.465 63.9051 169.465 68.0487V71.214H173.379L175.249 68.0487L175.796 71.214H187.623L184.457 68.0487C184.429 63.9051 181.091 60.5671 176.947 60.5671Z" fill="#2F2E41"/>
<path d="M188.083 61.7469C188.716 59.7326 190.73 58.4665 192.831 58.7543C194.644 59.042 196.054 60.5096 196.888 62.121C197.723 63.7324 198.126 65.5452 198.701 67.2718C199.277 68.9983 200.082 70.7536 201.521 71.8758C202.96 72.9981 205.176 73.3146 206.586 72.1348C206.154 75.3001 203.248 77.5158 200.082 77.113C198.27 76.8827 196.687 75.7893 195.795 74.2066C195.047 72.883 194.845 71.3291 194.644 69.804C194.442 68.2789 194.126 66.7538 193.234 65.5165C192.342 64.2791 190.673 63.4734 189.263 64.0489L188.083 61.7469Z" fill="#2F2E41"/>
<path d="M96.2321 66.0342C90.8798 66.0342 86.5348 61.6891 86.5348 56.3369C86.5348 54.5816 86.5348 53.2292 86.5348 53.0565C86.6211 47.0425 88.1174 41.1435 90.9662 35.8201C86.3333 42.1794 83.7723 49.8049 83.6572 57.6606C83.6572 57.862 83.6572 59.1857 83.6572 60.941C83.6572 66.2932 88.0023 70.6383 93.3545 70.6383C97.6996 70.6383 101.527 67.7607 102.707 63.5595C100.951 65.171 98.6204 66.0342 96.2321 66.0342Z" fill="#0B5359"/>
<path d="M122.389 40.4532C132.547 40.9424 140.402 49.575 139.913 59.7328C139.798 61.9485 139.309 64.1354 138.417 66.1784C145.007 58.4379 144.086 46.8126 136.345 40.223C128.605 33.6335 116.979 34.5543 110.39 42.2949C109.21 43.6761 108.232 45.23 107.512 46.8989C111.167 42.5538 116.692 40.1655 122.389 40.4532Z" fill="#0B5359"/>
<path d="M125.353 126.463C119.885 126.463 115.425 122.089 115.339 116.622C115.224 108.996 115.166 99.6153 115.166 98.5506C115.166 95.932 115.54 93.3423 116.288 90.8388C116.72 89.5727 117.267 88.3641 117.871 87.1843C115.972 89.6878 114.476 92.479 113.411 95.4429C112.663 97.9463 112.289 100.536 112.289 103.155C112.289 104.219 112.346 113.6 112.461 121.226C112.548 126.693 117.008 131.067 122.475 131.067C126.935 131.067 130.849 128.132 132.086 123.873C130.244 125.542 127.856 126.492 125.353 126.463Z" fill="#0B5359"/>
<path d="M35.4009 168.072H38.9403L40.6092 154.461H35.4009V168.072Z" fill="#FFB8B8"/>
<path d="M45.7314 171.352H34.6528V167.065H41.4438C43.8322 167.065 45.7314 168.964 45.7314 171.352Z" fill="#2F2E41"/>
<path d="M22.7397 168.072H26.2791L27.9481 154.461H22.7397V168.072Z" fill="#FFB8B8"/>
<path d="M33.0702 171.352H21.9917V167.065H28.7827C31.171 167.065 33.0702 168.964 33.0702 171.352Z" fill="#2F2E41"/>
<path d="M25.8476 163.871L22.3946 163.698C21.6464 163.669 21.0709 163.036 21.1285 162.288C21.1285 162.288 21.1285 162.288 21.1285 162.259L25.2434 116.679L44.2063 121.801L46.048 121.312L40.3217 161.684C40.2353 162.317 39.6886 162.777 39.0555 162.806L35.3435 162.979C34.5954 163.008 33.9623 162.461 33.9335 161.713C33.9335 161.684 33.9335 161.626 33.9335 161.598L34.5954 137.369C34.5954 137.11 34.3939 136.908 34.1637 136.908C33.9335 136.908 33.7609 137.052 33.7033 137.254L27.2001 162.806C27.085 163.439 26.5095 163.871 25.8764 163.871H25.8476Z" fill="#2F2E41"/>
<path d="M36.0338 79.3863C39.9433 79.3863 43.1126 76.217 43.1126 72.3075C43.1126 68.398 39.9433 65.2288 36.0338 65.2288C32.1243 65.2288 28.9551 68.398 28.9551 72.3075C28.9551 76.217 32.1243 79.3863 36.0338 79.3863Z" fill="#FFB8B8"/>
<path d="M24.265 93.0546L25.0419 109.831L25.3297 115.931C25.3584 116.478 25.7037 116.938 26.2217 117.14L44.4365 123.729C44.5804 123.787 44.753 123.816 44.8969 123.816C45.6451 123.816 46.2494 123.211 46.2494 122.492C46.2494 122.463 46.2494 122.463 46.2494 122.434L45.5012 92.2777C45.3861 87.1844 41.6741 82.8681 36.6672 82.0049C36.4945 81.9761 36.3219 81.9473 36.1204 81.9186C33.0702 81.5445 29.9913 82.5228 27.718 84.6234C25.3872 86.8104 24.1211 89.8893 24.265 93.0546Z" fill="#D01FEA"/>
<path d="M53.1552 120.391C51.6301 119.931 50.7668 118.29 51.256 116.765C51.3423 116.506 51.4574 116.247 51.6301 116.017L45.4434 107.787L50.7668 107.471L55.8313 115.327C57.0974 116.305 57.3276 118.147 56.3492 119.413C55.6011 120.362 54.3062 120.765 53.1552 120.391Z" fill="#FFB8B8"/>
<path d="M48.8101 114.521C48.4935 114.377 48.2058 114.118 48.0907 113.802L38.7674 91.6158C37.9905 89.8029 38.8538 87.6736 40.6954 86.9254C42.5082 86.1485 44.6376 87.0117 45.3858 88.8533L54.709 111.039C54.9968 111.73 54.6802 112.507 53.9896 112.794L49.846 114.521C49.5007 114.636 49.1266 114.665 48.8101 114.521Z" fill="#C716D8"/>
<path d="M33.7607 113.744L42.7098 96.6225C43.0551 95.9319 43.9184 95.6729 44.609 96.0183L57.5867 102.809C58.2773 103.155 58.5363 104.018 58.191 104.708L49.2418 121.83C48.8965 122.52 48.0333 122.779 47.3427 122.434L34.365 115.643C33.6744 115.269 33.4154 114.406 33.7607 113.744Z" fill="#3F3D56"/>
<path d="M39.7749 105.917C39.1994 104.421 37.5305 103.673 36.0341 104.219C35.7752 104.306 35.5162 104.45 35.286 104.622L26.7109 98.9248L26.6821 104.277L34.8256 108.852C35.8903 110.061 37.7319 110.176 38.9404 109.14C39.89 108.334 40.2066 107.039 39.7749 105.917Z" fill="#FFB8B8"/>
<path d="M28.9264 107.097L21.934 101.543C19.3442 100.68 17.963 97.889 18.8263 95.2992C19.0277 94.7237 19.3154 94.2057 19.6895 93.7453L26.0489 85.4004C27.056 84.1631 28.8976 83.9617 30.135 84.9976C31.1421 85.8033 31.4587 87.1845 30.9695 88.3643L25.9338 96.5941L33.3291 100.105C33.9909 100.421 34.2786 101.227 33.9621 101.889C33.9333 101.946 33.9046 101.975 33.8758 102.033L30.8832 106.752C30.6817 107.068 30.3364 107.299 29.9623 107.356H29.9336C29.617 107.442 29.243 107.356 28.9264 107.097Z" fill="#C716D8"/>
<path d="M30.7106 77.0266C30.5955 76.7101 30.7682 76.3648 31.0847 76.2497C31.1422 76.2209 31.171 76.2209 31.2286 76.2209C31.6027 76.2497 31.9767 76.4223 32.2357 76.7101C32.4947 76.9978 32.7824 77.2568 33.1278 77.4582C33.4731 77.6309 33.9335 77.6021 34.1349 77.2856C34.3075 76.969 34.1924 76.5662 34.0773 76.1921C33.7896 75.2713 33.6457 74.3217 33.6169 73.3721C33.5882 72.3074 33.732 71.1852 34.3363 70.3795C35.0845 69.3148 36.4657 68.9119 37.7318 68.9407C38.9979 68.9695 40.2928 69.3723 41.5589 69.6313C41.9906 69.7176 42.5085 69.7752 42.8251 69.4299C43.1416 69.0558 43.0265 68.4803 42.8826 67.9911C42.5373 66.725 42.1632 65.4013 41.3575 64.3654C40.4943 63.3007 39.2569 62.6101 37.8757 62.4087C36.5808 62.236 35.2284 62.4087 33.991 62.8403C31.9767 63.4734 30.1927 64.7107 28.8978 66.3797C27.5741 68.1638 26.9986 70.3795 27.2863 72.5952C27.5741 74.5231 28.61 76.2497 30.1351 77.4582L30.7106 77.0266Z" fill="#2F2E41"/>
<path d="M120.231 168.13C113.526 165.223 110.476 157.425 113.382 150.72C113.871 149.598 114.533 148.534 115.31 147.555C109.411 151.871 108.116 160.159 112.433 166.058C116.749 171.957 125.036 173.252 130.935 168.935C131.827 168.273 132.633 167.525 133.323 166.691C129.525 169.453 124.518 170 120.231 168.13Z" fill="#0B5359"/>
</g>
<defs>
<linearGradient id="paint0_linear_39_418" x1="124.5" y1="8.42651" x2="124.5" y2="172.427" gradientUnits="userSpaceOnUse">
<stop stop-color="#5D0570"/>
<stop offset="0.745192" stop-color="#360166"/>
</linearGradient>
<clipPath id="clip0_39_418">
<rect width="249" height="234" fill="white" transform="translate(0 0.426514)"/>
</clipPath>
</defs>
</svg>
