<svg width="214" height="172" viewBox="0 0 214 172" fill="none" xmlns="http://www.w3.org/2000/svg">
<path d="M105.137 171.353C112.447 171.353 118.374 165.426 118.374 158.116C118.374 150.805 112.447 144.879 105.137 144.879C97.8267 144.879 91.9004 150.805 91.9004 158.116C91.9004 165.426 97.8267 171.353 105.137 171.353Z" fill="#19C6DF"/>
<path d="M184.212 170.604C191.607 168.388 199.492 166.058 205.362 160.763C210.599 156.044 214.167 148.821 211.98 141.742C209.822 134.664 203.319 129.944 196.614 127.614C192.816 126.29 188.816 125.542 184.845 124.966C180.529 124.333 176.184 123.815 171.838 123.326C154.257 121.312 136.589 120.074 118.892 119.643C110.144 119.413 101.396 119.441 92.6486 119.557C84.8504 119.672 76.6207 119.672 69.3693 116.334C63.7293 113.744 58.636 109.053 57.0534 102.896C55.2405 95.7593 58.5785 88.5079 63.384 83.3571C65.9162 80.6234 68.8513 78.3501 71.9015 76.2495C75.2107 73.9763 78.6349 71.8469 82.1168 69.8614C88.9941 65.9767 96.1879 62.6388 103.641 59.9339C107.295 58.6102 111.036 57.4592 114.777 56.3945C117.942 55.5025 121.136 54.6104 124.186 53.3731C130.114 51.0135 135.754 47.0137 137.25 40.4529C138.689 34.2375 136.272 27.504 132.042 22.8712C127.15 17.519 119.813 15.1881 112.734 14.8141C104.821 14.3824 97.08 16.3679 89.6271 18.9002C81.6851 21.5763 73.9158 24.6553 65.8011 26.8422C57.7728 29.0003 49.5718 30.5254 41.2845 31.3887C37.2272 31.8203 33.0547 32.3095 28.9686 31.9642C25.5443 31.6764 22.1488 30.6693 19.6454 28.2522C17.4872 26.1803 16.1923 23.3028 16.6528 20.3102C16.7391 19.7634 17.5736 19.9936 17.4872 20.5404C16.9405 24.2236 19.444 27.5903 22.5229 29.3169C26.0623 31.3311 30.4074 31.3311 34.3496 31.1009C42.9247 30.583 51.4422 29.3456 59.8158 27.4177C68.0456 25.5473 75.9876 22.8424 83.9008 19.9936C91.44 17.26 99.123 14.6126 107.151 14.0084C114.115 13.4904 121.481 14.5263 127.553 18.152C132.905 21.3461 136.819 26.6983 138.085 32.8275C139.322 38.8127 137.624 44.8556 133.078 49.028C128.388 53.3443 121.942 55.2147 115.928 56.9125C108.302 59.0706 100.878 61.6029 93.6557 64.8833C86.3467 68.1924 79.3256 72.1347 72.7072 76.6524C66.3191 81.0262 59.9885 86.5223 57.9742 94.3493C57.0246 97.975 57.1973 101.831 58.7799 105.284C60.1899 108.334 62.4919 110.895 65.1968 112.881C71.6137 117.6 79.7284 118.578 87.469 118.664C96.1879 118.78 104.907 118.492 113.626 118.636C131.38 118.923 149.106 120.017 166.803 121.887C171.234 122.348 175.666 122.866 180.097 123.441C184.068 123.959 188.068 124.448 191.981 125.369C198.945 126.981 205.707 130.088 210.023 135.987C211.951 138.548 213.131 141.57 213.448 144.735C213.764 148.044 212.93 151.382 211.433 154.317C208.124 160.849 201.909 164.993 195.29 167.727C191.751 169.194 188.097 170.288 184.413 171.381C183.895 171.611 183.694 170.777 184.212 170.604Z" fill="#F2F2F2"/>
<path d="M17.2284 27.3315C21.0425 27.3315 24.1345 24.2395 24.1345 20.4254C24.1345 16.6113 21.0425 13.5193 17.2284 13.5193C13.4142 13.5193 10.3223 16.6113 10.3223 20.4254C10.3223 24.2395 13.4142 27.3315 17.2284 27.3315Z" fill="#F2F2F2"/>
<path d="M65.1395 40.4242C68.9536 40.4242 72.0456 37.3323 72.0456 33.5182C72.0456 29.704 68.9536 26.6121 65.1395 26.6121C61.3254 26.6121 58.2334 29.704 58.2334 33.5182C58.2334 37.3323 61.3254 40.4242 65.1395 40.4242Z" fill="#F2F2F2"/>
<path d="M105.713 14.2387C109.527 14.2387 112.619 11.1467 112.619 7.33261C112.619 3.51848 109.527 0.426514 105.713 0.426514C101.899 0.426514 98.8066 3.51848 98.8066 7.33261C98.8066 11.1467 101.899 14.2387 105.713 14.2387Z" fill="#F2F2F2"/>
<path d="M131.035 43.5895C134.849 43.5895 137.941 40.4976 137.941 36.6834C137.941 32.8693 134.849 29.7773 131.035 29.7773C127.221 29.7773 124.129 32.8693 124.129 36.6834C124.129 40.4976 127.221 43.5895 131.035 43.5895Z" fill="#F2F2F2"/>
<path d="M96.7923 77.5444C100.606 77.5444 103.698 74.4524 103.698 70.6383C103.698 66.8241 100.606 63.7322 96.7923 63.7322C92.9782 63.7322 89.8862 66.8241 89.8862 70.6383C89.8862 74.4524 92.9782 77.5444 96.7923 77.5444Z" fill="#F2F2F2"/>
<path d="M60.1588 88.1455C60.7698 84.3805 58.2131 80.8331 54.4482 80.2221C50.6832 79.6111 47.1358 82.1678 46.5248 85.9328C45.9138 89.6977 48.4705 93.2451 52.2355 93.8561C56.0004 94.4671 59.5478 91.9104 60.1588 88.1455Z" fill="#F2F2F2"/>
<path d="M99.3822 119.557C103.196 119.557 106.288 116.465 106.288 112.65C106.288 108.836 103.196 105.744 99.3822 105.744C95.568 105.744 92.4761 108.836 92.4761 112.65C92.4761 116.465 95.568 119.557 99.3822 119.557Z" fill="#F2F2F2"/>
<path d="M148.876 133.944C152.69 133.944 155.782 130.852 155.782 127.038C155.782 123.224 152.69 120.132 148.876 120.132C145.062 120.132 141.97 123.224 141.97 127.038C141.97 130.852 145.062 133.944 148.876 133.944Z" fill="#F2F2F2"/>
<path d="M206.714 130.779C210.528 130.779 213.62 127.687 213.62 123.873C213.62 120.059 210.528 116.967 206.714 116.967C202.9 116.967 199.808 120.059 199.808 123.873C199.808 127.687 202.9 130.779 206.714 130.779Z" fill="#F2F2F2"/>
<path d="M103.727 19.9936C83.0377 20.1375 66.089 36.9423 65.8013 57.6318C65.8013 57.8333 65.8013 59.1569 65.8013 60.9122C65.8013 66.2644 70.1463 70.6095 75.4986 70.6095C80.8508 70.6095 85.2247 66.2645 85.2247 60.8835C85.2247 59.6749 85.2247 58.8692 85.2247 58.8116C85.2247 48.6539 93.4544 40.3954 103.641 40.3954C113.827 40.3954 122.057 48.6251 122.057 58.8116C122.057 65.0847 118.863 70.9261 113.568 74.3216C113.568 74.3216 99.7562 83.2132 95.5262 95.4139C94.7781 97.9174 94.404 100.507 94.404 103.126C94.404 104.19 94.4616 113.571 94.5767 121.197C94.663 126.664 99.1232 131.038 104.59 131.038C110.115 131.038 114.604 126.549 114.604 121.024C114.604 120.995 114.604 120.995 114.604 120.966C114.576 114.003 114.547 105.888 114.547 105.284C114.547 97.8023 121.769 90.3207 127.726 85.4576C134.574 79.8464 139.495 72.221 141.452 63.5883C141.883 61.8043 142.142 59.9914 142.171 58.1786C142.171 37.0862 125.079 19.9648 103.986 19.9648C103.9 19.9936 103.814 19.9936 103.727 19.9936Z" fill="#19C6DF"/>
<path d="M161.825 78.9835C166.592 78.9835 170.457 75.1185 170.457 70.3509C170.457 65.5832 166.592 61.7183 161.825 61.7183C157.057 61.7183 153.192 65.5832 153.192 70.3509C153.192 75.1185 157.057 78.9835 161.825 78.9835Z" fill="#2F2E41"/>
<path d="M145.883 167.928H142.373L140.675 154.317H145.883V167.928Z" fill="#A0616A"/>
<path d="M139.84 166.921H146.631V171.209H135.553C135.553 168.849 137.481 166.921 139.84 166.921Z" fill="#2F2E41"/>
<path d="M173.22 167.928H169.709L168.011 154.317H173.22V167.928Z" fill="#A0616A"/>
<path d="M167.177 166.921H173.968V171.209H162.889C162.889 168.849 164.817 166.921 167.177 166.921Z" fill="#2F2E41"/>
<path d="M160.53 79.0408C164.439 79.0408 167.609 75.8715 167.609 71.962C167.609 68.0526 164.439 64.8833 160.53 64.8833C156.62 64.8833 153.451 68.0526 153.451 71.962C153.451 75.8715 156.62 79.0408 160.53 79.0408Z" fill="#A0616A"/>
<path d="M164.731 101.831L167.896 94.5798C169.479 91.098 168.673 86.9831 165.91 84.3358C165.623 84.048 165.335 83.8178 165.018 83.5588C163.465 82.3503 161.537 81.6597 159.551 81.6597C158.227 81.6597 156.904 81.9474 155.695 82.5229C155.58 82.5805 155.494 82.6093 155.379 82.6668C155.177 82.7531 154.976 82.8682 154.803 82.9833C152.3 84.4221 150.602 86.9831 150.285 89.8607L148.875 101.543C148.53 102.464 136.013 135.614 140.387 160.907C140.473 161.454 140.933 161.885 141.48 161.972L145.912 162.576C146.573 162.662 147.206 162.231 147.35 161.569L154.803 126.06C154.918 125.513 155.465 125.168 155.983 125.283C156.357 125.369 156.645 125.628 156.76 126.003L167.292 163.353C167.436 163.9 167.954 164.303 168.529 164.303C168.615 164.303 168.702 164.303 168.788 164.274L174.198 163.238C174.86 163.123 175.291 162.519 175.234 161.857C174.486 152.936 170.227 108.392 164.731 101.831Z" fill="#2F2E41"/>
<path d="M133.049 77.8324C132.877 79.4151 133.999 80.8538 135.581 81.0553C135.754 81.084 135.927 81.084 136.099 81.0553L140.042 90.5511L143.034 86.1197L138.833 77.7749C138.632 76.1922 137.164 75.0412 135.581 75.2426C134.258 75.444 133.222 76.5087 133.049 77.8324Z" fill="#A0616A"/>
<path d="M160.127 111.385C161.709 111.183 162.86 109.744 162.659 108.162C162.63 107.989 162.601 107.816 162.544 107.673L170.86 101.63L165.853 99.7593L158.717 105.802C157.22 106.378 156.443 108.047 157.019 109.543C157.537 110.78 158.803 111.557 160.127 111.385Z" fill="#A0616A"/>
<path d="M146.574 96.8819C146.257 96.8819 145.941 96.8531 145.624 96.7955C144.099 96.5078 142.804 95.4719 142.2 94.0331L136.675 87.2709C136.215 86.7241 136.301 85.8897 136.848 85.458C136.905 85.4292 136.934 85.4005 136.992 85.3717L140.934 82.9258C141.538 82.5517 142.344 82.7244 142.718 83.3574L146.631 89.7743L154.113 84.2495C155.494 83.5301 157.163 84.048 157.882 85.4292C158.458 86.5227 158.257 87.8752 157.365 88.7384L149.912 95.5294C148.991 96.3927 147.811 96.8819 146.574 96.8819Z" fill="#2F2E41"/>
<path d="M166.774 107.039H166.745C166.371 107.039 166.026 106.867 165.796 106.579L162.285 102.493C161.825 101.946 161.882 101.14 162.429 100.68C162.458 100.651 162.515 100.623 162.544 100.594L169.105 96.2199L163.177 89.0836C162.371 87.7599 162.803 86.0334 164.127 85.2564C165.191 84.6234 166.544 84.7673 167.465 85.6017L174.687 92.6517C176.615 94.4358 176.759 97.4284 175.004 99.3564C174.63 99.788 174.169 100.133 173.651 100.392L167.752 106.665C167.465 106.896 167.119 107.039 166.774 107.039Z" fill="#2F2E41"/>
<path d="M158.717 91.9897C158.659 91.9897 158.602 91.9897 158.544 91.9897C158.055 91.9322 157.623 91.5869 157.479 91.0977L154.861 83.0406C154.717 82.609 154.918 82.1485 155.321 81.9759L155.408 81.9471C155.494 81.9183 155.551 81.8608 155.638 81.832C156.875 81.2565 158.199 80.9688 159.551 80.9688C161.306 80.9688 163.033 81.4867 164.501 82.4651C164.903 82.7241 165.019 83.2996 164.76 83.7024L159.81 91.443C159.58 91.7595 159.177 91.9897 158.717 91.9897Z" fill="#C716D8"/>
<path d="M168.644 66.495C170.202 66.495 171.464 65.2324 171.464 63.675C171.464 62.1175 170.202 60.855 168.644 60.855C167.087 60.855 165.824 62.1175 165.824 63.675C165.824 65.2324 167.087 66.495 168.644 66.495Z" fill="#2F2E41"/>
<path d="M158.947 60.5671C154.803 60.5671 151.465 63.9051 151.465 68.0487V71.214H155.379L157.249 68.0487L157.796 71.214H169.623L166.457 68.0487C166.429 63.9051 163.091 60.5671 158.947 60.5671Z" fill="#2F2E41"/>
<path d="M170.083 61.7469C170.716 59.7326 172.73 58.4665 174.831 58.7543C176.644 59.042 178.054 60.5096 178.888 62.121C179.723 63.7324 180.126 65.5452 180.701 67.2718C181.277 68.9983 182.082 70.7536 183.521 71.8758C184.96 72.9981 187.176 73.3146 188.586 72.1348C188.154 75.3001 185.248 77.5158 182.082 77.113C180.27 76.8827 178.687 75.7893 177.795 74.2066C177.047 72.883 176.845 71.3291 176.644 69.804C176.442 68.2789 176.126 66.7538 175.234 65.5165C174.342 64.2791 172.673 63.4734 171.263 64.0489L170.083 61.7469Z" fill="#2F2E41"/>
<path d="M78.2321 66.0342C72.8798 66.0342 68.5348 61.6891 68.5348 56.3369C68.5348 54.5816 68.5348 53.2292 68.5348 53.0565C68.6211 47.0425 70.1174 41.1435 72.9662 35.8201C68.3333 42.1794 65.7723 49.8049 65.6572 57.6606C65.6572 57.862 65.6572 59.1857 65.6572 60.941C65.6572 66.2932 70.0023 70.6383 75.3545 70.6383C79.6996 70.6383 83.5267 67.7607 84.7065 63.5595C82.9512 65.171 80.6204 66.0342 78.2321 66.0342Z" fill="#0B5359"/>
<path d="M104.389 40.4532C114.547 40.9424 122.402 49.575 121.913 59.7328C121.798 61.9485 121.309 64.1354 120.417 66.1784C127.007 58.4379 126.086 46.8126 118.345 40.223C110.605 33.6335 98.9793 34.5543 92.3897 42.2949C91.21 43.6761 90.2316 45.23 89.5122 46.8989C93.1667 42.5538 98.6916 40.1655 104.389 40.4532Z" fill="#0B5359"/>
<path d="M107.353 126.463C101.885 126.463 97.4251 122.089 97.3388 116.622C97.2237 108.996 97.1661 99.6153 97.1661 98.5506C97.1661 95.932 97.5402 93.3423 98.2884 90.8388C98.72 89.5727 99.2667 88.3641 99.871 87.1843C97.9718 89.6878 96.4755 92.479 95.4108 95.4429C94.6627 97.9463 94.2886 100.536 94.2886 103.155C94.2886 104.219 94.3461 113.6 94.4612 121.226C94.5475 126.693 99.0077 131.067 104.475 131.067C108.935 131.067 112.849 128.132 114.086 123.873C112.244 125.542 109.856 126.492 107.353 126.463Z" fill="#0B5359"/>
<path d="M17.4009 168.072H20.9403L22.6092 154.461H17.4009V168.072Z" fill="#FFB8B8"/>
<path d="M27.7314 171.352H16.6528V167.065H23.4438C25.8322 167.065 27.7314 168.964 27.7314 171.352Z" fill="#2F2E41"/>
<path d="M4.73975 168.072H8.27912L9.94809 154.461H4.73975V168.072Z" fill="#FFB8B8"/>
<path d="M15.0702 171.352H3.9917V167.065H10.7827C13.171 167.065 15.0702 168.964 15.0702 171.352Z" fill="#2F2E41"/>
<path d="M7.84764 163.871L4.3946 163.698C3.64644 163.669 3.07093 163.036 3.12848 162.288C3.12848 162.288 3.12848 162.288 3.12848 162.259L7.24336 116.679L26.2063 121.801L28.048 121.312L22.3217 161.684C22.2353 162.317 21.6886 162.777 21.0555 162.806L17.3435 162.979C16.5954 163.008 15.9623 162.461 15.9335 161.713C15.9335 161.684 15.9335 161.626 15.9335 161.598L16.5954 137.369C16.5954 137.11 16.3939 136.908 16.1637 136.908C15.9335 136.908 15.7609 137.052 15.7033 137.254L9.20009 162.806C9.08499 163.439 8.50948 163.871 7.87642 163.871H7.84764Z" fill="#2F2E41"/>
<path d="M18.0338 79.3863C21.9433 79.3863 25.1126 76.217 25.1126 72.3075C25.1126 68.398 21.9433 65.2288 18.0338 65.2288C14.1243 65.2288 10.9551 68.398 10.9551 72.3075C10.9551 76.217 14.1243 79.3863 18.0338 79.3863Z" fill="#FFB8B8"/>
<path d="M6.26496 93.0546L7.0419 109.831L7.32965 115.931C7.35843 116.478 7.70373 116.938 8.22169 117.14L26.4365 123.729C26.5804 123.787 26.753 123.816 26.8969 123.816C27.6451 123.816 28.2494 123.211 28.2494 122.492C28.2494 122.463 28.2494 122.463 28.2494 122.434L27.5012 92.2777C27.3861 87.1844 23.6741 82.8681 18.6672 82.0049C18.4945 81.9761 18.3219 81.9473 18.1204 81.9186C15.0702 81.5445 11.9913 82.5228 9.71801 84.6234C7.3872 86.8104 6.12109 89.8893 6.26496 93.0546Z" fill="#D01FEA"/>
<path d="M35.1552 120.391C33.6301 119.931 32.7668 118.29 33.256 116.765C33.3423 116.506 33.4574 116.247 33.6301 116.017L27.4434 107.787L32.7668 107.471L37.8313 115.327C39.0974 116.305 39.3276 118.147 38.3492 119.413C37.6011 120.362 36.3062 120.765 35.1552 120.391Z" fill="#FFB8B8"/>
<path d="M30.8101 114.521C30.4935 114.377 30.2058 114.118 30.0907 113.802L20.7674 91.6158C19.9905 89.8029 20.8538 87.6736 22.6954 86.9254C24.5082 86.1485 26.6376 87.0117 27.3858 88.8533L36.709 111.039C36.9968 111.73 36.6802 112.507 35.9896 112.794L31.846 114.521C31.5007 114.636 31.1266 114.665 30.8101 114.521Z" fill="#C716D8"/>
<path d="M15.7607 113.744L24.7098 96.6225C25.0551 95.9319 25.9184 95.6729 26.609 96.0183L39.5867 102.809C40.2773 103.155 40.5363 104.018 40.191 104.708L31.2418 121.83C30.8965 122.52 30.0333 122.779 29.3427 122.434L16.365 115.643C15.6744 115.269 15.4154 114.406 15.7607 113.744Z" fill="#3F3D56"/>
<path d="M21.7749 105.917C21.1994 104.421 19.5305 103.673 18.0341 104.219C17.7752 104.306 17.5162 104.45 17.286 104.622L8.71091 98.9248L8.68213 104.277L16.8256 108.852C17.8903 110.061 19.7319 110.176 20.9404 109.14C21.89 108.334 22.2066 107.039 21.7749 105.917Z" fill="#FFB8B8"/>
<path d="M10.9264 107.097L3.934 101.543C1.34422 100.68 -0.0370014 97.889 0.82626 95.2992C1.02769 94.7237 1.31544 94.2057 1.68952 93.7453L8.04888 85.4004C9.05602 84.1631 10.8976 83.9617 12.135 84.9976C13.1421 85.8033 13.4587 87.1845 12.9695 88.3643L7.93378 96.5941L15.3291 100.105C15.9909 100.421 16.2786 101.227 15.9621 101.889C15.9333 101.946 15.9046 101.975 15.8758 102.033L12.8832 106.752C12.6817 107.068 12.3364 107.299 11.9623 107.356H11.9336C11.617 107.442 11.243 107.356 10.9264 107.097Z" fill="#C716D8"/>
<path d="M12.7106 77.0266C12.5955 76.7101 12.7682 76.3648 13.0847 76.2497C13.1422 76.2209 13.171 76.2209 13.2286 76.2209C13.6027 76.2497 13.9767 76.4223 14.2357 76.7101C14.4947 76.9978 14.7824 77.2568 15.1278 77.4582C15.4731 77.6309 15.9335 77.6021 16.1349 77.2856C16.3075 76.969 16.1924 76.5662 16.0773 76.1921C15.7896 75.2713 15.6457 74.3217 15.6169 73.3721C15.5882 72.3074 15.732 71.1852 16.3363 70.3795C17.0845 69.3148 18.4657 68.9119 19.7318 68.9407C20.9979 68.9695 22.2928 69.3723 23.5589 69.6313C23.9906 69.7176 24.5085 69.7752 24.8251 69.4299C25.1416 69.0558 25.0265 68.4803 24.8826 67.9911C24.5373 66.725 24.1632 65.4013 23.3575 64.3654C22.4943 63.3007 21.2569 62.6101 19.8757 62.4087C18.5808 62.236 17.2284 62.4087 15.991 62.8403C13.9767 63.4734 12.1927 64.7107 10.8978 66.3797C9.5741 68.1638 8.99859 70.3795 9.28635 72.5952C9.5741 74.5231 10.61 76.2497 12.1351 77.4582L12.7106 77.0266Z" fill="#2F2E41"/>
<path d="M102.231 168.13C95.526 165.223 92.4758 157.425 95.3821 150.72C95.8713 149.598 96.5331 148.534 97.31 147.555C91.4111 151.871 90.1162 160.159 94.4325 166.058C98.7488 171.957 107.036 173.252 112.935 168.935C113.827 168.273 114.633 167.525 115.323 166.691C111.525 169.453 106.518 170 102.231 168.13Z" fill="#0B5359"/>
</svg>
