<svg width="255" height="121" viewBox="0 0 255 121" fill="none" xmlns="http://www.w3.org/2000/svg">
<path d="M242.259 68.2949C248.783 68.2949 254.072 63.0058 254.072 56.4814C254.072 49.957 248.783 44.668 242.259 44.668C235.734 44.668 230.445 49.957 230.445 56.4814C230.445 63.0058 235.734 68.2949 242.259 68.2949Z" fill="#F2F2F2"/>
<path d="M242.259 59.5902C243.976 59.5902 245.368 58.1983 245.368 56.4814C245.368 54.7644 243.976 53.3726 242.259 53.3726C240.542 53.3726 239.15 54.7644 239.15 56.4814C239.15 58.1983 240.542 59.5902 242.259 59.5902Z" fill="#E6E6E6"/>
<path d="M241.691 56.5477C243.001 57.616 243.4 59.2998 243.156 60.9256C242.857 62.7089 241.932 64.3271 240.547 65.4896C238.989 66.8738 237.09 67.8091 235.257 68.7668C233.573 69.6262 231.955 70.6087 230.415 71.7061C224.52 75.9903 220.067 82.0905 217.519 88.8978C214.974 95.6936 214.292 103.407 216.225 110.45C217.182 113.935 219.117 117.695 222.722 119.006C225.595 120.051 229.519 119.378 230.982 116.416C232.554 113.235 230.361 109.659 227.536 108.079C223.875 106.032 219.501 107.528 216.207 109.6C212.582 111.882 209.667 115.156 205.881 117.201C204.177 118.15 202.281 118.703 200.334 118.819C198.546 118.889 196.761 118.614 195.077 118.007C191.584 116.734 188.577 114.4 186.478 111.332C184.073 107.837 182.997 103.552 182.801 99.3551C182.362 89.9646 186.071 81.1795 189.048 72.471C190.647 67.9361 191.846 63.2695 192.629 58.525C193.374 53.7564 193.639 48.9252 193.42 44.1037C193.223 39.8404 192.802 35.3823 190.921 31.4885C189.266 28.0647 186.242 25.2625 182.419 24.556C180.696 24.2178 178.91 24.4229 177.309 25.143C176.763 25.3918 177.237 26.1959 177.779 25.9483C181.163 24.405 185.161 25.9067 187.66 28.3987C190.578 31.3087 191.65 35.606 192.126 39.5713C193.195 48.9686 192.353 58.4852 189.649 67.5484C187.054 76.3626 182.972 84.8088 182.03 94.0435C181.601 98.2573 181.821 102.614 183.168 106.654C184.324 110.254 186.491 113.444 189.41 115.846C192.159 118.068 195.541 119.582 199.101 119.751C203.097 119.94 206.601 118.159 209.702 115.789C213.022 113.25 216.077 110.119 220.1 108.695C221.933 108.046 224.022 107.744 225.905 108.368C227.52 108.92 228.89 110.022 229.776 111.481C230.594 112.841 230.895 114.541 230.149 116.001C229.448 117.375 228.078 118.169 226.596 118.441C225.026 118.719 223.408 118.444 222.018 117.663C220.394 116.736 219.206 115.179 218.373 113.534C216.713 110.255 216.155 106.351 216.071 102.711C215.996 99.1548 216.452 95.6078 217.422 92.1862C219.353 85.2648 223.25 79.0521 228.642 74.3016C230 73.1184 231.453 72.0486 232.986 71.1029C234.659 70.0721 236.444 69.2484 238.149 68.2757C239.827 67.3186 241.48 66.175 242.636 64.6C243.62 63.2501 244.152 61.623 244.155 59.9521C244.172 59.1836 244.02 58.4207 243.708 57.7181C243.396 57.0155 242.932 56.3907 242.351 55.8883C241.889 55.5119 241.226 56.168 241.691 56.5477Z" fill="#CCCCCC"/>
<path d="M131.405 110.885C135.536 113.556 140.314 115.053 145.23 115.219C145.142 115.427 145.044 115.631 144.935 115.829C144.362 116.885 143.554 117.794 142.572 118.487C141.409 119.305 140.044 119.788 138.626 119.884C137.207 119.979 135.79 119.683 134.528 119.028C133.266 118.373 132.209 117.384 131.47 116.169C130.732 114.954 130.342 113.56 130.342 112.138V110.885H131.405Z" fill="#19C6DF"/>
<path d="M160.401 111.252V112.138C160.402 113.863 159.827 115.539 158.769 116.902C157.711 118.264 156.229 119.235 154.558 119.661C152.886 120.087 151.121 119.944 149.54 119.254C147.958 118.565 146.652 117.368 145.827 115.853C145.713 115.651 145.61 115.442 145.519 115.229C145.746 115.235 145.97 115.238 146.197 115.238C151.208 115.244 156.124 113.864 160.401 111.252Z" fill="#19C6DF"/>
<path d="M170.859 17.5591C170.626 17.5249 170.39 17.5031 170.153 17.4875C172.838 23.675 173.024 30.6613 170.672 36.9829C170.909 36.9549 171.142 36.9176 171.375 36.8741C173.652 36.4329 175.698 35.1982 177.15 33.3896C178.601 31.5811 179.364 29.3161 179.302 26.9979C179.24 24.6796 178.358 22.4586 176.811 20.7301C175.265 19.0017 173.156 17.878 170.859 17.5591Z" fill="#19C6DF"/>
<path d="M122.24 17.4875C122.004 17.5031 121.768 17.5248 121.535 17.559C119.237 17.878 117.128 19.0017 115.582 20.7301C114.036 22.4586 113.153 24.6796 113.091 26.9978C113.029 29.3161 113.792 31.5811 115.244 33.3896C116.695 35.1982 118.742 36.4329 121.018 36.8741C121.252 36.9176 121.485 36.9549 121.721 36.9829C119.369 30.6613 119.555 23.675 122.24 17.4875Z" fill="#19C6DF"/>
<path d="M170.859 17.5591C168.298 11.4409 163.554 6.49318 157.549 3.6771C151.544 0.861025 144.706 0.377678 138.365 2.32097C132.023 4.26426 126.63 8.49542 123.234 14.1925C119.838 19.8895 118.68 26.6456 119.987 33.1483C121.293 39.651 124.97 45.4359 130.303 49.3792C135.636 53.3224 142.245 55.1425 148.845 54.4859C155.445 53.8292 161.565 50.7426 166.016 45.8258C170.468 40.9089 172.933 34.5129 172.932 27.8803C172.931 24.3366 172.226 20.8284 170.859 17.5591ZM170.672 36.9829C168.398 43.0961 163.918 48.1366 158.114 51.1124C152.31 54.0882 145.603 54.7838 139.311 53.0622C133.02 51.3406 127.601 47.3266 124.121 41.8102C120.641 36.2937 119.352 29.6745 120.507 23.2552C121.663 16.8359 125.179 11.0816 130.364 7.12478C135.549 3.16798 142.028 1.2953 148.524 1.87534C155.021 2.45537 161.065 5.44609 165.467 10.2589C169.869 15.0717 172.311 21.3579 172.311 27.8803C172.31 30.9878 171.755 34.0702 170.672 36.9829Z" fill="#19C6DF"/>
<path d="M159.876 21.8181H132.518C131.075 21.8181 129.691 22.3913 128.671 23.4116C127.651 24.4319 127.078 25.8156 127.078 27.2585C127.078 28.7014 127.651 30.0852 128.671 31.1055C129.691 32.1258 131.075 32.6989 132.518 32.6989H159.876C161.318 32.6989 162.702 32.1258 163.723 31.1055C164.743 30.0852 165.316 28.7014 165.316 27.2585C165.316 25.8156 164.743 24.4319 163.723 23.4116C162.702 22.3913 161.318 21.8181 159.876 21.8181Z" fill="#19C6DF"/>
<path d="M146.197 59.9011C138.888 59.9045 131.871 62.7676 126.646 67.8783C121.421 72.9889 118.403 79.9412 118.239 87.2481C118.074 94.555 120.775 101.636 125.764 106.978C130.753 112.319 137.634 115.496 144.935 115.829C145.23 115.844 145.529 115.853 145.827 115.853C145.951 115.86 146.073 115.86 146.197 115.86C153.618 115.86 160.734 112.912 165.981 107.665C171.228 102.418 174.176 95.3009 174.176 87.8804C174.176 80.4598 171.228 73.3432 165.981 68.0961C160.734 62.8489 153.618 59.9011 146.197 59.9011ZM160.401 111.252C156.124 113.864 151.208 115.244 146.197 115.238C145.97 115.238 145.746 115.235 145.519 115.229C145.423 115.229 145.326 115.225 145.23 115.219C138.661 114.991 132.393 112.406 127.572 107.937C122.751 103.469 119.699 97.4144 118.975 90.881C118.25 84.3477 119.9 77.7717 123.624 72.3549C127.348 66.938 132.897 63.0422 139.256 61.3793C145.616 59.7164 152.362 60.3975 158.26 63.2983C164.159 66.199 168.817 71.1255 171.383 77.1775C173.949 83.2294 174.251 90.0026 172.235 96.2591C170.218 102.516 166.018 107.838 160.401 111.252Z" fill="#19C6DF"/>
<path d="M165.834 80.9892H153.606C152.754 80.9892 151.937 80.6507 151.334 80.0483C150.732 79.4458 150.394 78.6287 150.394 77.7767C150.394 76.9247 150.732 76.1076 151.334 75.5051C151.937 74.9027 152.754 74.5642 153.606 74.5642H165.834C166.686 74.5642 167.503 74.9027 168.106 75.5051C168.708 76.1076 169.047 76.9247 169.047 77.7767C169.047 78.6287 168.708 79.4458 168.106 80.0483C167.503 80.6507 166.686 80.9892 165.834 80.9892Z" fill="#19C6DF"/>
<path d="M154.421 79.407C155.322 79.407 156.052 78.6771 156.052 77.7766C156.052 76.8762 155.322 76.1462 154.421 76.1462C153.521 76.1462 152.791 76.8762 152.791 77.7766C152.791 78.6771 153.521 79.407 154.421 79.407Z" fill="#F2F2F2"/>
<path d="M159.72 79.407C160.621 79.407 161.351 78.6771 161.351 77.7766C161.351 76.8762 160.621 76.1462 159.72 76.1462C158.82 76.1462 158.09 76.8762 158.09 77.7766C158.09 78.6771 158.82 79.407 159.72 79.407Z" fill="#C716D8"/>
<path d="M165.019 79.407C165.92 79.407 166.649 78.6771 166.649 77.7766C166.649 76.8762 165.92 76.1462 165.019 76.1462C164.119 76.1462 163.389 76.8762 163.389 77.7766C163.389 78.6771 164.119 79.407 165.019 79.407Z" fill="#6C63FF"/>
<path d="M50.2311 20.9445C55.5536 20.9445 59.8684 16.6298 59.8684 11.3072C59.8684 5.98469 55.5536 1.66992 50.2311 1.66992C44.9085 1.66992 40.5938 5.98469 40.5938 11.3072C40.5938 16.6298 44.9085 20.9445 50.2311 20.9445Z" fill="#2F2E41"/>
<path d="M86.1742 46.5959C85.9895 46.8736 85.7643 47.1222 85.5062 47.3335C85.1344 47.64 84.702 47.8646 84.2373 47.9924C83.7727 48.1202 83.2863 48.1483 82.81 48.075C82.3337 48.0017 81.8783 47.8286 81.4736 47.567C81.0688 47.3054 80.724 46.9612 80.4615 46.557C80.4008 46.4629 80.345 46.3655 80.2945 46.2655L65.1081 44.8003C63.9095 44.6801 62.7817 44.1766 61.8919 43.3646C61.0022 42.5525 60.398 41.4752 60.1691 40.2926L59.3071 35.7484L65.2339 34.8264L66.2975 38.4664L81.104 42.1034C81.2187 42.0028 81.3403 41.9103 81.4679 41.8267C82.1284 41.3981 82.9166 41.2104 83.6993 41.2954C84.4821 41.3805 85.2116 41.733 85.7646 42.2934C86.3177 42.8538 86.6604 43.5879 86.735 44.3718C86.8097 45.1556 86.6115 45.9412 86.1742 46.5959Z" fill="#FFB8B8"/>
<path d="M66.6617 37.9169L60.0412 39.7054C59.683 39.8017 59.3013 39.752 58.9797 39.5672C58.6581 39.3824 58.4229 39.0776 58.3258 38.7197L56.0069 30.1357C55.7585 29.2162 55.8594 28.2373 56.29 27.3877C56.7206 26.5382 57.4504 25.8782 58.3389 25.5349C59.2273 25.1916 60.2114 25.1895 61.1013 25.5288C61.9913 25.8682 62.7241 26.525 63.1584 27.3726L67.542 35.9285C67.637 36.1139 67.6894 36.3183 67.6954 36.5267C67.7013 36.735 67.6606 36.9421 67.5762 37.1327C67.4918 37.3233 67.3659 37.4926 67.2077 37.6283C67.0495 37.764 66.8629 37.8626 66.6617 37.9169Z" fill="#2F2E41"/>
<path d="M62.8266 116.737H66.6377L68.4511 102.036L62.8257 102.037L62.8266 116.737Z" fill="#FFB8B8"/>
<path d="M73.9883 120.276L62.0098 120.276L62.0096 115.648L69.36 115.648C70.5875 115.648 71.7646 116.136 72.6326 117.003C73.5006 117.871 73.9882 119.048 73.9883 120.276Z" fill="#2F2E41"/>
<path d="M28.8564 113.023L32.4222 114.369L39.312 101.257L34.0494 99.2698L28.8564 113.023Z" fill="#FFB8B8"/>
<path d="M38.0488 120.277L26.8425 116.045L28.4773 111.716L35.3539 114.312C36.5022 114.746 37.4313 115.618 37.9367 116.736C38.442 117.855 38.4824 119.128 38.0488 120.277Z" fill="#2F2E41"/>
<path d="M62.7059 113.323C62.4105 113.322 62.1227 113.229 61.8839 113.055C61.6451 112.881 61.4675 112.636 61.3767 112.354L51.6559 82.3344C51.6271 82.2454 51.5722 82.1672 51.4983 82.1098C51.4245 82.0524 51.3351 82.0185 51.2417 82.0126C51.1484 82.0067 51.0554 82.029 50.9749 82.0766C50.8943 82.1241 50.83 82.1948 50.7901 82.2795L37.3183 110.943C37.1724 111.253 36.9179 111.499 36.6031 111.634C36.2883 111.768 35.9349 111.783 35.6099 111.675L30.3041 109.907C29.9671 109.794 29.6857 109.557 29.5167 109.244C29.3477 108.931 29.3038 108.566 29.3939 108.222L37.6461 76.9641C38.5096 73.653 39.1333 70.284 39.5125 66.8833C40.0912 61.2832 42.7167 56.0938 46.8855 52.3101C48.7058 50.6424 49.8891 48.3933 50.2324 45.9486L50.2547 45.7922L62.3398 47.7003L69.9948 110.165C70.0344 110.499 69.9527 110.837 69.7646 111.116C69.5765 111.395 69.2945 111.597 68.9698 111.686L63.0712 113.274C62.9522 113.306 62.8293 113.323 62.7059 113.323Z" fill="#2F2E41"/>
<path d="M54.0594 20.8988C58.2764 20.8988 61.6949 17.4802 61.6949 13.2632C61.6949 9.04624 58.2764 5.62769 54.0594 5.62769C49.8424 5.62769 46.4238 9.04624 46.4238 13.2632C46.4238 17.4802 49.8424 20.8988 54.0594 20.8988Z" fill="#FFB8B8"/>
<path d="M61.5891 49.0324C61.5652 49.0324 61.5413 49.0317 61.5171 49.0305L49.5371 48.4315C49.2027 48.4165 48.8849 48.2813 48.6421 48.0509C48.3993 47.8205 48.2478 47.5102 48.2152 47.1771L46.5786 31.2202C46.4588 30.0516 46.6265 28.8715 47.0673 27.7826C47.508 26.6938 48.2083 25.7292 49.1072 24.973C50.0061 24.2168 51.0763 23.6919 52.2245 23.444C53.3727 23.1961 54.5641 23.2327 55.6949 23.5508C56.6318 23.8073 57.5049 24.2565 58.2584 24.8694C66.6858 31.7903 63.9685 44.33 62.9349 48.0083C62.8539 48.303 62.6783 48.5628 62.4351 48.7479C62.1919 48.9329 61.8946 49.0329 61.5891 49.0324Z" fill="#C716D8"/>
<path d="M51.1668 59.7472C50.8332 59.7472 50.5015 59.6975 50.1827 59.5996C49.7215 59.4599 49.295 59.2242 48.9313 58.9082C48.5675 58.5921 48.2746 58.2027 48.0718 57.7656C47.869 57.3284 47.7609 56.8534 47.7545 56.3715C47.7481 55.8896 47.8436 55.4119 48.0347 54.9695C48.0795 54.8667 48.1296 54.7664 48.1849 54.6689L40.9926 41.2136C40.4288 40.1491 40.2232 38.9312 40.4065 37.7407C40.5897 36.5501 41.152 35.4504 42.0098 34.6047L45.3156 31.3699L49.3662 35.7935L46.9249 38.6953L52.0986 53.0374C52.2459 53.0772 52.3902 53.1272 52.5305 53.1871C53.2533 53.4996 53.846 54.0518 54.2089 54.7506C54.5717 55.4494 54.6823 56.252 54.522 57.0229C54.3618 57.7938 53.9404 58.4858 53.3292 58.9821C52.7179 59.4784 51.9542 59.7486 51.1668 59.7472Z" fill="#FFB8B8"/>
<path d="M47.5839 38.694L42.4276 34.1727C42.1491 33.9278 41.9789 33.5825 41.9547 33.2124C41.9304 32.8423 42.0539 32.4776 42.2981 32.1985L48.1604 25.513C48.7883 24.7969 49.6591 24.3386 50.605 24.2265C51.5508 24.1144 52.5046 24.3565 53.2825 24.906C54.0604 25.4556 54.6073 26.2737 54.8178 27.2026C55.0282 28.1315 54.8873 29.1054 54.4222 29.9365L49.7271 38.3254C49.6253 38.5073 49.4841 38.6642 49.314 38.7845C49.1438 38.9049 48.9488 38.9857 48.7434 39.021C48.538 39.0563 48.3273 39.0453 48.1267 38.9887C47.9261 38.9322 47.7406 38.8315 47.5839 38.694Z" fill="#2F2E41"/>
<path d="M49.146 20.6802C49.8427 20.9272 50.6968 21.145 51.245 20.6326C51.7802 20.1325 51.6827 19.2178 51.3674 18.544C51.0521 17.8702 50.5631 17.2705 50.4132 16.5371C50.1984 15.486 50.7539 14.394 51.5469 13.7087C52.3399 13.0234 53.3381 12.6634 54.3126 12.317L59.6576 10.417C60.9807 9.94664 62.4064 9.39416 63.1468 8.15648C64.2181 6.36562 63.2387 3.80568 61.4815 2.76067C59.7242 1.71567 57.5046 1.91035 55.6087 2.64515C54.5601 3.05155 53.5626 3.61157 52.4782 3.89766C50.338 4.46226 47.9045 3.95575 46.0238 5.16247C44.3867 6.21291 43.6273 8.35627 43.6825 10.3617C43.7376 12.3672 44.476 14.2771 45.2549 16.1112C45.7183 17.2024 46.2133 18.3061 46.9981 19.174C47.783 20.0419 48.9171 20.649 50.0501 20.4893L49.146 20.6802Z" fill="#2F2E41"/>
<path d="M42.1483 12.8617C45.5822 12.8617 48.3659 10.078 48.3659 6.64413C48.3659 3.21024 45.5822 0.426514 42.1483 0.426514C38.7144 0.426514 35.9307 3.21024 35.9307 6.64413C35.9307 10.078 38.7144 12.8617 42.1483 12.8617Z" fill="#2F2E41"/>
<path d="M92.5768 42.5353L92.4665 42.5202L92.882 39.4976C92.9458 39.0336 92.8226 38.5633 92.5397 38.1901C92.2567 37.8169 91.837 37.5714 91.373 37.5076L84.969 36.6273C84.505 36.5635 84.0347 36.6867 83.6615 36.9696C83.2883 37.2526 83.0429 37.6723 82.9791 38.1363L80.6996 54.7188C80.6358 55.1828 80.7589 55.6531 81.0419 56.0263C81.3249 56.3995 81.7446 56.645 82.2085 56.7087L88.6125 57.5891C89.0765 57.6528 89.5468 57.5297 89.92 57.2467C90.2932 56.9637 90.5387 56.5441 90.6025 56.0801L92.1707 44.6717L92.2811 44.6869L92.5768 42.5353Z" fill="#3F3D56"/>
<path d="M91.1717 38.3945L90.3745 38.2849C90.3988 38.3799 90.3994 38.4793 90.3762 38.5746C90.353 38.6698 90.3067 38.7578 90.2415 38.831C90.1763 38.9041 90.094 38.9601 90.0021 38.9939C89.9101 39.0278 89.8112 39.0386 89.7141 39.0252L86.2147 38.5442C86.1176 38.5308 86.0253 38.4938 85.9459 38.4364C85.8665 38.3789 85.8024 38.3028 85.7593 38.2148C85.7163 38.1268 85.6955 38.0295 85.6988 37.9316C85.7022 37.8336 85.7296 37.738 85.7786 37.6532L85.0339 37.5508C84.8703 37.5283 84.7038 37.5382 84.544 37.5801C84.3842 37.6219 84.2342 37.6948 84.1026 37.7946C83.971 37.8945 83.8603 38.0192 83.7769 38.1618C83.6935 38.3044 83.639 38.462 83.6165 38.6257L81.4453 54.4197C81.3999 54.7502 81.4876 55.0852 81.6892 55.3511C81.8908 55.6169 82.1897 55.7918 82.5202 55.8372L88.658 56.6809C88.9885 56.7264 89.3235 56.6386 89.5893 56.4371C89.8552 56.2355 90.03 55.9366 90.0755 55.6061L92.2466 39.812C92.292 39.4815 92.2043 39.1464 92.0027 38.8806C91.8012 38.6148 91.5022 38.4399 91.1717 38.3945Z" fill="white"/>
<path d="M86.8186 51.5073C88.7073 51.5073 90.2383 49.9763 90.2383 48.0877C90.2383 46.199 88.7073 44.668 86.8186 44.668C84.93 44.668 83.3989 46.199 83.3989 48.0877C83.3989 49.9763 84.93 51.5073 86.8186 51.5073Z" fill="#C716D8"/>
<path d="M86.4798 49.3923C86.4028 49.3924 86.3279 49.3676 86.2664 49.3214L86.2626 49.3185L85.4589 48.7032C85.4215 48.6748 85.39 48.6392 85.3664 48.5986C85.3427 48.558 85.3273 48.5131 85.3211 48.4665C85.3148 48.4199 85.3178 48.3726 85.3299 48.3271C85.342 48.2817 85.3629 48.2391 85.3915 48.2018C85.4201 48.1645 85.4558 48.1332 85.4965 48.1097C85.5372 48.0862 85.5822 48.071 85.6288 48.0649C85.6754 48.0588 85.7227 48.062 85.7681 48.0743C85.8135 48.0866 85.856 48.1077 85.8932 48.1364L86.4137 48.5356L87.6439 46.9313C87.6724 46.8941 87.708 46.8629 87.7486 46.8394C87.7892 46.8159 87.834 46.8007 87.8805 46.7946C87.927 46.7884 87.9742 46.7915 88.0195 46.8036C88.0648 46.8158 88.1073 46.8367 88.1445 46.8652C88.2195 46.9229 88.2688 47.0082 88.2812 47.102C88.2936 47.1958 88.2683 47.2908 88.2107 47.366L86.7638 49.253C86.7304 49.2964 86.6873 49.3316 86.6381 49.3558C86.5888 49.38 86.5346 49.3924 86.4798 49.3923Z" fill="white"/>
</svg>
