<svg width="199" height="185" viewBox="0 0 199 185" fill="none" xmlns="http://www.w3.org/2000/svg">
<path d="M193.087 180.755H189.799L188.249 168.111H193.087V180.755Z" fill="#9E616A"/>
<path d="M193.916 183.909H183.357V183.776C183.357 181.503 185.202 179.659 187.474 179.659H193.916V183.909Z" fill="#2F2E41"/>
<path d="M180.524 180.755H177.236L175.686 168.111H180.524V180.755Z" fill="#9E616A"/>
<path d="M181.352 183.909H170.793V183.776C170.793 181.503 172.638 179.659 174.91 179.659H181.352V183.909Z" fill="#2F2E41"/>
<path d="M38.9287 183.428V81.9031C38.9287 80.5933 39.9712 79.5508 41.2811 79.5508H51.8131C53.1229 79.5508 54.1655 80.5933 54.1655 81.9031V183.695L38.9287 183.428Z" fill="#454CCD"/>
<path d="M73.6792 183.749V103.021C73.6792 101.711 74.7217 100.668 76.0315 100.668H86.5636C87.8734 100.668 88.9159 101.711 88.9159 103.021V183.562L73.6792 183.749Z" fill="#454CCD"/>
<path d="M11.9304 87.8374C11.4759 87.8374 11.1284 87.4899 11.1284 87.0354C11.1284 86.8483 11.2086 86.6345 11.3423 86.5008L46.5204 47.2595L81.1373 66.6931L115.968 6.68164L151.44 35.872C151.788 36.1661 151.841 36.6472 151.547 36.9948C151.253 37.3423 150.772 37.3957 150.424 37.1017L116.422 9.14091L81.7253 68.885L46.868 49.2911L12.5452 87.5701C12.3848 87.7305 12.1709 87.8374 11.9304 87.8374Z" fill="#C716D8"/>
<path d="M11.7967 94.5202C15.9304 94.5202 19.2815 91.1692 19.2815 87.0355C19.2815 82.9018 15.9304 79.5508 11.7967 79.5508C7.66304 79.5508 4.31201 82.9018 4.31201 87.0355C4.31201 91.1692 7.66304 94.5202 11.7967 94.5202Z" fill="#19C6DF"/>
<path d="M46.5472 55.76C50.6809 55.76 54.0319 52.4089 54.0319 48.2752C54.0319 44.1416 50.6809 40.7905 46.5472 40.7905C42.4135 40.7905 39.0625 44.1416 39.0625 48.2752C39.0625 52.4089 42.4135 55.76 46.5472 55.76Z" fill="#CCCCCC"/>
<path d="M81.2977 75.2739C85.4314 75.2739 88.7824 71.9229 88.7824 67.7892C88.7824 63.6555 85.4314 60.3044 81.2977 60.3044C77.164 60.3044 73.813 63.6555 73.813 67.7892C73.813 71.9229 77.164 75.2739 81.2977 75.2739Z" fill="#E6E6E6"/>
<path d="M116.048 15.396C120.182 15.396 123.533 12.0449 123.533 7.91123C123.533 3.77754 120.182 0.426514 116.048 0.426514C111.914 0.426514 108.563 3.77754 108.563 7.91123C108.563 12.0449 111.914 15.396 116.048 15.396Z" fill="#19C6DF"/>
<path d="M182.876 71.1303C187.01 71.1303 190.361 67.7793 190.361 63.6456C190.361 59.5119 187.01 56.1609 182.876 56.1609C178.743 56.1609 175.392 59.5119 175.392 63.6456C175.392 67.7793 178.743 71.1303 182.876 71.1303Z" fill="#19C6DF"/>
<path d="M180.23 121.973C183.037 122.321 190.201 119.754 190.575 123.63C194.264 134.483 194.157 176.104 194.157 176.104L188.543 176.371C188.543 176.371 184.053 143.305 181.941 136.247C180.872 144.855 181.059 177.707 181.059 177.707L175.98 177.975C175.98 177.975 171.435 149.987 171.409 141.754C170.847 135.74 172.211 126.811 171.623 121.011C174.403 121.893 177.343 122.214 180.23 121.973Z" fill="#3F3D56"/>
<path d="M143.18 183.401V66.3723C143.18 64.8754 144.223 63.6458 145.533 63.6458H156.065C157.374 63.6458 158.417 64.8754 158.417 66.3723V183.695L143.18 183.401Z" fill="#454CCD"/>
<path d="M170.713 90.4836C169.591 88.1847 168.227 86.0195 166.623 84.0147C166.303 83.6137 165.982 83.2127 165.715 82.7851C165.126 81.796 164.966 80.6198 164.592 79.5238C163.576 76.4765 161.037 74.0172 160.422 70.8362C160.208 69.6868 158.31 73.0282 158.791 74.4449C159.673 77.0111 159.807 79.7644 160.93 82.2504C162.052 84.7364 163.389 87.1422 164.378 89.6817C164.939 91.1252 165.367 92.6221 166.196 93.9587C167.024 95.2952 168.281 96.4179 169.831 96.605C169.831 95.6427 169.965 94.6804 170.259 93.7448C170.606 92.7023 171.194 91.4727 170.713 90.4836Z" fill="#9E616A"/>
<path d="M187.527 92.1945C187.447 90.2966 187.741 88.4254 188.383 86.6344C188.623 85.9661 188.917 85.2711 188.891 84.5227C188.864 83.8544 188.543 83.2396 188.249 82.6248C187.233 80.513 186.538 78.2943 185.843 76.0756L184.507 71.9056C184.079 71.5848 186.619 71.4779 187.153 72.2263C188.917 74.6856 190.281 77.5191 191.671 80.2189C192.018 80.8605 192.339 81.5288 192.58 82.2238C192.927 83.3465 193.087 84.5227 193.061 85.6721C193.061 87.8641 192.767 90.056 192.473 92.2212C192.286 93.5845 192.045 95.0547 191.002 95.9636C189.96 94.6003 188.891 93.2637 187.527 92.1945Z" fill="#9E616A"/>
<path d="M180.47 90.0557C183.541 90.0557 186.03 87.5664 186.03 84.4956C186.03 81.4249 183.541 78.9355 180.47 78.9355C177.399 78.9355 174.91 81.4249 174.91 84.4956C174.91 87.5664 177.399 90.0557 180.47 90.0557Z" fill="#9E616A"/>
<path d="M175.953 78.9629C175.819 78.6154 175.899 78.2411 176.166 77.9738C176.3 77.8669 176.487 77.8134 176.648 77.7065C176.862 77.5194 177.022 77.3055 177.156 77.065C177.931 75.969 179.401 75.5947 180.604 76.1828C181.513 76.664 182.074 77.6263 182.876 78.2679C183.277 78.6154 183.758 78.856 184.186 79.1767C185.015 79.8985 185.603 80.8608 185.897 81.93C186.164 82.9993 186.324 84.0685 186.378 85.1645C186.431 85.4853 186.405 85.8328 186.351 86.1536C186.271 86.4209 186.137 86.6882 185.977 86.902C185.148 88.1584 184.025 89.3346 182.662 89.9761C181.299 90.6177 179.588 90.7246 178.225 90.0563C178.091 90.0028 177.957 89.8959 177.877 89.789C177.797 89.6019 177.77 89.388 177.824 89.2009C177.904 88.4257 177.744 87.6505 177.369 86.9555C177.102 86.4476 176.728 86.0199 176.541 85.4853C176.354 84.8972 176.273 84.2824 176.3 83.6676C176.247 82.0904 176.354 80.4865 175.953 78.9629Z" fill="#2D293D"/>
<path d="M4.17871 183.535V127.052C4.17871 126.33 5.22123 125.742 6.53105 125.742H17.0631C18.3729 125.742 19.4155 126.33 19.4155 127.052V183.695L4.17871 183.535Z" fill="#C716D8"/>
<path d="M198.758 184.427H0.242328C0.0969313 184.427 0 184.227 0 183.927C0 183.627 0.0969313 183.427 0.242328 183.427H198.758C198.903 183.427 199 183.627 199 183.927C199 184.227 198.879 184.427 198.758 184.427Z" fill="#E6E6E6"/>
<path d="M108.43 183.348V50.5472C108.43 48.8364 109.472 47.4731 110.782 47.4731H121.314C122.624 47.4731 123.666 48.8632 123.666 50.5472V183.695L108.43 183.348Z" fill="#C716D8"/>
<path d="M158.658 73.7769C159.986 73.7769 161.064 72.6998 161.064 71.3711C161.064 70.0424 159.986 68.9653 158.658 68.9653C157.329 68.9653 156.252 70.0424 156.252 71.3711C156.252 72.6998 157.329 73.7769 158.658 73.7769Z" fill="#A0616A"/>
<path d="M185.389 72.7076C186.717 72.7076 187.795 71.6305 187.795 70.3018C187.795 68.9731 186.717 67.896 185.389 67.896C184.06 67.896 182.983 68.9731 182.983 70.3018C182.983 71.6305 184.06 72.7076 185.389 72.7076Z" fill="#A0616A"/>
<path d="M191.243 100.08C191.484 99.8663 193.382 88.6659 193.382 88.4253C193.355 87.0353 189.158 85.4849 188.303 86.0195C187.501 86.5274 186.138 92.4617 185.229 93.5577L184.293 91.9004H176.808L176.354 92.7558C175.365 92.1677 174.483 91.6064 174.162 91.446C174.055 91.3658 173.948 91.3123 173.815 91.2856C173.039 91.0985 172.318 90.7777 171.676 90.2698C171.061 89.7886 168.201 84.8434 167.453 84.977C166.597 85.1107 163.683 87.6501 163.71 90.0559C164.084 90.0559 168.843 99.5722 168.923 99.9465C169.297 101.443 170.5 123.363 170.901 124.379C172.692 124.192 171.275 123.898 173.013 124.379C174.884 124.913 176.862 124.325 178.787 124.138C179.588 124.058 180.39 124.031 181.219 124.031C184.159 124.031 188.356 124.218 191.19 124.94C191.216 123.069 189.559 119.033 188.971 117.268C188.891 116.734 188.891 116.199 188.971 115.691C189.025 114.996 190.602 100.775 191.243 100.08Z" fill="#E6E6E6"/>
</svg>
