<svg width="219" height="145" viewBox="0 0 219 145" fill="none" xmlns="http://www.w3.org/2000/svg">
<path d="M47.7364 84.9008C37.5358 74.8674 33.2438 64.3881 35.6128 55.4139C38.6506 43.9034 52.2235 35.9325 72.7919 33.5635L72.8755 34.2324C52.5858 36.5735 39.2359 44.3493 36.2538 55.609C33.9405 64.3603 38.1768 74.5887 48.2102 84.4548L47.7364 84.9008Z" fill="#F0F0F0"/>
<path d="M146.147 120.547C133.41 120.547 119.586 118.652 105.846 115.029C88.8452 110.541 73.2657 103.741 60.8076 95.4077L61.1699 94.8503C73.6001 103.156 89.0961 109.9 106.013 114.387C121.314 118.429 136.699 120.324 150.55 119.822L150.578 120.491C149.101 120.519 147.624 120.547 146.147 120.547Z" fill="#F0F0F0"/>
<path d="M175.327 116.366L175.104 115.725C186.475 111.879 193.61 105.664 195.701 97.8045C198.348 87.799 192.579 76.1492 179.48 65.0568C166.297 53.9086 147.29 44.6556 125.941 38.998L126.108 38.3569C147.54 44.0425 166.632 53.3233 179.898 64.5272C193.22 75.7869 199.073 87.6597 196.342 97.9439C194.223 106.082 186.949 112.436 175.327 116.366Z" fill="#F0F0F0"/>
<path d="M70.813 120.826C45.8132 109.733 26.5269 95.352 16.5493 80.302L17.1067 79.9397C27.0007 94.8504 46.1756 109.176 71.0917 120.212L70.813 120.826Z" fill="#F0F0F0"/>
<path d="M158.744 140.028C156.152 140.028 153.532 139.972 150.885 139.861L150.913 139.192C170.812 140.056 188.398 137.659 201.72 132.308L201.971 132.921C190.321 137.603 175.494 140.028 158.744 140.028Z" fill="#F0F0F0"/>
<path d="M144.224 34.1487C140.099 32.8109 135.835 31.5568 131.598 30.4141C107.128 23.9482 83.0759 21.6349 62.0338 23.7531L61.978 23.0842C83.1038 20.9382 107.24 23.2514 131.766 29.7452C136.03 30.8879 140.294 32.1421 144.447 33.4798L144.224 34.1487Z" fill="#F0F0F0"/>
<path d="M32.1011 85.9039C21.9006 75.8706 17.6085 65.3913 19.9775 56.417C23.0154 44.9066 36.5883 36.9356 57.1566 34.5667L57.2402 35.2355C36.9506 37.5767 23.6007 45.3525 20.6185 56.6121C18.3053 65.3634 22.5416 75.5919 32.5749 85.458L32.1011 85.9039Z" fill="#F0F0F0"/>
<path d="M130.512 121.55C117.775 121.55 103.951 119.655 90.2109 116.032C73.21 111.545 57.6304 104.744 45.1724 96.4112L45.5347 95.8538C57.9649 104.159 73.4608 110.904 90.3782 115.391C105.679 119.432 121.063 121.327 134.915 120.826L134.943 121.495C133.494 121.522 132.017 121.55 130.512 121.55Z" fill="#F0F0F0"/>
<path d="M159.719 117.342L159.496 116.701C170.868 112.855 178.002 106.64 180.093 98.7803C182.74 88.7749 176.971 77.125 163.872 66.0326C150.689 54.8844 131.682 45.6315 110.333 39.9738L110.5 39.3328C131.933 45.0183 151.024 54.2992 164.29 65.5031C177.612 76.7627 183.465 88.6355 180.734 98.9197C178.588 107.086 171.313 113.44 159.719 117.342Z" fill="#F0F0F0"/>
<path d="M55.1777 121.829C30.178 110.736 10.8917 96.3273 0.914062 81.3052L1.47147 80.9429C11.3933 95.8535 30.5403 110.179 55.4564 121.216L55.1777 121.829Z" fill="#F0F0F0"/>
<path d="M143.109 141.032C140.517 141.032 137.897 140.976 135.25 140.864L135.277 140.196C155.177 141.059 172.763 138.663 186.085 133.312L186.336 133.925C174.686 138.607 159.887 141.032 143.109 141.032Z" fill="#F0F0F0"/>
<path d="M128.588 35.1519C124.464 33.8141 120.199 32.5599 115.963 31.4173C91.4928 24.9513 67.4407 22.6381 46.3985 24.7562L46.3428 24.0873C67.4685 21.9413 91.6043 24.2546 116.13 30.7484C120.394 31.8911 124.659 33.1452 128.811 34.483L128.588 35.1519Z" fill="#F0F0F0"/>
<path d="M12.2573 68.0947C17.0231 62.7158 24.6596 59.4549 31.5715 61.4058C25.1892 65.9209 20.6184 72.5261 18.6675 80.1069C17.915 83.0333 17.3855 86.3499 14.9607 88.1336C13.4557 89.2484 11.4491 89.4992 9.58175 89.2484C7.71443 88.9975 5.9586 88.2729 4.23063 87.5483L3.75684 87.5762C5.12249 80.5528 7.4636 73.4459 12.2573 68.0947Z" fill="#F2F2F2"/>
<path d="M31.5434 61.5733C25.7743 62.9668 20.5904 66.144 16.7164 70.659C15.8803 71.6066 15.1835 72.6936 14.654 73.8641C14.1802 75.0347 14.0408 76.2889 14.2359 77.5152C14.4031 78.6578 14.6818 79.8284 14.5425 80.999C14.4031 82.1974 13.7343 83.2843 12.7309 83.9811C11.5046 84.8729 10.0554 85.2631 8.6061 85.5976C7.01748 85.9599 5.34526 86.3501 4.03535 87.4092C3.86813 87.5485 3.67304 87.2977 3.84026 87.1583C6.09776 85.3189 9.27499 85.5418 11.7833 84.2041C12.9539 83.5909 13.9572 82.5876 14.1802 81.2498C14.4031 80.0792 14.0966 78.8808 13.9293 77.7103C13.7343 76.5118 13.8179 75.2855 14.208 74.115C14.654 72.9165 15.295 71.8017 16.1311 70.8263C17.9427 68.5966 20.1166 66.6736 22.5134 65.1128C25.2726 63.3291 28.2826 61.9913 31.4877 61.2388C31.7107 61.211 31.7385 61.5176 31.5434 61.5733Z" fill="white"/>
<path d="M17.8592 69.1259C16.4657 67.5652 16.4099 65.2519 17.7198 63.6354C17.8592 63.4682 18.11 63.6633 17.9707 63.8305C16.7444 65.3355 16.8001 67.5094 18.11 68.9308C18.2494 69.098 17.9985 69.2931 17.8592 69.1259Z" fill="white"/>
<path d="M14.0966 76.9576C16.159 77.097 18.1657 76.456 19.7821 75.1461C19.9494 75.0067 20.1445 75.2575 19.9772 75.3969C18.305 76.7347 16.1869 77.4036 14.0687 77.2642C13.8457 77.2642 13.9015 76.9298 14.0966 76.9576Z" fill="white"/>
<path d="M25.3564 63.7472C25.7466 64.444 26.4991 64.8899 27.3073 64.9457C27.5024 64.9457 27.4746 65.2801 27.2516 65.2522C26.3597 65.1965 25.5515 64.6948 25.1056 63.9423C25.0498 63.8587 25.0777 63.7751 25.1334 63.7193C25.1892 63.6636 25.3007 63.6915 25.3564 63.7472Z" fill="white"/>
<path d="M41.3819 83.6746C41.2425 83.6746 41.131 83.6746 40.9917 83.6746C39.2916 83.6468 37.5636 83.7304 35.8635 83.9812C35.7242 84.0091 35.6127 84.0091 35.4733 84.037C31.4042 84.6501 27.4745 86.0158 23.8792 88.0782C22.4578 88.8864 21.0922 89.834 19.8102 90.8373C18.0265 92.2587 16.2149 93.931 14.1525 94.6556C13.9295 94.7392 13.7065 94.7949 13.4836 94.8507L3.86829 88.1618C3.84042 88.1339 3.84042 88.106 3.81255 88.0782L3.42236 87.8552C3.4781 87.7995 3.56172 87.7437 3.61746 87.688C3.64533 87.6601 3.70107 87.6322 3.72894 87.5765C3.75681 87.5486 3.78468 87.5208 3.81255 87.5208L3.84042 87.4929C3.86829 87.465 3.89616 87.465 3.89616 87.4372C4.25848 87.1027 4.64866 86.7961 5.01098 86.4617C7.88163 84.0091 10.9474 81.7795 14.2918 80.0794C14.4033 80.0236 14.4869 79.9679 14.5984 79.94C16.1034 79.1875 17.6641 78.5465 19.2806 78.0448C20.1725 77.7661 21.0643 77.5432 21.9562 77.3759C24.2973 76.9021 26.6941 76.8185 29.0631 77.0972C33.7732 77.6546 38.2604 79.717 41.1868 83.3959C41.2146 83.4796 41.2982 83.5632 41.3819 83.6746Z" fill="#F2F2F2"/>
<path d="M41.2702 83.7581C35.8076 81.3891 29.7598 80.8038 23.9627 82.0859C22.7085 82.3367 21.5101 82.7826 20.3953 83.4236C19.3362 84.0647 18.4444 84.9844 17.8591 86.0992C17.3017 87.1025 16.8279 88.2174 16.0196 89.0813C15.1835 89.9453 13.9851 90.4191 12.7588 90.3912C11.2538 90.3634 9.86029 89.806 8.49464 89.2207C6.98964 88.5518 5.4289 87.855 3.75667 87.9108C3.56158 87.9108 3.56158 87.6042 3.75667 87.6042C6.68306 87.4927 9.05205 89.583 11.867 90.0289C13.1769 90.224 14.5704 90.0568 15.5737 89.1092C16.4656 88.301 16.9394 87.1583 17.4968 86.1271C18.0542 85.0401 18.8624 84.1204 19.8658 83.4236C20.9527 82.7269 22.1233 82.2531 23.3774 81.9465C26.1645 81.2498 29.063 81.0268 31.9336 81.2219C35.2224 81.4449 38.4274 82.2252 41.4375 83.5351C41.6047 83.5909 41.4653 83.8417 41.2702 83.7581Z" fill="white"/>
<path d="M25.8024 81.5842C25.6352 79.5218 27.0008 77.6266 29.0075 77.1249C29.2026 77.0692 29.2862 77.3757 29.0911 77.4315C27.2238 77.9053 25.9418 79.6611 26.109 81.5842C26.1368 81.7793 25.8024 81.7793 25.8024 81.5842Z" fill="white"/>
<path d="M18.0542 85.5418C19.6149 86.8796 21.6216 87.6042 23.684 87.5206C23.8791 87.5206 23.8791 87.8272 23.684 87.8272C21.538 87.8829 19.4477 87.1583 17.8312 85.7369C17.6919 85.6533 17.9148 85.4303 18.0542 85.5418Z" fill="white"/>
<path d="M34.9994 81.7793C34.8879 82.5875 35.2223 83.3679 35.8355 83.8974C36.0027 84.0368 35.7798 84.2597 35.6125 84.1204C34.9436 83.5351 34.5813 82.6711 34.6928 81.7793C34.6928 81.6957 34.7764 81.6121 34.86 81.6121C34.9436 81.6399 34.9994 81.6957 34.9994 81.7793Z" fill="white"/>
<path d="M199.546 112.019C196.843 105.358 190.767 99.7279 183.604 99.2542C188.092 105.636 190.182 113.412 189.485 121.188C189.206 124.198 188.593 127.487 190.266 129.995C191.325 131.556 193.108 132.476 194.948 132.866C196.787 133.256 198.682 133.172 200.55 133.061L200.968 133.256C202.055 126.149 202.25 118.68 199.546 112.019Z" fill="#F2F2F2"/>
<path d="M183.549 99.3933C188.51 102.654 192.328 107.392 194.446 112.938C194.92 114.137 195.198 115.391 195.31 116.645C195.366 117.899 195.059 119.126 194.474 120.212C193.944 121.244 193.275 122.247 192.997 123.39C192.718 124.588 192.997 125.814 193.693 126.818C194.53 128.072 195.784 128.936 197.01 129.716C198.404 130.608 199.825 131.5 200.717 132.949C200.828 133.116 201.079 132.949 200.968 132.782C199.463 130.274 196.397 129.438 194.502 127.319C193.61 126.344 192.997 125.09 193.248 123.724C193.443 122.554 194.139 121.522 194.669 120.463C195.254 119.404 195.589 118.206 195.617 117.007C195.589 115.725 195.366 114.471 194.92 113.273C193.972 110.569 192.579 108.033 190.823 105.748C188.844 103.128 186.419 100.87 183.688 99.0867C183.521 99.0031 183.381 99.2818 183.549 99.3933Z" fill="white"/>
<path d="M193.889 111.127C195.7 110.123 196.537 107.95 195.868 105.999C195.812 105.804 195.505 105.915 195.561 106.082C196.202 107.922 195.422 109.928 193.722 110.848C193.527 110.96 193.722 111.21 193.889 111.127Z" fill="white"/>
<path d="M194.808 119.767C192.829 119.209 191.129 117.927 190.07 116.171C189.959 116.004 189.708 116.171 189.819 116.339C190.934 118.15 192.718 119.488 194.752 120.073C194.948 120.129 195.003 119.794 194.808 119.767Z" fill="white"/>
<path d="M188.649 103.518C188.036 104.048 187.2 104.215 186.419 103.992C186.224 103.936 186.168 104.243 186.364 104.299C187.228 104.55 188.147 104.354 188.816 103.769C188.9 103.713 188.9 103.63 188.872 103.546C188.816 103.49 188.733 103.49 188.649 103.518Z" fill="white"/>
<path d="M166.882 116.896C166.994 116.924 167.133 116.98 167.245 117.007C168.861 117.537 170.45 118.206 171.955 119.014C172.066 119.07 172.206 119.126 172.317 119.209C175.94 121.16 179.201 123.78 181.877 126.901C182.936 128.156 183.911 129.465 184.775 130.887C185.974 132.81 187.116 135.012 188.816 136.377C188.984 136.517 189.179 136.656 189.374 136.768L200.689 133.73C200.717 133.702 200.745 133.702 200.745 133.674L201.191 133.562C201.163 133.479 201.107 133.423 201.079 133.339C201.051 133.284 201.024 133.256 200.996 133.2C200.968 133.172 200.968 133.144 200.94 133.116C200.94 133.116 200.94 133.089 200.912 133.089C200.912 133.061 200.884 133.033 200.884 133.005C200.633 132.587 200.41 132.141 200.16 131.723C198.292 128.462 196.146 125.313 193.554 122.609C193.471 122.526 193.387 122.442 193.303 122.359C192.133 121.132 190.879 120.017 189.541 119.014C188.788 118.457 188.036 117.955 187.256 117.481C185.221 116.255 182.991 115.363 180.65 114.834C176.024 113.774 171.119 114.22 167.133 116.673C167.077 116.784 166.966 116.84 166.882 116.896Z" fill="#F2F2F2"/>
<path d="M166.938 117.035C172.874 116.645 178.783 118.122 183.8 121.299C184.887 121.968 185.89 122.776 186.726 123.752C187.506 124.727 188.036 125.87 188.203 127.124C188.398 128.267 188.454 129.465 188.928 130.552C189.429 131.667 190.377 132.503 191.548 132.866C192.969 133.339 194.474 133.284 195.951 133.172C197.595 133.061 199.296 132.893 200.856 133.534C201.051 133.618 201.163 133.311 200.968 133.228C198.264 132.141 195.31 133.311 192.523 132.782C191.213 132.531 189.987 131.89 189.346 130.664C188.788 129.605 188.733 128.378 188.538 127.208C188.37 126.009 187.924 124.867 187.2 123.863C186.419 122.86 185.472 121.996 184.385 121.299C181.988 119.711 179.34 118.512 176.581 117.76C173.432 116.868 170.143 116.533 166.854 116.729C166.687 116.729 166.743 117.063 166.938 117.035Z" fill="white"/>
<path d="M182.239 120.185C183.103 118.29 182.462 116.06 180.734 114.917C180.567 114.806 180.372 115.057 180.539 115.168C182.155 116.227 182.741 118.318 181.933 120.073C181.877 120.268 182.155 120.352 182.239 120.185Z" fill="white"/>
<path d="M188.203 126.511C186.28 127.264 184.162 127.236 182.239 126.484C182.044 126.4 181.932 126.707 182.127 126.79C184.106 127.57 186.336 127.57 188.342 126.79C188.51 126.734 188.37 126.428 188.203 126.511Z" fill="white"/>
<path d="M173.488 117.258C173.32 118.039 172.763 118.708 171.983 118.986C171.788 119.07 171.927 119.349 172.122 119.265C172.958 118.93 173.571 118.234 173.766 117.37C173.794 117.286 173.738 117.203 173.683 117.175C173.627 117.147 173.516 117.203 173.488 117.258Z" fill="white"/>
<path d="M147.15 134.649C148.612 134.649 149.798 133.464 149.798 132.002C149.798 130.539 148.612 129.354 147.15 129.354C145.688 129.354 144.502 130.539 144.502 132.002C144.502 133.464 145.688 134.649 147.15 134.649Z" fill="#19C6DF"/>
<path d="M156.57 89.332C158.032 89.332 159.218 88.1466 159.218 86.6843C159.218 85.222 158.032 84.0366 156.57 84.0366C155.108 84.0366 153.922 85.222 153.922 86.6843C153.922 88.1466 155.108 89.332 156.57 89.332Z" fill="#C716D8"/>
<path d="M107.072 15.559C108.535 15.559 109.72 14.3736 109.72 12.9114C109.72 11.4491 108.535 10.2637 107.072 10.2637C105.61 10.2637 104.425 11.4491 104.425 12.9114C104.425 14.3736 105.61 15.559 107.072 15.559Z" fill="#19C6DF"/>
<path d="M51.3037 114.945C51.3037 115.614 51.3316 116.311 51.3595 116.98C51.4152 117.788 51.4988 118.568 51.6103 119.377C52.0005 122.052 52.753 124.644 53.8399 127.097C53.8957 127.208 53.9514 127.347 54.0071 127.459L54.0908 127.654C54.1186 127.71 54.1465 127.766 54.1744 127.849C54.2022 127.933 54.258 128.016 54.2858 128.072C54.3416 128.156 54.3695 128.267 54.4252 128.351C54.4252 128.351 54.4252 128.379 54.4531 128.379C54.4809 128.462 54.5367 128.546 54.5924 128.63C54.5924 128.657 54.6203 128.657 54.6203 128.685C54.676 128.769 54.7318 128.88 54.7596 128.964C54.8154 129.075 54.8711 129.159 54.9269 129.271C55.0662 129.521 55.2056 129.772 55.3449 130.023C55.3728 130.107 55.4285 130.162 55.4843 130.246C55.5121 130.302 55.5679 130.385 55.5958 130.441C55.6236 130.497 55.6515 130.525 55.6794 130.58C55.7351 130.664 55.763 130.72 55.8187 130.803C55.9302 130.971 56.0417 131.138 56.1253 131.305C56.181 131.389 56.2368 131.444 56.2646 131.528C56.404 131.751 56.5712 131.974 56.7106 132.197C56.822 132.364 56.9614 132.559 57.1008 132.726C57.1844 132.838 57.268 132.949 57.3516 133.061C57.4073 133.145 57.4909 133.256 57.5467 133.34C57.5467 133.367 57.5745 133.367 57.6024 133.395C57.6303 133.423 57.6303 133.451 57.6582 133.479C57.9647 133.869 58.2713 134.231 58.5779 134.594L58.6336 134.65C58.6615 134.677 58.6615 134.677 58.6894 134.705C58.7172 134.733 58.7451 134.761 58.773 134.789C58.8009 134.817 58.8287 134.845 58.8566 134.872C60.5009 136.712 62.3404 138.356 64.3749 139.75C64.6536 139.945 64.9323 140.112 65.211 140.307C65.2668 140.363 65.3504 140.391 65.434 140.447C65.4619 140.447 65.4619 140.474 65.4897 140.502C65.5176 140.53 65.5734 140.558 65.6012 140.558C65.6291 140.586 65.6848 140.614 65.7127 140.614C65.8521 140.697 66.0193 140.809 66.1586 140.892C66.1865 140.92 66.2422 140.948 66.2701 140.948C66.298 140.976 66.3537 141.004 66.3816 141.004C66.5767 141.115 66.7718 141.227 66.939 141.311C67.0505 141.366 67.162 141.422 67.2456 141.478C67.4964 141.617 67.7194 141.729 67.9702 141.84C68.0538 141.896 68.1374 141.924 68.221 141.979C68.3047 142.007 68.3604 142.035 68.444 142.091C68.4719 142.091 68.4719 142.119 68.4998 142.119C68.5555 142.147 68.6112 142.175 68.667 142.202C68.7227 142.23 68.8063 142.258 68.8621 142.286C68.9457 142.314 69.0014 142.342 69.085 142.37C69.3637 142.509 69.6424 142.62 69.9211 142.732C70.9245 143.15 71.9557 143.512 73.0148 143.791C73.0705 143.791 73.0984 143.819 73.1541 143.847C73.6 143.958 74.046 144.098 74.5198 144.181C75.328 144.376 76.1084 144.516 76.9166 144.627C77.0002 144.627 77.1117 144.655 77.1953 144.683H77.2232C77.3347 144.683 77.4461 144.711 77.5298 144.739H77.5576C77.6691 144.739 77.7527 144.766 77.8642 144.766C77.9757 144.766 78.0872 144.794 78.1986 144.794C78.2823 144.794 78.3659 144.822 78.4495 144.822H78.4774C78.561 144.822 78.6167 144.822 78.7003 144.85C78.7561 144.85 78.8397 144.85 78.8954 144.878C79.6758 144.934 80.4562 144.962 81.2365 144.962C82.1005 144.962 82.9366 144.934 83.7727 144.85C83.9399 144.822 84.1351 144.822 84.3023 144.794C84.358 144.794 84.3859 144.794 84.4416 144.794H84.4695C84.4695 144.794 84.4974 144.794 84.5252 144.794H84.5531C84.6088 144.794 84.6646 144.794 84.7482 144.766L84.9712 144.739C85.0269 144.739 85.1105 144.711 85.1941 144.711C85.222 144.711 85.222 144.711 85.2499 144.711C85.3056 144.711 85.3613 144.711 85.3892 144.683C85.4171 144.683 85.445 144.683 85.4728 144.683C85.5286 144.683 85.5564 144.683 85.6122 144.655C87.1451 144.432 88.6501 144.098 90.1272 143.624C90.2108 143.596 90.2944 143.568 90.3501 143.54C90.378 143.54 90.4059 143.54 90.4059 143.512C90.6289 143.457 90.8239 143.373 91.019 143.289C91.2977 143.206 91.5764 143.094 91.8551 142.983C91.9388 142.955 91.9945 142.927 92.0781 142.899C92.2175 142.843 92.3847 142.788 92.524 142.704C92.7749 142.593 93.0257 142.481 93.3044 142.37C93.5274 142.258 93.7782 142.147 94.0012 142.035C94.0012 142.035 94.0012 142.035 94.029 142.035C94.0848 142.007 94.1405 141.979 94.1963 141.952C95.4783 141.338 96.7046 140.642 97.903 139.833C98.2932 139.583 98.6555 139.332 99.0178 139.053C99.3244 138.83 99.6031 138.607 99.8818 138.384C101.303 137.241 102.641 135.987 103.839 134.594C103.923 134.51 104.007 134.399 104.09 134.315L104.118 134.287C104.174 134.231 104.23 134.148 104.285 134.092C104.341 134.008 104.425 133.925 104.48 133.841C104.508 133.813 104.508 133.813 104.536 133.786C104.592 133.73 104.648 133.646 104.703 133.59C104.731 133.563 104.759 133.535 104.787 133.479C104.954 133.284 105.121 133.061 105.261 132.866C105.317 132.81 105.344 132.754 105.4 132.699C105.595 132.42 105.79 132.141 105.985 131.862C106.069 131.751 106.125 131.64 106.208 131.556C106.264 131.444 106.348 131.333 106.431 131.249C106.487 131.138 106.571 131.026 106.654 130.915V130.887C106.71 130.776 106.794 130.664 106.849 130.553C106.905 130.469 106.961 130.385 107.017 130.302C107.045 130.246 107.072 130.19 107.128 130.135C107.128 130.107 107.156 130.107 107.156 130.079C107.24 129.939 107.323 129.8 107.379 129.661C107.463 129.493 107.574 129.326 107.658 129.187C107.686 129.131 107.713 129.048 107.769 128.992C107.769 128.964 107.797 128.936 107.797 128.936C107.853 128.852 107.881 128.769 107.909 128.685C107.964 128.602 107.992 128.518 108.048 128.434C108.076 128.351 108.131 128.267 108.159 128.184C108.187 128.128 108.215 128.072 108.243 127.988C108.243 127.961 108.271 127.933 108.271 127.905C108.299 127.849 108.327 127.766 108.354 127.71C108.382 127.626 108.438 127.543 108.466 127.459C108.494 127.403 108.522 127.347 108.55 127.292C108.577 127.208 108.633 127.125 108.661 127.041C108.689 126.957 108.745 126.874 108.772 126.79C108.772 126.762 108.8 126.734 108.8 126.734C108.828 126.706 108.828 126.651 108.856 126.623C108.912 126.511 108.94 126.4 108.995 126.316C109.051 126.205 109.079 126.093 109.135 125.954C109.191 125.842 109.218 125.731 109.274 125.62L109.302 125.592C109.943 123.892 110.445 122.108 110.779 120.324C110.974 119.293 111.086 118.262 111.169 117.231C111.169 117.175 111.169 117.119 111.169 117.063C111.225 116.367 111.253 115.642 111.253 114.945C111.253 114.639 111.253 114.332 111.253 113.998C111.058 107.476 108.717 101.177 104.62 96.1048C104.536 95.9933 104.453 95.8818 104.341 95.7703C104.257 95.6588 104.146 95.5473 104.062 95.4359C93.3044 82.8106 74.3247 81.3334 61.7272 92.0914C59.4419 94.0423 57.4352 96.3556 55.8466 98.8918C55.7072 99.1148 55.5679 99.3377 55.4285 99.5607C55.2892 99.7836 55.1777 100.007 55.0383 100.23C52.6136 104.745 51.3037 109.817 51.3037 114.945Z" fill="#F2F2F2"/>
<path d="M80.1498 95.3243C85.0829 96.5785 90.1553 97.331 95.2277 97.4982C96.0081 97.5539 96.7606 97.5261 97.5409 97.4703C99.241 97.331 100.69 96.8014 102.307 96.4949C103.087 96.3555 103.951 96.244 104.731 96.1047C104.564 95.8817 104.369 95.6588 104.174 95.4358C102.502 95.5751 100.774 96.0489 99.0738 96.2719C96.1753 96.6342 92.9423 96.2162 90.7405 95.2128C89.6815 94.7112 88.8454 94.098 87.7863 93.6242C87.6469 93.5406 87.4797 93.5127 87.3125 93.4849C87.0059 93.4849 86.6993 93.5406 86.4485 93.7078C84.6648 94.5997 82.0729 95.3243 79.676 94.9341C79.5088 95.0735 79.8432 95.2407 80.1498 95.3243Z" fill="white"/>
<path d="M69.5308 98.4737C69.503 98.4737 69.4751 98.4737 69.4751 98.4737C69.5587 98.4179 69.6423 98.3622 69.7259 98.2786L69.5308 98.4737Z" fill="white"/>
<path d="M55.1499 100.257C56.1532 100.341 57.1566 100.397 58.1599 100.425C58.9403 100.452 59.6928 100.452 60.4731 100.397C62.1732 100.257 63.6225 99.7278 65.239 99.4213C66.7161 99.1426 68.5277 99.0311 69.4474 98.4458C67.0227 98.0278 64.5144 98.8917 62.006 99.1983C59.9715 99.4491 57.9369 99.3377 55.9303 98.8917C55.6794 99.3655 55.4007 99.8115 55.1499 100.257Z" fill="white"/>
<path d="M67.2734 141.505C67.5243 141.645 67.7472 141.756 67.9981 141.868C68.0817 141.923 68.1653 141.951 68.2489 142.007C68.3325 142.035 68.3883 142.063 68.4719 142.118C68.4997 142.118 68.4997 142.146 68.5276 142.146C68.5833 142.174 68.6391 142.202 68.6948 142.23C68.7506 142.258 68.8342 142.286 68.8899 142.314C68.9735 142.341 69.0293 142.369 69.1129 142.397C69.3916 142.536 69.6703 142.648 69.949 142.759C70.9523 143.178 71.9835 143.54 73.0426 143.819C73.0983 143.819 73.1262 143.846 73.182 143.874C73.6279 143.986 74.0738 144.125 74.5476 144.209C75.3559 144.404 76.1362 144.543 76.9445 144.655C77.0281 144.655 77.1396 144.683 77.2232 144.71H77.251C77.3625 144.71 77.474 144.738 77.5576 144.766H77.5855C77.697 144.766 77.7806 144.794 77.8921 144.794C78.0035 144.794 78.115 144.822 78.2265 144.822C78.3101 144.822 78.3937 144.85 78.4773 144.85H78.5052C78.5888 144.85 78.6446 144.85 78.7282 144.878C78.7839 144.878 78.8675 144.878 78.9233 144.905C79.7036 144.961 80.484 144.989 81.2644 144.989C82.1284 144.989 82.9645 144.961 83.8006 144.878C83.9678 144.85 84.1629 144.85 84.3301 144.822C84.3859 144.822 84.4137 144.822 84.4695 144.822H84.4973C84.4973 144.822 84.5252 144.822 84.5531 144.822H84.581C84.6367 144.822 84.6924 144.822 84.776 144.794L84.999 144.766C85.0548 144.766 85.1384 144.738 85.222 144.738C85.2498 144.738 85.2498 144.738 85.2777 144.738C85.3335 144.738 85.3892 144.738 85.4171 144.71C85.4449 144.71 85.4728 144.71 85.5007 144.71C85.5564 144.71 85.5843 144.71 85.64 144.683C87.1729 144.46 88.6779 144.125 90.155 143.651C90.2386 143.623 90.3223 143.596 90.378 143.568C89.6534 140.168 87.368 137.297 84.2465 135.792C84.6367 135.43 84.8875 134.956 84.999 134.426C85.1384 133.757 85.0269 133.061 84.6367 132.475C84.2744 131.918 83.717 131.528 83.0481 131.388L78.9233 130.524C77.5297 130.246 76.192 131.137 75.9133 132.531C75.8575 132.726 75.8575 132.949 75.8575 133.144C71.9557 135.82 69.085 138.579 67.2734 141.505Z" fill="#C716D8"/>
<path d="M79.4806 128.936C84.2369 128.936 88.0926 125.08 88.0926 120.324C88.0926 115.568 84.2369 111.712 79.4806 111.712C74.7244 111.712 70.8687 115.568 70.8687 120.324C70.8687 125.08 74.7244 128.936 79.4806 128.936Z" fill="#FFB8B8"/>
<path d="M74.1016 127.738C73.1819 127.124 72.2343 125.898 71.6211 125.006C69.9489 122.609 69.3636 119.599 70.0325 116.757C70.144 116.199 70.3948 115.67 70.785 115.252C71.2031 114.862 71.8441 114.666 72.3458 114.945C72.0671 114.22 72.1228 113.412 72.4573 112.715C72.7917 112.019 73.3212 111.433 73.9344 110.96C76.3591 109.092 79.5921 108.702 82.3791 109.956C82.9087 110.207 82.0447 108.284 82.6021 108.479C83.1595 108.702 83.7726 108.674 84.33 108.451C84.8596 108.173 86.6154 109.761 86.4203 109.204C87.7302 109.789 88.3155 111.35 87.7302 112.66C87.563 113.022 87.3401 113.329 87.0335 113.579C86.5876 113.942 86.0301 114.165 85.5564 114.499C83.8005 115.753 83.2431 118.094 84.2464 119.99C83.7448 119.655 83.1874 119.404 82.5742 119.265C81.9611 119.126 81.3479 119.265 80.8741 119.683C80.4839 120.129 80.2888 120.714 80.3446 121.3C80.3725 121.885 80.5118 122.47 80.5118 123.055C80.5675 124.756 81.4873 128.016 80.1495 128.936C79.0904 129.633 75.3558 128.602 74.1016 127.738Z" fill="#2F2E41"/>
<path d="M85.389 77.2642C85.194 77.2642 85.0267 77.2363 84.8595 77.1527C84.3578 76.9576 84.0234 76.456 84.0234 75.8986V74.5329C84.0234 73.9476 83.5496 73.446 82.9364 73.446C82.1839 73.446 81.5708 72.8328 81.5708 72.0803V53.4072C81.5708 52.6547 82.1839 52.0415 82.9364 52.0415H144.753C145.506 52.0415 146.119 52.6547 146.119 53.4072V72.0803C146.119 72.8328 145.506 73.446 144.753 73.446H90.1828C89.904 73.446 89.6254 73.5575 89.4303 73.7525L86.3366 76.8462C86.0858 77.097 85.7514 77.2642 85.389 77.2642Z" fill="white"/>
<path d="M85.3894 77.5428C85.1665 77.5428 84.9435 77.4871 84.7484 77.4035C84.1353 77.1526 83.7451 76.5674 83.7451 75.8985V74.5328C83.7451 74.0869 83.3828 73.7246 82.9368 73.7246C82.045 73.7246 81.2925 72.9999 81.2925 72.0802V53.407C81.2925 52.5152 82.0171 51.7627 82.9368 51.7627H144.753C145.645 51.7627 146.398 52.4873 146.398 53.407V72.0802C146.398 72.9721 145.673 73.7246 144.753 73.7246H90.1831C89.9602 73.7246 89.7651 73.8082 89.6257 73.9475L86.5321 77.0412C86.2255 77.3477 85.8354 77.5428 85.3894 77.5428ZM82.9368 52.348C82.3516 52.348 81.8499 52.8218 81.8499 53.4349V72.1081C81.8499 72.6934 82.3237 73.195 82.9368 73.195C83.6893 73.195 84.3025 73.8082 84.3025 74.5607V75.9263C84.3025 76.5116 84.7763 77.0133 85.3894 77.0133C85.6681 77.0133 85.9468 76.9018 86.1419 76.7067L89.2355 73.6131C89.4864 73.3623 89.8208 73.2229 90.1831 73.2229H144.781C145.367 73.2229 145.868 72.7491 145.868 72.136V53.4628C145.868 52.8775 145.394 52.3758 144.781 52.3758L82.9368 52.348Z" fill="#3F3D56"/>
<path d="M139.458 60.514H89.3189C88.9287 60.514 88.5942 60.1795 88.5942 59.7893C88.5942 59.3991 88.9287 59.0647 89.3189 59.0647H139.458C139.848 59.0647 140.182 59.3991 140.182 59.7893C140.182 60.1795 139.848 60.514 139.458 60.514Z" fill="#19C6DF"/>
<path d="M139.374 63.6077H89.3189C88.9287 63.6077 88.5942 63.2733 88.5942 62.8831C88.5942 62.4929 88.9287 62.1584 89.3189 62.1584H139.346C139.736 62.1584 140.071 62.4929 140.071 62.8831C140.071 63.2733 139.764 63.6077 139.374 63.6077Z" fill="#E6E6E6"/>
<path d="M139.318 66.6736H89.3189C88.9287 66.6736 88.5942 66.3392 88.5942 65.949C88.5942 65.5588 88.9287 65.2244 89.3189 65.2244H139.318C139.709 65.2244 140.043 65.5588 140.043 65.949C140.043 66.3392 139.709 66.6736 139.318 66.6736Z" fill="#E6E6E6"/>
<path d="M218.415 49.1708C218.415 49.8397 218.387 50.5365 218.359 51.2053C218.303 52.0136 218.22 52.794 218.108 53.6022C217.718 56.2778 216.965 58.8697 215.878 61.3223C215.823 61.4338 215.767 61.5731 215.711 61.6846L215.628 61.8797C215.6 61.9355 215.572 61.9912 215.544 62.0469C215.516 62.1305 215.46 62.2142 215.432 62.2978C215.377 62.4092 215.349 62.4929 215.293 62.5765C215.293 62.5765 215.293 62.6043 215.265 62.6043C215.209 62.6879 215.182 62.7716 215.126 62.8552C215.126 62.883 215.098 62.883 215.098 62.9109C215.042 62.9945 215.014 63.106 214.959 63.1896C214.903 63.3011 214.847 63.3847 214.791 63.4962C214.652 63.747 214.513 63.9979 214.373 64.2208C214.318 64.3044 214.29 64.3602 214.234 64.4438C214.206 64.4995 214.15 64.5831 214.123 64.6389C214.095 64.6946 214.067 64.7225 214.039 64.7782C213.983 64.8618 213.955 64.9176 213.9 65.0012C213.788 65.1684 213.677 65.3356 213.593 65.5029C213.537 65.5865 213.509 65.6422 213.454 65.7258C213.314 65.9488 213.147 66.1717 213.008 66.3947C212.896 66.5619 212.757 66.757 212.645 66.9242C212.562 67.0357 212.478 67.1472 212.395 67.2587C212.339 67.3423 212.255 67.4259 212.199 67.5374C212.199 67.5653 212.172 67.5653 212.144 67.5931C212.116 67.621 212.116 67.6489 212.088 67.6768C211.781 68.0669 211.475 68.4293 211.168 68.7916L211.113 68.8473C211.085 68.8752 211.085 68.8752 211.057 68.903C211.029 68.9309 211.001 68.9588 210.973 68.9867C210.945 69.0145 210.917 69.0424 210.89 69.0703C209.245 70.9097 207.406 72.5541 205.371 73.9476C205.093 74.1427 204.814 74.3099 204.535 74.4771C204.479 74.5329 204.396 74.5607 204.312 74.6165C204.284 74.6165 204.256 74.6444 204.256 74.6722C204.229 74.7001 204.173 74.728 204.145 74.728C204.117 74.7558 204.061 74.7837 204.033 74.7837C203.894 74.8673 203.727 74.9788 203.588 75.0624C203.56 75.0903 203.504 75.1182 203.476 75.1182C203.448 75.146 203.392 75.1739 203.365 75.1739C203.169 75.2854 202.974 75.3969 202.807 75.4805C202.696 75.5362 202.584 75.5919 202.501 75.6477C202.25 75.787 202.027 75.8985 201.776 76.01C201.692 76.0657 201.609 76.0936 201.525 76.1494C201.442 76.1772 201.386 76.2051 201.302 76.2608C201.274 76.2608 201.246 76.2887 201.246 76.2887C201.191 76.3166 201.135 76.3445 201.051 76.3723C200.996 76.4002 200.912 76.4281 200.856 76.4559C200.773 76.4838 200.717 76.5117 200.633 76.5395C200.355 76.6789 200.076 76.7904 199.797 76.9019C198.794 77.3199 197.763 77.6822 196.704 77.9609C196.648 77.9609 196.62 77.9888 196.564 78.0167C196.118 78.156 195.672 78.2675 195.199 78.3511C194.418 78.5462 193.61 78.6856 192.802 78.797C192.718 78.797 192.607 78.8249 192.523 78.8528H192.495C192.384 78.8528 192.272 78.8806 192.161 78.9085H192.133C192.021 78.9085 191.938 78.9364 191.826 78.9364C191.715 78.9364 191.603 78.9643 191.492 78.9643C191.408 78.9643 191.325 78.9921 191.241 78.9921H191.213C191.129 78.9921 191.074 78.9921 190.99 79.02C190.934 79.02 190.851 79.02 190.795 79.0479C190.015 79.1036 189.234 79.1315 188.454 79.1315C187.59 79.1315 186.754 79.1036 185.918 79.02C185.723 78.9921 185.555 78.9921 185.388 78.9643C185.332 78.9643 185.305 78.9643 185.249 78.9643H185.221C185.221 78.9643 185.193 78.9643 185.165 78.9643H185.137C185.082 78.9643 185.026 78.9643 184.942 78.9364L184.719 78.9085C184.664 78.9085 184.58 78.8807 184.496 78.8807C184.468 78.8807 184.468 78.8807 184.441 78.8807C184.385 78.8807 184.329 78.8807 184.301 78.8528C184.273 78.8528 184.245 78.8528 184.218 78.8528C184.162 78.8528 184.134 78.8528 184.078 78.8249C182.545 78.602 181.04 78.2675 179.563 77.7937C179.48 77.7658 179.396 77.738 179.34 77.7101C179.312 77.7101 179.285 77.7101 179.285 77.6822C179.062 77.6265 178.866 77.5429 178.671 77.4593C178.393 77.3757 178.114 77.2642 177.835 77.1527C177.752 77.1248 177.696 77.097 177.612 77.0691C177.473 77.0133 177.306 76.9576 177.166 76.874C176.916 76.7625 176.665 76.651 176.386 76.5395C176.163 76.4281 175.912 76.3166 175.689 76.2051C175.689 76.2051 175.689 76.2051 175.661 76.2051C175.606 76.1772 175.55 76.1494 175.494 76.1215C174.212 75.5083 172.986 74.8116 171.787 74.0033C171.397 73.7525 171.035 73.5017 170.673 73.223C170.366 73 170.087 72.777 169.809 72.5541C168.387 71.4114 167.049 70.1572 165.851 68.7637C165.767 68.6801 165.684 68.5686 165.6 68.485L165.572 68.4571C165.517 68.4014 165.461 68.3178 165.405 68.262C165.349 68.1784 165.266 68.0948 165.21 68.0112C165.182 67.9833 165.182 67.9833 165.154 67.9555C165.099 67.8997 165.043 67.8161 164.987 67.7604C164.959 67.7325 164.931 67.7046 164.903 67.6489C164.736 67.4538 164.569 67.2308 164.43 67.0357C164.374 66.98 164.346 66.9243 164.29 66.8685C164.095 66.5898 163.9 66.3111 163.705 66.0324C163.621 65.9209 163.566 65.8094 163.482 65.7258C163.426 65.6143 163.343 65.5029 163.259 65.4192C163.203 65.3078 163.12 65.1963 163.036 65.0848V65.0569C162.98 64.9455 162.897 64.834 162.841 64.7225C162.785 64.6389 162.73 64.5553 162.674 64.4717C162.646 64.4159 162.618 64.3602 162.562 64.3044C162.562 64.2766 162.534 64.2766 162.534 64.2487C162.451 64.1093 162.367 63.97 162.311 63.8306C162.228 63.6634 162.116 63.5241 162.033 63.3568C162.005 63.3011 161.977 63.2175 161.921 63.1617C161.921 63.1339 161.893 63.106 161.893 63.106C161.838 63.0224 161.81 62.9388 161.782 62.8552C161.726 62.7716 161.698 62.6879 161.643 62.6043C161.615 62.5207 161.559 62.4371 161.531 62.3535C161.503 62.2978 161.475 62.242 161.447 62.1584C161.447 62.1305 161.42 62.1027 161.42 62.0748C161.392 62.0191 161.364 61.9355 161.336 61.8797C161.308 61.7961 161.252 61.7125 161.225 61.6289C161.197 61.5731 161.169 61.5174 161.141 61.4617C161.113 61.378 161.057 61.2944 161.029 61.2108C161.002 61.1272 160.946 61.0436 160.918 60.96C160.918 60.9321 160.89 60.9042 160.89 60.9042C160.862 60.8764 160.862 60.8206 160.834 60.7928C160.779 60.6813 160.751 60.5698 160.695 60.4862C160.639 60.3747 160.611 60.2354 160.556 60.1239C160.5 60.0124 160.472 59.9009 160.416 59.7894L160.388 59.7616C159.747 58.0615 159.246 56.2778 158.911 54.4941C158.716 53.4629 158.605 52.4316 158.521 51.4004C158.521 51.3447 158.521 51.289 158.521 51.2332C158.465 50.5365 158.438 49.8118 158.438 49.1151C158.438 48.8085 158.438 48.5019 158.438 48.1675C158.633 41.6458 160.974 35.3471 165.071 30.2747C165.154 30.1632 165.238 30.0517 165.349 29.9402C165.433 29.8288 165.544 29.7173 165.628 29.6058C176.386 16.9805 195.366 15.5034 207.963 26.2613C210.249 28.2123 212.255 30.5255 213.844 33.0617C213.983 33.2847 214.123 33.5076 214.262 33.7306C214.401 33.9536 214.513 34.1765 214.652 34.3995C217.105 38.9702 218.415 44.0427 218.415 49.1708Z" fill="#F2F2F2"/>
<path d="M189.569 29.5501C184.636 30.8043 179.564 31.5568 174.491 31.724C173.711 31.7798 172.958 31.7519 172.178 31.6962C170.478 31.5568 169.029 31.0273 167.412 30.7207C166.632 30.5813 165.768 30.4699 164.987 30.3305C165.155 30.1075 165.35 29.8846 165.545 29.6616C167.217 29.801 168.945 30.2748 170.645 30.4977C173.544 30.86 176.776 30.442 178.978 29.4387C180.037 28.937 180.873 28.3238 181.933 27.85C182.072 27.7664 182.239 27.7386 182.406 27.7107C182.713 27.7107 183.019 27.7664 183.27 27.9337C185.054 28.8255 187.646 29.5501 190.043 29.16C190.21 29.2993 189.876 29.4665 189.569 29.5501Z" fill="white"/>
<path d="M200.187 32.6995C200.215 32.6995 200.243 32.6995 200.243 32.6995C200.159 32.6437 200.076 32.588 199.992 32.5044L200.187 32.6995Z" fill="white"/>
<path d="M214.569 34.483C213.565 34.5666 212.562 34.6223 211.559 34.6502C210.778 34.6781 210.026 34.6781 209.245 34.6223C207.545 34.483 206.096 33.9534 204.479 33.6469C203.002 33.3682 201.191 33.2567 200.271 32.6714C202.696 32.2533 205.204 33.1173 207.712 33.4239C209.747 33.6747 211.781 33.5633 213.788 33.1173C214.039 33.5911 214.318 34.037 214.569 34.483Z" fill="white"/>
<path d="M184.998 62.3257C189.985 62.3257 194.028 58.1955 194.028 53.1006C194.028 48.0057 189.985 43.8755 184.998 43.8755C180.011 43.8755 175.968 48.0057 175.968 53.1006C175.968 58.1955 180.011 62.3257 184.998 62.3257Z" fill="#FFB6B6"/>
<path d="M202.445 75.7314C202.194 75.8707 201.971 75.9822 201.72 76.0937C201.637 76.1494 201.553 76.1773 201.47 76.233C201.386 76.2609 201.33 76.2888 201.247 76.3445C201.219 76.3445 201.191 76.3724 201.191 76.3724C201.135 76.4003 201.079 76.4281 200.996 76.456C200.94 76.4839 200.856 76.5117 200.801 76.5396C200.717 76.5675 200.661 76.5953 200.578 76.6232C200.299 76.7626 200.02 76.874 199.742 76.9855C198.738 77.4036 197.707 77.7659 196.648 78.0446C196.592 78.0446 196.564 78.0725 196.509 78.1003C196.063 78.2118 195.617 78.3512 195.143 78.4348C194.363 78.6299 193.554 78.7692 192.746 78.8807C192.662 78.8807 192.551 78.9086 192.467 78.9365H192.44C192.328 78.9365 192.217 78.9643 192.105 78.9922H192.077C191.966 78.9922 191.882 79.0201 191.771 79.0201C191.659 79.0201 191.548 79.0479 191.436 79.0479C191.353 79.0479 191.269 79.0758 191.185 79.0758H191.157C191.074 79.0758 191.018 79.0758 190.934 79.1037C190.879 79.1037 190.795 79.1037 190.739 79.1316C189.959 79.1873 189.179 79.2152 188.398 79.2152C187.534 79.2152 186.698 79.1873 185.862 79.1037C185.667 79.0758 185.5 79.0758 185.333 79.0479C185.277 79.0479 185.249 79.0479 185.193 79.0479H185.165C185.165 79.0479 185.137 79.0479 185.11 79.0479H185.082C185.026 79.0479 184.97 79.0479 184.887 79.0201L184.664 78.9922C184.608 78.9922 184.524 78.9643 184.441 78.9643C184.413 78.9643 184.413 78.9643 184.385 78.9643C184.329 78.9643 184.273 78.9643 184.246 78.9365C184.218 78.9365 184.19 78.9365 184.162 78.9365C184.106 78.9365 184.078 78.9365 184.023 78.9086C182.49 78.6856 180.985 78.3512 179.508 77.8774C179.424 77.8495 179.34 77.8216 179.285 77.7938C180.009 74.3936 182.295 71.5229 185.416 70.0179C185.026 69.6556 184.775 69.1818 184.664 68.6523C184.524 67.9834 184.636 67.2866 185.026 66.7013C185.388 66.1439 185.946 65.7538 186.615 65.6144L190.739 64.7504C192.133 64.4717 193.471 65.3636 193.749 66.7571C193.805 66.9522 193.805 67.1751 193.805 67.3702C197.763 70.0458 200.633 72.805 202.445 75.7314Z" fill="#19C6DF"/>
<path d="M209.134 49.1152C207.601 47.3315 206.877 44.9625 205.65 42.928C204.424 40.8934 202.306 39.0818 200.048 39.5556C198.488 39.8901 197.289 41.2557 196.676 42.7886C196.063 44.3215 195.951 45.9937 195.84 47.6659C195.868 44.2657 193.638 40.977 190.572 39.8901C187.507 38.8031 183.8 40.0016 181.877 42.7329C180.121 41.1164 177.445 41.0606 175.634 42.5935C173.906 44.1264 173.516 47.0806 174.798 49.0594C176.08 51.0382 178.839 51.7629 180.846 50.6759L181.57 51.3448C181.18 52.7662 181.96 54.4106 183.27 54.9401C184.329 55.3582 185.834 55.3024 186.225 56.4172C186.503 57.1976 185.974 58.0337 185.416 58.619C184.859 59.2321 184.218 59.8453 184.134 60.6535C184.023 61.9077 185.333 62.7717 186.503 63.0504C189.346 63.6914 192.495 62.3815 194.112 59.8732C194.14 59.8174 194.168 59.7895 194.223 59.7338C196.063 57.3648 196.871 54.3269 196.425 51.3727C196.342 50.7874 196.425 50.3694 196.815 50.23C198.543 49.6447 203.365 50.871 204.814 52.0137C206.263 53.1285 207.434 54.6335 208.855 55.8041C210.249 57.0025 212.06 57.9222 213.844 57.5878C215.266 57.337 216.492 56.2779 217.3 55.0237C218.108 53.7695 218.582 52.3203 219 50.871C215.879 52.6826 211.531 51.9301 209.134 49.1152Z" fill="#2F2E41"/>
<path d="M23.9907 30.4977C23.9907 31.1666 24.0186 31.8633 24.0465 32.5322C24.1022 33.3405 24.1858 34.1208 24.2973 34.9291C24.6875 37.6046 25.44 40.1966 26.5269 42.6492C26.5827 42.7607 26.6384 42.9 26.6942 43.0115L26.7778 43.2066C26.8056 43.2623 26.8335 43.3181 26.8614 43.3738C26.8892 43.4574 26.945 43.541 26.9729 43.6246C27.0286 43.7361 27.0565 43.8197 27.1122 43.9033C27.1122 43.9033 27.1122 43.9312 27.1401 43.9312C27.1679 44.0148 27.2237 44.0984 27.2794 44.182C27.2794 44.2099 27.3073 44.2099 27.3073 44.2378C27.363 44.3214 27.4188 44.4329 27.4467 44.5165C27.5024 44.628 27.5581 44.7116 27.6139 44.8231C27.7532 45.0739 27.8926 45.3247 28.0319 45.5477C28.0598 45.6313 28.1155 45.687 28.1713 45.7706C28.1992 45.8264 28.2549 45.91 28.2828 45.9657C28.3106 46.0215 28.3385 46.0494 28.3664 46.1051C28.4221 46.1887 28.45 46.2444 28.5057 46.3281C28.6172 46.4953 28.7287 46.6625 28.8123 46.8297C28.868 46.9133 28.9238 46.9691 28.9517 47.0527C29.091 47.2757 29.2582 47.4986 29.3976 47.7216C29.5091 47.8888 29.6484 48.0839 29.7878 48.2511C29.8714 48.3626 29.955 48.4741 30.0386 48.5856C30.0943 48.6692 30.178 48.7528 30.2337 48.8643C30.2337 48.8921 30.2616 48.8921 30.2894 48.92C30.3173 48.9479 30.3173 48.9757 30.3452 49.0036C30.6517 49.3938 30.9583 49.7561 31.2649 50.1184L31.3206 50.1742C31.3485 50.202 31.3485 50.202 31.3764 50.2299C31.4043 50.2578 31.4321 50.2857 31.46 50.3135C31.4879 50.3414 31.5157 50.3693 31.5436 50.3971C33.188 52.2366 35.0274 53.8809 37.0619 55.2745C37.3406 55.4696 37.6193 55.6368 37.8981 55.8319C37.9538 55.8876 38.0374 55.9155 38.121 55.9712C38.1489 55.9712 38.1489 55.9991 38.1768 55.9991C38.2046 56.027 38.2604 56.0548 38.2882 56.0548C38.3161 56.0827 38.3719 56.1106 38.3997 56.1106C38.5391 56.1942 38.7063 56.2778 38.8456 56.3893C38.8735 56.4171 38.9293 56.445 38.9571 56.445C38.985 56.4729 39.0407 56.4729 39.0686 56.5008C39.2637 56.6122 39.4588 56.7237 39.626 56.8073C39.7375 56.8631 39.849 56.9188 39.9326 56.9746C40.1834 57.1139 40.4064 57.2254 40.6572 57.3647C40.7408 57.3926 40.8244 57.4483 40.9081 57.5041C40.9917 57.532 41.0474 57.5598 41.131 57.6156C41.1589 57.6156 41.1589 57.6434 41.1868 57.6434C41.2425 57.6713 41.2982 57.6992 41.354 57.7271C41.4097 57.7549 41.4933 57.7828 41.5491 57.8107C41.6327 57.8385 41.6884 57.8664 41.772 57.9221C42.0507 58.0615 42.3295 58.173 42.6082 58.2845C43.6115 58.7025 44.6427 59.0648 45.7018 59.3435C45.7575 59.3435 45.8132 59.3714 45.8411 59.3714C46.287 59.4829 46.733 59.6222 47.2068 59.7058C48.015 59.9009 48.7954 60.0403 49.6036 60.1518C49.7151 60.1518 49.7987 60.1796 49.8823 60.1796H49.9102C50.0217 60.1796 50.1332 60.2075 50.2168 60.2075H50.2446C50.3561 60.2075 50.4397 60.2354 50.5512 60.2354C50.6627 60.2354 50.7742 60.2633 50.8857 60.2633C50.9693 60.2633 51.0529 60.2911 51.1365 60.2911H51.1644C51.248 60.2911 51.3037 60.2911 51.3873 60.319C51.4431 60.319 51.5267 60.319 51.5824 60.3469C52.3628 60.4026 53.1432 60.4305 53.9235 60.4305C54.7875 60.4305 55.6236 60.4026 56.4597 60.319C56.627 60.2911 56.8221 60.2911 56.9893 60.2633C57.045 60.2633 57.0729 60.2633 57.1286 60.2633H57.1565C57.1565 60.2633 57.1844 60.2633 57.2122 60.2633H57.2401C57.2959 60.2633 57.3516 60.2633 57.4352 60.2354L57.6582 60.2075C57.7139 60.2075 57.7975 60.1796 57.8811 60.1796C57.909 60.1796 57.909 60.1796 57.9369 60.1796C57.9926 60.1796 58.0484 60.1796 58.0762 60.1518C58.1041 60.1518 58.132 60.1518 58.1598 60.1518C58.2156 60.1518 58.2713 60.1518 58.2992 60.1239C59.8321 59.9009 61.3371 59.5665 62.8142 59.1206C62.8978 59.0927 62.9814 59.0648 63.0372 59.037C63.065 59.037 63.0929 59.037 63.0929 59.0091C63.3159 58.9534 63.511 58.8697 63.7061 58.7861C63.9848 58.7025 64.2635 58.591 64.5422 58.4796C64.6258 58.4517 64.6815 58.4238 64.7651 58.3959C64.9045 58.3402 65.0717 58.2845 65.211 58.2287C65.4619 58.1172 65.7127 58.0058 65.9914 57.8943C66.2423 57.7828 66.4652 57.6713 66.6882 57.5598C66.6882 57.5598 66.6882 57.5598 66.7161 57.5598C66.7718 57.532 66.8275 57.5041 66.8833 57.4762C68.1653 56.8631 69.3916 56.1663 70.59 55.3581C70.9802 55.1072 71.3425 54.8285 71.7049 54.5777C72.0114 54.3547 72.2901 54.1318 72.5688 53.9088C73.9902 52.7661 75.328 51.512 76.5264 50.1184C76.61 50.0348 76.6937 49.9233 76.7773 49.8397L76.8051 49.8119C76.8609 49.7561 76.9166 49.6725 76.9724 49.6168C77.0281 49.5332 77.1117 49.4495 77.1675 49.3659C77.1953 49.3381 77.1953 49.3381 77.2232 49.3102C77.2789 49.2545 77.3347 49.1708 77.3904 49.1151C77.4183 49.0872 77.4462 49.0594 77.474 49.0036C77.6413 48.8085 77.8085 48.5856 77.9478 48.3905C78.0036 48.3347 78.0314 48.279 78.0872 48.2232C78.2823 47.9445 78.4774 47.6658 78.6725 47.3871C78.7561 47.2757 78.8118 47.1642 78.8954 47.0806C78.9512 46.9691 79.0348 46.8576 79.1184 46.774C79.1741 46.6625 79.2577 46.551 79.3413 46.4395V46.4117C79.3971 46.3002 79.4807 46.1887 79.5364 46.0772C79.5922 45.9936 79.6479 45.91 79.7037 45.8264C79.7315 45.7707 79.7594 45.7149 79.8151 45.6592C79.8151 45.6313 79.843 45.6313 79.843 45.6034C79.9266 45.4641 80.0102 45.3247 80.066 45.1854C80.1496 45.0181 80.2332 44.8788 80.3447 44.7116C80.3726 44.6558 80.4004 44.5722 80.4562 44.5165C80.4562 44.4886 80.484 44.4607 80.484 44.4607C80.5398 44.3771 80.5676 44.2935 80.5955 44.2099C80.6513 44.1263 80.6791 44.0427 80.7349 43.9591C80.7627 43.8755 80.8185 43.7919 80.8463 43.7082C80.8742 43.6525 80.9021 43.5968 80.93 43.5131C80.93 43.4853 80.9578 43.4574 80.9578 43.4295C80.9857 43.3738 81.0136 43.2902 81.0414 43.2344C81.0693 43.1508 81.125 43.0672 81.1529 42.9836C81.1808 42.9279 81.2087 42.8721 81.2365 42.8164C81.2644 42.7328 81.3201 42.6492 81.348 42.5656C81.3759 42.4819 81.4316 42.3983 81.4595 42.3147C81.4595 42.2868 81.4874 42.259 81.4874 42.259C81.5152 42.2311 81.5152 42.1754 81.5431 42.1475C81.5988 42.036 81.6267 41.9245 81.6825 41.8409C81.7382 41.7294 81.7661 41.5901 81.8218 41.4786C81.8775 41.3671 81.9054 41.2556 81.9612 41.1442L81.989 41.1163C82.6301 39.4162 83.1317 37.6325 83.4662 35.8488C83.6613 34.8176 83.7727 33.7864 83.8564 32.7552C83.8564 32.6994 83.8564 32.6437 83.8564 32.588C83.9121 31.8912 83.94 31.1666 83.94 30.4698C83.94 30.1632 83.94 29.8567 83.94 29.5222C83.7449 23.0005 81.4038 16.7018 77.3068 11.6294C77.2232 11.5179 77.1396 11.4064 77.0281 11.295C76.9445 11.1835 76.833 11.072 76.7494 10.9605C65.9914 -1.66477 47.0117 -3.1419 34.4143 7.61607C32.1289 9.567 30.1222 11.8802 28.5336 14.4164C28.3942 14.6394 28.2549 14.8624 28.1155 15.0853C27.9762 15.3083 27.8647 15.5313 27.7254 15.7542C25.3006 20.2971 23.9907 25.3695 23.9907 30.4977Z" fill="#F2F2F2"/>
<path d="M52.8368 10.877C57.7699 12.1312 62.8423 12.8837 67.9147 13.0509C68.6951 13.1067 69.4476 13.0788 70.2279 13.0231C71.928 12.8837 73.3773 12.3542 74.9938 12.0476C75.7741 11.9082 76.6381 11.7968 77.4185 11.6574C77.2513 11.4345 77.0562 11.2115 76.8611 10.9885C75.1889 11.1279 73.4609 11.6017 71.7608 11.8246C68.8623 12.187 65.6293 11.7689 63.4276 10.7656C62.3685 10.2639 61.5324 9.65075 60.4733 9.17695C60.3339 9.09334 60.1667 9.06547 59.9995 9.0376C59.6929 9.0376 59.3863 9.09334 59.1355 9.26056C57.3518 10.1524 54.7599 10.877 52.363 10.4869C52.1958 10.6262 52.5302 10.7934 52.8368 10.877Z" fill="white"/>
<path d="M42.2178 14.0264C42.19 14.0264 42.1621 14.0264 42.1621 14.0264C42.2457 13.9707 42.3293 13.9149 42.4129 13.8313L42.2178 14.0264Z" fill="white"/>
<path d="M27.8369 15.8101C28.8402 15.8937 29.8436 15.9495 30.8469 15.9773C31.6273 16.0052 32.3798 16.0052 33.1602 15.9495C34.8603 15.8101 36.3095 15.2806 37.926 14.974C39.4031 14.6953 41.2147 14.5838 42.1344 13.9985C39.7097 13.5805 37.2014 14.4445 34.693 14.751C32.6585 15.0019 30.624 14.8904 28.6173 14.4445C28.3665 14.9183 28.0877 15.3642 27.8369 15.8101Z" fill="white"/>
<path d="M39.9604 57.0583C40.2113 57.1976 40.4342 57.3091 40.6851 57.4484C40.7687 57.4763 40.8523 57.5321 40.9359 57.5878C41.0195 57.6157 41.0753 57.6435 41.1589 57.6993C41.1867 57.6993 41.1867 57.7272 41.2146 57.7272C41.2704 57.755 41.3261 57.7829 41.3818 57.8108C41.4376 57.8386 41.5212 57.8665 41.5769 57.8944C41.6605 57.9222 41.7163 57.9501 41.7999 58.0059C42.0786 58.1452 42.3573 58.2567 42.636 58.3682C43.6393 58.7862 44.6705 59.1485 45.7296 59.4272C45.7854 59.4272 45.8411 59.4551 45.869 59.4551C46.3149 59.5945 46.7608 59.706 47.2346 59.7896C48.0429 59.9847 48.8232 60.124 49.6315 60.2355C49.743 60.2355 49.8266 60.2634 49.9102 60.2634H49.938C50.0495 60.2634 50.161 60.2912 50.2446 60.2912H50.2725C50.384 60.2912 50.4676 60.3191 50.5791 60.3191C50.6906 60.3191 50.802 60.347 50.9135 60.347C50.9971 60.347 51.0807 60.3748 51.1643 60.3748H51.1922C51.2758 60.3748 51.3316 60.3748 51.4152 60.4027C51.4709 60.4027 51.5545 60.4027 51.6103 60.4306C52.3906 60.4863 53.171 60.5142 53.9514 60.5142C54.8154 60.5142 55.6515 60.4863 56.4876 60.4027C56.6548 60.3748 56.8499 60.3748 57.0171 60.347C57.0729 60.347 57.1007 60.347 57.1565 60.347H57.1844C57.1844 60.347 57.2122 60.347 57.2401 60.347H57.268C57.3237 60.347 57.3794 60.347 57.4631 60.3191L57.686 60.2912C57.7418 60.2912 57.8254 60.2634 57.909 60.2634C57.9369 60.2634 57.9369 60.2634 57.9647 60.2634C58.0205 60.2634 58.0762 60.2634 58.1041 60.2355C58.1319 60.2355 58.1598 60.2355 58.1877 60.2355C58.2434 60.2355 58.2992 60.2355 58.327 60.2076C59.8599 59.9847 61.3649 59.6502 62.842 59.2043C62.9257 59.1764 63.0093 59.1485 63.065 59.1207C62.3404 55.7205 60.055 52.8498 56.9335 51.3448C57.3237 50.9825 57.5745 50.5087 57.686 49.9792C57.8254 49.3103 57.7139 48.6135 57.3237 48.0283C56.9614 47.4708 56.404 47.0807 55.7351 46.9413L51.6103 46.0773C50.2168 45.7986 48.879 46.6905 48.6003 48.084C48.5445 48.2791 48.5445 48.502 48.5445 48.6971C44.6427 51.3727 41.772 54.1319 39.9604 57.0583Z" fill="#C716D8"/>
<path d="M56.3205 43.318C61.8772 43.318 66.3817 38.8134 66.3817 33.2568C66.3817 27.7001 61.8772 23.1956 56.3205 23.1956C50.7638 23.1956 46.2593 27.7001 46.2593 33.2568C46.2593 38.8134 50.7638 43.318 56.3205 43.318Z" fill="#9E616A"/>
<path d="M54.871 42.7885C52.3626 43.4574 49.5756 42.5655 47.6247 40.8376C45.6737 39.1096 44.4196 36.6849 43.7228 34.1765C43.1933 32.3371 42.9703 30.3025 43.7785 28.5746C44.5868 26.8466 46.7885 25.6761 48.4886 26.5679C47.4296 25.3416 47.9591 23.3349 49.1854 22.2759C50.4117 21.2168 52.0839 20.9381 53.7004 20.7709C56.0136 20.52 58.4105 20.52 60.6401 21.2725C62.8698 22.025 64.8486 23.6694 65.5453 25.899C66.9946 26.5679 68.7226 26.1777 69.7538 24.9514C70.0046 26.3728 69.3078 27.7942 67.9979 28.4074L71.3981 27.3204C71.9834 28.5467 70.9522 30.0796 69.6423 30.4698C68.3324 30.86 66.9388 30.4419 65.6847 29.8566C64.4305 29.2713 63.2321 28.5746 61.8943 28.3516C60.5565 28.1287 58.9679 28.5746 58.3548 29.773C58.0203 30.414 58.0203 31.1665 57.8252 31.8354C57.6301 32.5043 57.1563 33.2289 56.4317 33.2847C55.9858 33.3126 55.5399 33.0896 55.0939 33.1175C54.5365 33.2289 54.0906 33.6749 53.9512 34.2323C53.8398 34.7897 53.8398 35.3471 53.9512 35.9045L54.8152 42.4819L54.871 42.7885Z" fill="#2F2E41"/>
</svg>
