<svg width="133" height="48" viewBox="0 0 133 48" fill="none" xmlns="http://www.w3.org/2000/svg">
<path d="M0 24C0 11.0213 10.5213 0.5 23.5 0.5H109.5C122.479 0.5 133 11.0213 133 24C133 36.9787 122.479 47.5 109.5 47.5H23.5C10.5213 47.5 0 36.9787 0 24Z" fill="#AA1CD3"/>
<path d="M23.2734 28.9668V30.5H16.1641V28.9668H23.2734ZM16.5352 16.2812V30.5H14.6504V16.2812H16.5352ZM24.6797 25.334V25.1094C24.6797 24.3477 24.7904 23.6413 25.0117 22.9902C25.2331 22.3327 25.5521 21.763 25.9688 21.2812C26.3854 20.793 26.89 20.4154 27.4824 20.1484C28.0749 19.875 28.7389 19.7383 29.4746 19.7383C30.2168 19.7383 30.8841 19.875 31.4766 20.1484C32.0755 20.4154 32.5833 20.793 33 21.2812C33.4232 21.763 33.7454 22.3327 33.9668 22.9902C34.1882 23.6413 34.2988 24.3477 34.2988 25.1094V25.334C34.2988 26.0957 34.1882 26.8021 33.9668 27.4531C33.7454 28.1042 33.4232 28.6738 33 29.1621C32.5833 29.6439 32.0788 30.0215 31.4863 30.2949C30.9004 30.5618 30.2363 30.6953 29.4941 30.6953C28.752 30.6953 28.0846 30.5618 27.4922 30.2949C26.8997 30.0215 26.3919 29.6439 25.9688 29.1621C25.5521 28.6738 25.2331 28.1042 25.0117 27.4531C24.7904 26.8021 24.6797 26.0957 24.6797 25.334ZM26.4863 25.1094V25.334C26.4863 25.8613 26.5482 26.3594 26.6719 26.8281C26.7956 27.2904 26.9811 27.7005 27.2285 28.0586C27.4824 28.4167 27.7982 28.6999 28.1758 28.9082C28.5534 29.11 28.9928 29.2109 29.4941 29.2109C29.9889 29.2109 30.4219 29.11 30.793 28.9082C31.1706 28.6999 31.4831 28.4167 31.7305 28.0586C31.9779 27.7005 32.1634 27.2904 32.2871 26.8281C32.4173 26.3594 32.4824 25.8613 32.4824 25.334V25.1094C32.4824 24.5885 32.4173 24.097 32.2871 23.6348C32.1634 23.166 31.9746 22.7526 31.7207 22.3945C31.4733 22.0299 31.1608 21.7435 30.7832 21.5352C30.4121 21.3268 29.9759 21.2227 29.4746 21.2227C28.9798 21.2227 28.5436 21.3268 28.166 21.5352C27.7949 21.7435 27.4824 22.0299 27.2285 22.3945C26.9811 22.7526 26.7956 23.166 26.6719 23.6348C26.5482 24.097 26.4863 24.5885 26.4863 25.1094ZM43.4102 19.9336H45.0508V30.2754C45.0508 31.2064 44.862 32.0007 44.4844 32.6582C44.1068 33.3158 43.5794 33.8138 42.9023 34.1523C42.2318 34.4974 41.457 34.6699 40.5781 34.6699C40.2135 34.6699 39.7839 34.6113 39.2891 34.4941C38.8008 34.3835 38.319 34.1914 37.8438 33.918C37.375 33.651 36.9811 33.2897 36.6621 32.834L37.6094 31.7598C38.0521 32.2936 38.5143 32.6647 38.9961 32.873C39.4844 33.0814 39.9661 33.1855 40.4414 33.1855C41.0143 33.1855 41.5091 33.0781 41.9258 32.8633C42.3424 32.6484 42.6647 32.3294 42.8926 31.9062C43.127 31.4896 43.2441 30.9753 43.2441 30.3633V22.2578L43.4102 19.9336ZM36.1348 25.334V25.1289C36.1348 24.3216 36.2292 23.5892 36.418 22.9316C36.6133 22.2676 36.89 21.6979 37.248 21.2227C37.6126 20.7474 38.0521 20.3828 38.5664 20.1289C39.0807 19.8685 39.6602 19.7383 40.3047 19.7383C40.9688 19.7383 41.5482 19.8555 42.043 20.0898C42.5443 20.3177 42.9674 20.653 43.3125 21.0957C43.6641 21.5319 43.9408 22.0592 44.1426 22.6777C44.3444 23.2962 44.4844 23.9961 44.5625 24.7773V25.6758C44.4909 26.4505 44.3509 27.1471 44.1426 27.7656C43.9408 28.3841 43.6641 28.9115 43.3125 29.3477C42.9674 29.7839 42.5443 30.1191 42.043 30.3535C41.5417 30.5814 40.9557 30.6953 40.2852 30.6953C39.6536 30.6953 39.0807 30.5618 38.5664 30.2949C38.0586 30.028 37.6224 29.6536 37.2578 29.1719C36.8932 28.6901 36.6133 28.1237 36.418 27.4727C36.2292 26.8151 36.1348 26.1022 36.1348 25.334ZM37.9414 25.1289V25.334C37.9414 25.8613 37.9935 26.3561 38.0977 26.8184C38.2083 27.2806 38.3743 27.6875 38.5957 28.0391C38.8236 28.3906 39.1133 28.6673 39.4648 28.8691C39.8164 29.0645 40.2363 29.1621 40.7246 29.1621C41.3236 29.1621 41.8184 29.0352 42.209 28.7812C42.5996 28.5273 42.9089 28.1921 43.1367 27.7754C43.3711 27.3587 43.5534 26.9062 43.6836 26.418V24.0645C43.612 23.7064 43.5013 23.3613 43.3516 23.0293C43.2083 22.6908 43.0195 22.3913 42.7852 22.1309C42.5573 21.8639 42.2741 21.6523 41.9355 21.4961C41.597 21.3398 41.1999 21.2617 40.7441 21.2617C40.2493 21.2617 39.8229 21.3659 39.4648 21.5742C39.1133 21.776 38.8236 22.056 38.5957 22.4141C38.3743 22.7656 38.2083 23.1758 38.0977 23.6445C37.9935 24.1068 37.9414 24.6016 37.9414 25.1289ZM63.9766 22.9414V23.8398C63.9766 24.9076 63.8431 25.8646 63.5762 26.7109C63.3092 27.5573 62.9251 28.2767 62.4238 28.8691C61.9225 29.4616 61.3203 29.9141 60.6172 30.2266C59.9206 30.5391 59.1393 30.6953 58.2734 30.6953C57.4336 30.6953 56.6621 30.5391 55.959 30.2266C55.2624 29.9141 54.6569 29.4616 54.1426 28.8691C53.6348 28.2767 53.2409 27.5573 52.9609 26.7109C52.681 25.8646 52.541 24.9076 52.541 23.8398V22.9414C52.541 21.8737 52.6777 20.9199 52.9512 20.0801C53.2311 19.2337 53.625 18.5143 54.1328 17.9219C54.6406 17.3229 55.2428 16.8672 55.9395 16.5547C56.6426 16.2422 57.4141 16.0859 58.2539 16.0859C59.1198 16.0859 59.901 16.2422 60.5977 16.5547C61.3008 16.8672 61.903 17.3229 62.4043 17.9219C62.9121 18.5143 63.2995 19.2337 63.5664 20.0801C63.8398 20.9199 63.9766 21.8737 63.9766 22.9414ZM62.1113 23.8398V22.9219C62.1113 22.0755 62.0234 21.3268 61.8477 20.6758C61.6784 20.0247 61.4277 19.4779 61.0957 19.0352C60.7637 18.5924 60.3568 18.2572 59.875 18.0293C59.3997 17.8014 58.8594 17.6875 58.2539 17.6875C57.668 17.6875 57.1374 17.8014 56.6621 18.0293C56.1934 18.2572 55.7897 18.5924 55.4512 19.0352C55.1191 19.4779 54.862 20.0247 54.6797 20.6758C54.4974 21.3268 54.4062 22.0755 54.4062 22.9219V23.8398C54.4062 24.6927 54.4974 25.4479 54.6797 26.1055C54.862 26.7565 55.1224 27.3066 55.4609 27.7559C55.806 28.1986 56.2129 28.5339 56.6816 28.7617C57.1569 28.9896 57.6875 29.1035 58.2734 29.1035C58.8854 29.1035 59.429 28.9896 59.9043 28.7617C60.3796 28.5339 60.7799 28.1986 61.1055 27.7559C61.4375 27.3066 61.6882 26.7565 61.8574 26.1055C62.0267 25.4479 62.1113 24.6927 62.1113 23.8398ZM72.9902 28.0586V19.9336H74.8066V30.5H73.0781L72.9902 28.0586ZM73.332 25.832L74.084 25.8125C74.084 26.5156 74.0091 27.1667 73.8594 27.7656C73.7161 28.3581 73.4818 28.8724 73.1562 29.3086C72.8307 29.7448 72.4043 30.0866 71.877 30.334C71.3496 30.5749 70.7083 30.6953 69.9531 30.6953C69.4388 30.6953 68.9668 30.6204 68.5371 30.4707C68.1139 30.321 67.7493 30.0898 67.4434 29.7773C67.1374 29.4648 66.8997 29.0579 66.7305 28.5566C66.5677 28.0553 66.4863 27.4531 66.4863 26.75V19.9336H68.293V26.7695C68.293 27.2448 68.3451 27.6387 68.4492 27.9512C68.5599 28.2572 68.7064 28.5013 68.8887 28.6836C69.0775 28.8594 69.2858 28.9831 69.5137 29.0547C69.748 29.1263 69.9889 29.1621 70.2363 29.1621C71.0046 29.1621 71.6133 29.0156 72.0625 28.7227C72.5117 28.4232 72.834 28.0228 73.0293 27.5215C73.2311 27.0137 73.332 26.4505 73.332 25.832ZM81.9844 19.9336V21.3203H76.2715V19.9336H81.9844ZM78.2051 17.3652H80.0117V27.8828C80.0117 28.2409 80.0671 28.5111 80.1777 28.6934C80.2884 28.8757 80.4316 28.9961 80.6074 29.0547C80.7832 29.1133 80.972 29.1426 81.1738 29.1426C81.3236 29.1426 81.4798 29.1296 81.6426 29.1035C81.8118 29.071 81.9388 29.0449 82.0234 29.0254L82.0332 30.5C81.89 30.5456 81.7012 30.5879 81.4668 30.627C81.2389 30.6725 80.9622 30.6953 80.6367 30.6953C80.194 30.6953 79.7871 30.6074 79.416 30.4316C79.0449 30.2559 78.7487 29.9629 78.5273 29.5527C78.3125 29.1361 78.2051 28.5762 78.2051 27.873V17.3652Z" fill="white"/>
<path d="M109.5 0.5C122.479 0.5 133 11.0213 133 24C133 36.9787 122.479 47.5 109.5 47.5C96.5213 47.5 86 36.9787 86 24C86 11.0213 96.5213 0.5 109.5 0.5Z" fill="#6C63FF"/>
<mask id="mask0_53_46" style="mask-type:luminance" maskUnits="userSpaceOnUse" x="86" y="0" width="47" height="48">
<path d="M109.5 47.5C122.479 47.5 133 36.9787 133 24C133 11.0213 122.479 0.5 109.5 0.5C96.5213 0.5 86 11.0213 86 24C86 36.9787 96.5213 47.5 109.5 47.5Z" fill="white"/>
</mask>
<g mask="url(#mask0_53_46)">
<path d="M110.885 19.4766C113.128 19.4766 114.946 17.6584 114.946 15.4155C114.946 13.1726 113.128 11.3544 110.885 11.3544C108.642 11.3544 106.824 13.1726 106.824 15.4155C106.824 17.6584 108.642 19.4766 110.885 19.4766Z" fill="#FFB9B9"/>
<path d="M107.378 16.3381C107.378 16.3381 107.193 22.0605 106.27 22.7989C105.347 23.5374 109.593 26.6753 109.593 26.6753L112.361 22.2452V18.1841L107.378 16.3381Z" fill="#FFB9B9"/>
<path d="M109.223 24.0913L106.982 20.7072L105.716 22.43L103.87 27.5986L105.347 47.7193L114.023 47.9039L115.131 24.8298L112.362 21.5072L109.223 24.0913Z" fill="#F2F2F2"/>
<path d="M118.638 25.3833L120.115 25.1987C120.115 25.1987 120.484 25.3833 120.669 26.6754C120.853 27.9674 123.068 39.4125 123.068 39.4125L120.114 53.441L116.792 49.0108L118.823 41.2585L116.792 33.5055L118.638 25.3833Z" fill="#090814"/>
<path d="M99.8092 25.199H98.7017L95.9326 40.1509L98.5168 51.7805L101.101 47.5348L100.363 42.92L100.731 38.8589L102.023 36.459L99.8092 25.199Z" fill="#090814"/>
<path d="M108.486 15.4155L109.224 15.2309C109.224 15.2309 109.778 12.0919 111.07 12.4623C112.362 12.8326 115.685 13.2007 115.685 11.7239C115.685 10.247 112.546 8.95527 110.701 9.13945C108.856 9.32363 105.717 9.87787 105.901 12.6465C106.086 15.4152 107.277 18.1091 107.277 18.1091L107.374 16.4673L108.486 15.4155Z" fill="#090814"/>
<path d="M119.93 25.1987L114.023 22.799L112.639 21.7837L108.485 40.1508L105.717 31.844L106.547 21.2299L98.887 25.1987L101.471 37.7512L101.84 42.5507L100.733 46.4272C100.733 46.4272 96.8563 49.1958 98.1485 52.1496C99.4407 55.1034 100.917 55.2886 100.917 55.2886C100.917 55.2886 107.193 49.3815 107.563 47.9049C107.933 46.4282 108.486 43.8438 108.486 43.8438C108.486 43.8438 111.625 55.6579 115.316 55.4732C119.007 55.2885 119.008 51.4121 119.008 51.4121L118.085 47.351L116.608 43.1053L117.347 36.091L119.93 25.1987Z" fill="#090814"/>
</g>
</svg>
