<svg width="765" height="83" viewBox="0 0 765 83" fill="none" xmlns="http://www.w3.org/2000/svg">
<path d="M51.8762 60.664L53.8236 59.2576C56.2758 57.8151 58.0067 57.0939 59.0165 57.0939C61.2523 57.0939 63.6684 59.1133 66.2649 63.1522C67.8516 65.6766 68.6449 67.696 68.6449 69.2106C68.6449 70.7252 68.1401 71.9874 67.1304 72.9971C66.1927 74.0068 65.0748 74.9084 63.7766 75.7017C62.4784 76.4951 61.2162 77.2524 59.9901 77.9736C58.8361 78.6949 56.42 79.6325 52.7417 80.7864C49.0634 81.9404 45.4933 82.5174 42.0314 82.5174C38.6416 82.5174 35.1797 82.0847 31.6456 81.2192C28.1837 80.2816 24.5775 78.767 20.8271 76.6754C17.1488 74.5117 13.8311 71.9152 10.874 68.8861C7.91698 65.7848 5.46478 61.854 3.51745 57.0939C1.64224 52.2616 0.70463 47.0327 0.70463 41.407C0.70463 35.7814 1.64224 30.6967 3.51745 26.1529C5.39266 21.537 7.77273 17.7505 10.6577 14.7935C13.6147 11.7643 16.9685 9.23995 20.7189 7.22049C27.787 3.32583 34.8912 1.3785 42.0314 1.3785C45.4212 1.3785 48.847 1.91942 52.309 3.00127C55.843 4.011 58.5116 5.05679 60.3147 6.13864L62.9111 7.65323C64.2093 8.44659 65.2191 9.09571 65.9403 9.60057C67.8155 11.1152 68.7531 12.8461 68.7531 14.7935C68.7531 16.6687 67.9958 18.6521 66.4812 20.7436C63.6684 24.6383 61.1441 26.5856 58.9083 26.5856C57.61 26.5856 55.7709 25.7923 53.3908 24.2056C50.3616 21.7534 46.3227 20.5273 41.2741 20.5273C36.5861 20.5273 31.9702 22.1501 27.4264 25.3956C25.2627 26.9823 23.4596 29.2182 22.0171 32.1031C20.5746 34.988 19.8534 38.2696 19.8534 41.9479C19.8534 45.5541 20.5746 48.7997 22.0171 51.6846C23.4596 54.5696 25.2987 56.8414 27.5346 58.5003C31.9341 61.6737 36.5139 63.2604 41.2741 63.2604C43.5099 63.2604 45.6015 62.9719 47.5488 62.3949C49.5683 61.818 51.0108 61.241 51.8762 60.664ZM112.97 1.16212C123.644 1.16212 132.912 5.02073 140.773 12.7379C148.635 20.4552 152.565 30.0476 152.565 41.5152C152.565 52.9107 148.815 62.6474 141.314 70.7252C133.813 78.7309 124.581 82.7338 113.619 82.7338C102.656 82.7338 93.316 78.767 85.5987 70.8334C77.9537 62.8998 74.1311 53.4516 74.1311 42.4889C74.1311 36.5026 75.213 30.9131 77.3767 25.7202C79.5404 20.4552 82.4253 16.0556 86.0315 12.5216C89.6377 8.98752 93.7848 6.21076 98.4728 4.19131C103.161 2.17185 107.993 1.16212 112.97 1.16212ZM93.2799 41.9479C93.2799 48.3669 95.3354 53.5959 99.4465 57.6348C103.63 61.6016 108.282 63.585 113.402 63.585C118.523 63.585 123.139 61.6377 127.25 57.743C131.361 53.8483 133.417 48.6194 133.417 42.0561C133.417 35.4929 131.325 30.2279 127.142 26.2611C123.031 22.2943 118.415 20.3109 113.294 20.3109C108.173 20.3109 103.557 22.3304 99.4465 26.3693C95.3354 30.3361 93.2799 35.529 93.2799 41.9479ZM243.916 5.16497C244.493 6.24682 244.818 7.22049 244.89 8.08598C245.034 8.95146 245.106 10.2136 245.106 11.8725V71.9152C245.106 76.8918 243.736 79.8128 240.995 80.6783C239.625 81.111 237.894 81.3274 235.802 81.3274C233.711 81.3274 232.052 81.1471 230.826 80.7864C229.599 80.4258 228.662 79.9931 228.013 79.4882C227.364 78.9833 226.859 78.2621 226.498 77.3245C226.138 76.0984 225.957 74.2232 225.957 71.6989V35.4568C224.154 37.6927 221.522 41.2628 218.06 46.1672C214.598 50.9994 212.398 54.0286 211.46 55.2547C210.523 56.4808 209.874 57.3463 209.513 57.8512C209.152 58.2839 208.251 58.933 206.808 59.7985C205.438 60.5919 203.924 60.9885 202.265 60.9885C200.678 60.9885 199.199 60.6279 197.829 59.9067C196.531 59.1133 195.593 58.356 195.016 57.6348L194.151 56.4448C192.708 54.6417 189.859 50.8191 185.604 44.9771C181.349 39.063 179.041 35.8896 178.68 35.4568V71.9152C178.68 73.5741 178.608 74.8362 178.464 75.7017C178.392 76.4951 178.067 77.3966 177.49 78.4064C176.408 80.3537 173.596 81.3274 169.052 81.3274C164.652 81.3274 161.912 80.3537 160.83 78.4064C160.253 77.3966 159.892 76.459 159.748 75.5935C159.676 74.7281 159.64 73.4298 159.64 71.6989V11.6561C159.64 9.99725 159.676 8.77115 159.748 7.97779C159.892 7.11231 160.253 6.13864 160.83 5.05679C161.912 3.18158 164.724 2.24397 169.268 2.24397C171.216 2.24397 172.874 2.49641 174.245 3.00127C175.687 3.43401 176.625 3.90281 177.058 4.40768L177.707 5.05679L202.265 37.296C214.526 21.0682 222.712 10.3579 226.823 5.16497C228.049 3.21764 230.934 2.24397 235.478 2.24397C240.093 2.24397 242.906 3.21764 243.916 5.16497ZM253.773 11.6561C253.773 9.99725 253.81 8.77115 253.882 7.97779C254.026 7.11231 254.387 6.13864 254.964 5.05679C255.973 3.10946 258.786 2.13579 263.402 2.13579C268.451 2.13579 271.444 3.47007 272.381 6.13864C272.742 7.36474 272.922 9.23995 272.922 11.7643V71.9152C272.922 73.6462 272.85 74.9084 272.706 75.7017C272.634 76.4951 272.309 77.4327 271.732 78.5145C270.722 80.4619 267.91 81.4355 263.294 81.4355C258.245 81.4355 255.288 80.0652 254.423 77.3245C253.99 76.1705 253.773 74.3314 253.773 71.8071V11.6561ZM332.731 5.48953C333.452 4.19131 334.498 3.32583 335.868 2.89309C337.239 2.46034 338.934 2.24397 340.953 2.24397C343.045 2.24397 344.703 2.42428 345.93 2.7849C347.228 3.14551 348.165 3.57826 348.742 4.08312C349.391 4.58799 349.86 5.34529 350.149 6.35501C350.582 7.50899 350.798 9.34814 350.798 11.8725V71.9152C350.798 73.6462 350.726 74.9084 350.582 75.7017C350.509 76.4951 350.185 77.4327 349.608 78.5145C348.598 80.4619 345.785 81.4355 341.169 81.4355C338.357 81.4355 336.409 81.2192 335.327 80.7864C334.246 80.3537 333.344 79.6685 332.623 78.7309C316.395 57.0939 305.721 42.9577 300.6 36.3223V71.9152C300.6 73.6462 300.528 74.9084 300.384 75.7017C300.311 76.4951 299.987 77.4327 299.41 78.5145C298.4 80.4619 295.587 81.4355 290.971 81.4355C286.5 81.4355 283.759 80.4619 282.749 78.5145C282.172 77.4327 281.812 76.459 281.668 75.5935C281.595 74.7281 281.559 73.4659 281.559 71.8071V11.4397C281.559 8.69902 281.884 6.71563 282.533 5.48953C283.254 4.19131 284.3 3.32583 285.67 2.89309C287.041 2.46034 288.808 2.24397 290.971 2.24397C293.135 2.24397 294.83 2.46034 296.056 2.89309C297.354 3.2537 298.256 3.68644 298.761 4.19131C299.049 4.40768 299.879 5.34528 301.249 7.00412C316.467 27.7036 326.637 41.371 331.757 48.0063V11.4397C331.757 8.69902 332.082 6.71563 332.731 5.48953ZM400.75 33.6177H419.79C423.685 33.7619 426.065 34.7717 426.931 36.6469C427.652 38.0172 428.013 40.0367 428.013 42.7052V66.506C428.013 68.8139 427.003 71.0137 424.983 73.1053C418.925 79.38 409.837 82.5174 397.721 82.5174C386.974 82.5174 377.634 78.4785 369.701 70.4007C361.767 62.2507 357.8 52.4419 357.8 40.9743C357.8 29.5066 361.839 19.9503 369.917 12.3052C377.995 4.58798 387.515 0.729379 398.478 0.729379C406.989 0.729379 415.03 3.5422 422.603 9.16783C424.551 10.6103 425.524 12.2331 425.524 14.0362C425.524 15.7671 424.695 17.7866 423.036 20.0945C420.223 23.9171 417.663 25.8284 415.355 25.8284C413.985 25.8284 411.785 24.8547 408.756 22.9074C405.726 20.8879 402.12 19.8782 397.937 19.8782C392.456 19.8782 387.587 21.8255 383.332 25.7202C379.077 29.5427 376.949 34.5914 376.949 40.8661C376.949 47.0687 379.113 52.3698 383.44 56.7693C387.768 61.0967 392.672 63.2604 398.153 63.2604C402.12 63.2604 405.69 62.6113 408.864 61.3131V49.5209H400.317C398.081 49.5209 396.495 49.2324 395.557 48.6554C394.619 48.0784 394.006 47.249 393.718 46.1672C393.429 45.0132 393.285 43.4986 393.285 41.6234C393.285 39.6761 393.429 38.1254 393.718 36.9714C394.078 35.8175 394.691 35.0241 395.557 34.5914C396.855 33.9422 398.586 33.6177 400.75 33.6177ZM465.206 70.2925C463.331 67.9845 462.393 65.929 462.393 64.1259C462.393 62.2507 463.944 59.7985 467.045 56.7693C468.848 55.0384 470.76 54.1729 472.779 54.1729C474.799 54.1729 477.611 55.976 481.218 59.5821C482.227 60.8082 483.67 61.9983 485.545 63.1522C487.42 64.2341 489.151 64.775 490.738 64.775C497.445 64.775 500.799 62.0343 500.799 56.5529C500.799 54.8941 499.862 53.5238 497.986 52.4419C496.183 51.2879 493.911 50.4585 491.171 49.9537C488.43 49.4488 485.473 48.6554 482.3 47.5736C479.126 46.4196 476.169 45.0853 473.428 43.5707C470.688 42.0561 468.38 39.6761 466.504 36.4305C464.701 33.1128 463.8 29.146 463.8 24.5301C463.8 18.1833 466.144 12.6658 470.832 7.97779C475.592 3.21764 482.047 0.837563 490.197 0.837563C494.524 0.837563 498.455 1.41455 501.989 2.56853C505.595 3.65038 508.084 4.7683 509.454 5.92227L512.159 7.97779C514.394 10.0694 515.512 11.8364 515.512 13.2789C515.512 14.7213 514.647 16.7047 512.916 19.229C510.464 22.8352 507.939 24.6383 505.343 24.6383C503.828 24.6383 501.953 23.9171 499.717 22.4746C499.501 22.3304 499.068 21.9697 498.419 21.3928C497.842 20.8158 497.301 20.347 496.796 19.9863C495.282 19.0487 493.334 18.5799 490.954 18.5799C488.646 18.5799 486.699 19.1569 485.112 20.3109C483.598 21.3928 482.84 22.9434 482.84 24.9629C482.84 26.9102 483.742 28.4969 485.545 29.723C487.42 30.9491 489.728 31.7785 492.469 32.2113C495.21 32.644 498.203 33.3292 501.448 34.2668C504.694 35.1323 507.687 36.2141 510.428 37.5124C513.168 38.8106 515.44 41.0825 517.243 44.328C519.119 47.5015 520.056 51.4322 520.056 56.1202C520.056 60.8082 519.119 64.9553 517.243 68.5615C515.368 72.0956 512.916 74.8362 509.887 76.7836C504.045 80.6061 497.806 82.5174 491.171 82.5174C487.781 82.5174 484.571 82.1207 481.542 81.3274C478.513 80.4619 476.061 79.4161 474.186 78.19C470.363 75.882 467.695 73.6462 466.18 71.4825L465.206 70.2925ZM564.305 1.16212C574.979 1.16212 584.247 5.02073 592.108 12.7379C599.97 20.4552 603.901 30.0476 603.901 41.5152C603.901 52.9107 600.15 62.6474 592.649 70.7252C585.148 78.7309 575.917 82.7338 564.954 82.7338C553.991 82.7338 544.651 78.767 536.934 70.8334C529.289 62.8998 525.466 53.4516 525.466 42.4889C525.466 36.5026 526.548 30.9131 528.712 25.7202C530.875 20.4552 533.76 16.0556 537.367 12.5216C540.973 8.98752 545.12 6.21076 549.808 4.19131C554.496 2.17185 559.328 1.16212 564.305 1.16212ZM544.615 41.9479C544.615 48.3669 546.671 53.5959 550.782 57.6348C554.965 61.6016 559.617 63.585 564.737 63.585C569.858 63.585 574.474 61.6377 578.585 57.743C582.696 53.8483 584.752 48.6194 584.752 42.0561C584.752 35.4929 582.66 30.2279 578.477 26.2611C574.366 22.2943 569.75 20.3109 564.629 20.3109C559.509 20.3109 554.893 22.3304 550.782 26.3693C546.671 30.3361 544.615 35.529 544.615 41.9479ZM648.191 1.16212C658.865 1.16212 668.133 5.02073 675.994 12.7379C683.856 20.4552 687.786 30.0476 687.786 41.5152C687.786 52.9107 684.036 62.6474 676.535 70.7252C669.034 78.7309 659.802 82.7338 648.84 82.7338C637.877 82.7338 628.537 78.767 620.82 70.8334C613.175 62.8998 609.352 53.4516 609.352 42.4889C609.352 36.5026 610.434 30.9131 612.598 25.7202C614.761 20.4552 617.646 16.0556 621.252 12.5216C624.859 8.98752 629.006 6.21076 633.694 4.19131C638.382 2.17185 643.214 1.16212 648.191 1.16212ZM628.501 41.9479C628.501 48.3669 630.556 53.5959 634.667 57.6348C638.851 61.6016 643.502 63.585 648.623 63.585C653.744 63.585 658.36 61.6377 662.471 57.743C666.582 53.8483 668.638 48.6194 668.638 42.0561C668.638 35.4929 666.546 30.2279 662.363 26.2611C658.252 22.2943 653.636 20.3109 648.515 20.3109C643.394 20.3109 638.778 22.3304 634.667 26.3693C630.556 30.3361 628.501 35.529 628.501 41.9479ZM746.032 5.48953C746.753 4.19131 747.799 3.32583 749.17 2.89309C750.54 2.46034 752.235 2.24397 754.254 2.24397C756.346 2.24397 758.005 2.42428 759.231 2.7849C760.529 3.14551 761.467 3.57826 762.044 4.08312C762.693 4.58799 763.162 5.34529 763.45 6.35501C763.883 7.50899 764.099 9.34814 764.099 11.8725V71.9152C764.099 73.6462 764.027 74.9084 763.883 75.7017C763.811 76.4951 763.486 77.4327 762.909 78.5145C761.899 80.4619 759.087 81.4355 754.471 81.4355C751.658 81.4355 749.711 81.2192 748.629 80.7864C747.547 80.3537 746.645 79.6685 745.924 78.7309C729.696 57.0939 719.022 42.9577 713.901 36.3223V71.9152C713.901 73.6462 713.829 74.9084 713.685 75.7017C713.613 76.4951 713.288 77.4327 712.711 78.5145C711.701 80.4619 708.889 81.4355 704.273 81.4355C699.801 81.4355 697.06 80.4619 696.051 78.5145C695.474 77.4327 695.113 76.459 694.969 75.5935C694.897 74.7281 694.861 73.4659 694.861 71.8071V11.4397C694.861 8.69902 695.185 6.71563 695.834 5.48953C696.556 4.19131 697.601 3.32583 698.972 2.89309C700.342 2.46034 702.109 2.24397 704.273 2.24397C706.436 2.24397 708.131 2.46034 709.357 2.89309C710.656 3.2537 711.557 3.68644 712.062 4.19131C712.351 4.40768 713.18 5.34528 714.55 7.00412C729.768 27.7036 739.938 41.371 745.059 48.0063V11.4397C745.059 8.69902 745.383 6.71563 746.032 5.48953Z" fill="#75CBD8" fill-opacity="0.85"/>
</svg>
