<svg width="779" height="386" viewBox="0 0 779 386" fill="none" xmlns="http://www.w3.org/2000/svg">
<path d="M113.311 191.479C110.769 191.163 108.317 190.301 106.036 188.899C98.6519 184.361 93.6992 174.769 89.9761 157.804C88.2622 149.988 83.2546 140.575 83.2065 140.479L99.8505 131.55C100.105 132.027 106.139 143.337 108.427 153.754C109.718 159.649 110.408 122.446 113.592 118.928C115.543 116.77 123.412 120.319 123.412 120.319C124.672 125.094 127.805 134.958 129.652 149.834C130.772 158.842 131.236 166.232 131.036 171.797C130.896 175.724 130.425 178.881 129.601 181.451C127.427 188.233 122.876 190.335 120.358 190.984C117.975 191.599 115.605 191.761 113.314 191.479H113.311Z" fill="#FFB27D"/>
<path d="M115.801 189.634C114.386 189.634 113.132 189.256 112.524 188.648C112.274 188.401 112.143 188.119 112.143 187.827C112.143 187.308 112.548 186.834 113.287 186.494C113.963 186.182 114.863 186.006 115.811 186.003H115.832C117.882 186.003 119.49 186.797 119.493 187.813C119.493 188.332 119.088 188.806 118.349 189.146C117.673 189.459 116.773 189.634 115.822 189.638H115.801V189.634ZM115.832 186.498H115.811C114.932 186.498 114.104 186.652 113.489 186.941C112.943 187.188 112.631 187.515 112.631 187.827C112.631 187.989 112.71 188.147 112.868 188.305C113.38 188.817 114.53 189.143 115.801 189.146C115.808 189.146 115.815 189.146 115.822 189.143C116.704 189.143 117.528 188.988 118.147 188.7C118.693 188.452 119.005 188.126 119.005 187.813C119.005 187.192 117.704 186.501 115.835 186.501L115.832 186.498Z" fill="#E9845C"/>
<path d="M106.521 172.828C106.4 172.828 106.29 172.742 106.277 172.615C106.263 172.512 104.999 162.123 108.856 153.984C108.911 153.864 109.066 153.819 109.182 153.867C109.306 153.926 109.358 154.07 109.299 154.197C105.504 162.209 106.751 172.453 106.764 172.556C106.782 172.687 106.685 172.814 106.551 172.828H106.521Z" fill="#E9845C"/>
<path d="M59.2779 112.672C59.2779 112.672 60.3185 108.879 55.8639 107.59C51.4093 106.306 54.4626 116.526 43.3895 115.427C32.313 114.328 36.0498 118.996 32.4847 122.391C28.9196 125.785 13.306 117.976 7.70424 131.388C2.10245 144.801 11.9459 154.65 31.2964 155.327C50.6468 156.007 43.0048 166.692 59.3878 160.755C75.7673 154.819 68.5169 128.716 63.9111 124.62C59.3053 120.522 59.2813 112.672 59.2813 112.672H59.2779Z" fill="#764678"/>
<path d="M74.4417 361.81C74.4417 361.81 74.5894 367.77 78.6216 369.45C82.6538 371.13 94.3348 372.649 89.9694 376.479C87.4656 378.678 75.661 377.256 72.326 377.256C68.9944 377.256 65.8656 378.709 63.3858 376.476C60.6622 374.02 63.3858 361.803 63.3858 361.803C63.3858 361.803 66.2605 363.301 68.8468 363.235C72.5733 363.139 74.4348 361.803 74.4348 361.803L74.4417 361.81Z" fill="#331832"/>
<path d="M28.1365 361.81C28.1365 361.81 28.2842 367.77 32.3164 369.45C36.3486 371.13 48.0296 372.649 43.6643 376.479C41.1604 378.678 29.3558 377.256 26.0208 377.256C22.6893 377.256 19.5604 378.709 17.0806 376.476C14.357 374.02 17.0806 361.803 17.0806 361.803C17.0806 361.803 19.9554 363.301 22.5416 363.235C26.2681 363.139 28.1297 361.803 28.1297 361.803L28.1365 361.81Z" fill="#331832"/>
<path d="M104.408 198.419C104.408 198.419 104.12 225.89 101.911 274.358C100.18 312.359 100.534 347.573 97.2061 364.263C96.0143 370.234 51.9692 367.19 52.4398 360.618L62.8672 243.222L64.8592 206.053L104.408 198.416V198.419Z" fill="#EF8062"/>
<path d="M31.585 220.375C31.9525 223.412 49.1185 223.041 70.1347 220.382C91.1509 217.72 107.51 213.168 107.142 210.131C106.775 207.094 89.8217 206.726 68.8055 209.385C47.7893 212.048 31.2209 217.338 31.585 220.375Z" fill="#331832"/>
<path d="M80.2772 216.239L41.1608 364.228C39.2821 370.264 2.17487 369.453 3.33576 363.046L33.6871 223.076C34.0443 221.465 35.2327 220.187 36.7851 219.737C45.1998 217.308 81.1049 210.275 80.2806 216.239H80.2772Z" fill="#EF8062"/>
<path d="M39.6427 134.783C39.6427 134.783 43.6336 121.357 64.9006 122.123C76.5678 122.542 88.8464 119.254 94.3143 137.548C99.607 155.259 105.35 183.011 107.142 210.131C107.142 210.131 72.3193 202.494 31.5233 220.31C31.5233 220.31 30.3006 159.271 39.6427 134.783Z" fill="#71A99E"/>
<path d="M24.4927 132.807L37.8257 143.76C37.8257 143.76 88.1011 156.568 95.4373 149.126C100.472 144.018 103.165 136.734 101.451 132.959C101.451 132.959 87.6511 120.309 65.8416 121.336C62.6817 121.484 60.5592 121.577 57.4509 121.401C39.6426 120.398 24.4927 132.811 24.4927 132.811V132.807Z" fill="#71A99E"/>
<path d="M57.9386 302.227L57.2036 302.052L69.1491 251.13C71.3884 244.321 75.9736 238.666 82.0665 235.179L82.4409 235.832C76.5094 239.233 72.0444 244.737 69.8703 251.337L57.9352 302.23L57.9386 302.227Z" fill="#020202"/>
<path d="M56.3893 121.456C58.7249 121.206 60.7547 119.739 61.6855 117.581L64.598 110.817L65.4429 108.855L70.4127 97.3115L69.5506 109.274L69.032 116.454L68.8843 118.502C68.7641 120.172 69.9319 121.649 71.5771 121.948L71.6045 121.955C72.4872 123.394 73.7099 126.318 70.0624 127.479C65.776 128.843 58.8416 125.469 56.3516 121.467C56.3653 121.467 56.3756 121.467 56.3893 121.463V121.456Z" fill="#FFB27D"/>
<path d="M65.2061 110.332C65.4911 114.19 69.0047 116.479 69.0047 116.479L69.0288 116.458L69.5474 109.278C68.2869 108.814 65.1992 110.267 65.2061 110.336V110.332Z" fill="#331832"/>
<path d="M74.1246 111.643C79.977 109.575 82.6547 102.046 80.1054 94.8251C77.5562 87.6043 70.7454 83.4265 64.893 85.4937C59.0407 87.561 56.363 95.0905 58.9122 102.311C61.4614 109.532 68.2723 113.71 74.1246 111.643Z" fill="#FFB27D"/>
<path d="M70.5846 98.3145C70.6498 98.2699 70.691 98.1977 70.6945 98.1153C70.7013 97.9744 70.5914 97.8542 70.4506 97.8508C70.3682 97.8473 68.4517 97.5862 67.5759 99.6475C67.5209 99.7781 67.5759 99.9292 67.7064 99.9842C67.8369 100.043 67.9606 99.9705 68.043 99.8536C68.8879 98.7199 70.3613 98.3558 70.43 98.3592C70.4884 98.3592 70.5399 98.3455 70.5846 98.3145Z" fill="#080435"/>
<path d="M69.6126 101.64C69.7981 102.221 70.2893 102.585 70.7117 102.451C71.1342 102.317 71.3265 101.737 71.141 101.156C70.9556 100.575 70.4644 100.211 70.042 100.345C69.6195 100.479 69.4272 101.06 69.6126 101.64Z" fill="#080435"/>
<path d="M79.6312 96.5349C79.7068 96.5178 79.7755 96.4662 79.8098 96.3906C79.8682 96.2635 79.8133 96.1124 79.6862 96.0505C79.6106 96.0162 77.938 95.0439 76.3443 96.6174C76.2447 96.717 76.2379 96.875 76.334 96.9781C76.4302 97.0812 76.5745 97.0606 76.6947 96.9884C77.9071 96.2601 79.408 96.4868 79.4698 96.5143C79.5213 96.5384 79.5797 96.5418 79.6312 96.5315V96.5349Z" fill="#080435"/>
<path d="M77.4674 99.2355C77.4159 99.8436 77.7319 100.366 78.1749 100.404C78.6146 100.441 79.013 99.9776 79.0645 99.3695C79.116 98.7614 78.8 98.2392 78.357 98.2014C77.9173 98.1636 77.5189 98.6274 77.4674 99.2355Z" fill="#080435"/>
<path d="M48.4834 217.084C48.4834 217.084 90.4265 209.069 104.027 212.852L97.5051 222.519L73.2605 223.89L48.48 217.084H48.4834Z" fill="#EF8062"/>
<path d="M62.3039 91.7114C63.5198 93.9445 69.204 93.8243 73.1435 92.6596C78.0583 91.2098 79.8546 97.4728 80.7888 94.5664C81.723 91.6599 81.383 83.4421 75.7675 80.3433C70.1519 77.2444 57.1898 80.7315 56.3758 85.1599C55.1772 91.6839 61.2633 89.7978 62.3039 91.708V91.7114Z" fill="#764678"/>
<path d="M57.0419 87.7195C57.0419 87.7195 60.528 87.3863 60.8921 88.8704C61.2561 90.3545 64.4709 92.2647 62.6643 93.9172C60.8611 95.5731 60.5486 96.2946 61.1153 97.8749C61.5103 98.9777 60.4387 102.101 60.5314 104.564C60.5692 105.636 61.8675 107.477 61.8675 107.477C61.8675 107.477 52.8071 107.604 50.9902 97.8509C49.8087 91.5055 54.7236 87.6199 57.0385 87.7195H57.0419Z" fill="#764678"/>
<path d="M59.8137 104.196C61.4177 104.918 63.1384 104.444 63.6536 103.135C64.1688 101.826 63.2861 100.18 61.6821 99.4588C60.0782 98.7373 58.3574 99.2114 57.8423 100.52C57.3271 101.829 58.2098 103.475 59.8137 104.196Z" fill="#FFB27D"/>
<path d="M47.0853 147.113C46.0549 148.738 40.1646 146.852 33.9274 142.904C27.6902 138.953 23.4657 134.432 24.4927 132.807C25.523 131.182 31.4133 133.068 37.6505 137.016C43.8877 140.966 48.1123 145.488 47.0853 147.113Z" fill="#080435"/>
<path d="M29.4487 193.692C29.4487 193.692 36.493 187.243 42.0502 187.814C47.6107 188.384 54.2807 193.314 50.7602 193.695C47.2398 194.073 42.6066 193.317 42.6066 193.317C42.6066 193.317 52.4295 195.403 50.9457 197.491C49.462 199.577 40.9374 197.68 40.9374 197.68C40.9374 197.68 52.426 201.095 50.3893 202.614C48.3492 204.132 39.6391 201.477 39.6391 201.477C39.6391 201.477 50.2038 205.081 47.7928 206.788C45.3851 208.495 39.0827 203.754 37.5989 205.84C36.1152 207.925 33.3366 216.081 27.0342 212.666L29.4453 193.699L29.4487 193.692Z" fill="#FFB27D"/>
<path d="M42.6066 193.517C42.5826 193.517 42.5586 193.517 42.5345 193.506C42.5139 193.496 39.9242 192.544 38.595 193.482C38.4989 193.544 38.3718 193.52 38.3065 193.434C38.2413 193.338 38.2619 193.211 38.3546 193.142C39.8521 192.087 42.562 193.073 42.6788 193.118C42.7852 193.156 42.8402 193.28 42.799 193.386C42.7681 193.468 42.6856 193.517 42.6032 193.517H42.6066Z" fill="#E9845C"/>
<path d="M36.0054 197.879C35.9264 197.879 35.8509 197.835 35.8165 197.759C35.7719 197.656 35.8165 197.536 35.923 197.488C38.2997 196.436 40.9031 197.443 41.013 197.488C41.1195 197.525 41.171 197.649 41.1298 197.756C41.0886 197.852 40.9718 197.91 40.8619 197.869C40.8344 197.865 38.31 196.876 36.0878 197.869C36.0604 197.879 36.0329 197.883 36.0054 197.883V197.879Z" fill="#E9845C"/>
<path d="M39.6424 201.673C39.6183 201.673 39.5943 201.673 39.5703 201.662C39.5428 201.649 36.4585 200.508 35.1431 201.625C35.0572 201.707 34.9301 201.693 34.8512 201.6C34.779 201.515 34.7893 201.387 34.8752 201.312C36.383 200.037 39.5771 201.219 39.7145 201.274C39.821 201.319 39.8759 201.436 39.8347 201.542C39.8072 201.625 39.7248 201.673 39.6424 201.673Z" fill="#E9845C"/>
<path d="M125.188 132.488C125.188 132.488 135.303 133.347 139.259 129.403C143.219 125.456 145.29 117.423 142.319 119.347C139.345 121.271 136.226 124.782 136.226 124.782C136.226 124.782 142.539 116.97 140.073 116.286C137.607 115.599 132.184 122.446 132.184 122.446C132.184 122.446 138.954 112.552 136.415 112.658C133.877 112.765 128.787 120.316 128.787 120.316C128.787 120.316 134.719 110.858 131.772 111.054C128.825 111.246 126.919 118.901 124.456 118.217C121.99 117.53 112.411 115.176 112.411 122.092L125.188 132.488Z" fill="#FFB27D"/>
<path d="M133.018 127.592C132.912 127.592 132.819 127.509 132.812 127.403C132.806 127.286 132.891 127.19 133.005 127.183C134.622 127.07 136.034 124.699 136.048 124.679C136.106 124.572 136.226 124.538 136.329 124.6C136.426 124.658 136.46 124.785 136.402 124.881C136.34 124.988 134.866 127.468 133.032 127.592H133.018Z" fill="#E9845C"/>
<path d="M128.351 125.758C128.262 125.758 128.176 125.699 128.152 125.607C128.124 125.493 128.19 125.383 128.296 125.352C130.638 124.72 131.988 122.367 132.002 122.343C132.06 122.24 132.177 122.202 132.284 122.264C132.38 122.322 132.418 122.442 132.363 122.546C132.304 122.649 130.917 125.074 128.406 125.751C128.389 125.754 128.368 125.754 128.351 125.754V125.758Z" fill="#E9845C"/>
<path d="M125.219 123.446C125.085 123.446 124.978 123.363 124.982 123.233C124.982 123.119 125.078 123.033 125.188 123.033H125.219C126.932 123.033 128.591 120.237 128.608 120.213C128.667 120.106 128.787 120.072 128.89 120.134C128.986 120.192 129.021 120.319 128.962 120.415C128.89 120.543 127.169 123.446 125.219 123.446Z" fill="#E9845C"/>
<path d="M27.0411 212.659C17.4415 208.98 3.24291 199.845 0.539892 185.642C-1.54146 174.717 2.40144 162.264 12.2587 148.631C18.9355 139.397 26.495 134.295 26.7938 134.02C26.7938 134.02 29.6823 133.343 35.9916 137.16C43.5992 141.76 44.7498 146.051 44.7498 146.051C37.4616 152.775 19.9624 166.658 20.591 177.325C20.9585 183.564 25.0731 189.366 32.0693 192.046L27.0411 212.656V212.659Z" fill="#FFB27D"/>
<path d="M75.0222 107.099C75.0222 107.779 74.6032 108.329 74.088 108.329C73.5728 108.329 73.1538 107.779 73.1538 107.099C73.1538 106.419 73.5728 105.869 74.088 105.869C74.6032 105.869 75.0222 106.419 75.0222 107.099Z" fill="white"/>
<path d="M419.596 370.188L424.209 371.339L423.92 299.547L420.372 301.388L419.596 370.188Z" fill="#331832"/>
<path d="M405.971 373.658C405.971 373.658 430.388 374.098 438.528 374.16C439.427 374.167 440.073 372.93 440.073 372.03C440.073 371.129 438.761 370.061 437.861 370.068C429.89 370.109 405.971 370.401 405.971 370.401C405.071 370.401 404.343 371.129 404.343 372.03C404.343 372.93 405.071 373.658 405.971 373.658Z" fill="#331832"/>
<path d="M438.902 376.578C438.603 374.792 437.04 373.655 435.23 373.655C433.42 373.655 431.559 374.85 431.559 376.661C431.559 378.915 433.839 380.502 435.649 380.502C437.459 380.502 439.28 378.832 438.905 376.578H438.902Z" fill="#331832"/>
<path d="M412.858 376.578C412.559 374.792 410.996 373.655 409.186 373.655C407.376 373.655 405.515 374.85 405.515 376.661C405.515 378.915 407.795 380.502 409.605 380.502C411.415 380.502 413.236 378.832 412.861 376.578H412.858Z" fill="#331832"/>
<path d="M432.407 305.521C432.407 305.521 433.283 311.345 424.267 313.224C415.251 315.103 411.37 305.521 411.37 305.521H432.407Z" fill="#331832"/>
<path d="M404.35 294.273C404.254 283.369 404.735 236.477 419.988 232.389C437.257 227.762 457.923 220.08 465.904 234.547C471.128 244.015 462.576 260.966 458.647 277.01C456.593 285.403 450.167 306.487 441.862 307.225C437.442 307.617 384.893 309.321 384.893 307.225C384.893 293.463 396.667 296.5 404.35 294.273Z" fill="#EF8062"/>
<path d="M380.785 202.957C380.785 202.957 358.639 233.42 357.88 241.72C357.121 250.02 354.301 255.538 370.262 249.594C381.75 245.317 393.957 218.743 393.957 218.743L389.004 208.691L380.785 202.957Z" fill="#FFB27D"/>
<path d="M341.635 363.307C341.635 363.307 341.566 368.773 337.85 370.36C334.134 371.948 323.325 373.48 327.416 376.94C329.761 378.925 340.687 377.482 343.774 377.445C346.862 377.407 349.781 378.698 352.048 376.627C354.545 374.346 351.873 363.177 351.873 363.177C351.873 363.177 349.225 364.585 346.828 364.554C343.373 364.51 341.631 363.307 341.631 363.307H341.635Z" fill="#331832"/>
<path d="M308.604 362.428C308.604 362.428 308.546 367.893 304.833 369.488C301.12 371.082 290.315 372.631 294.413 376.084C296.762 378.066 307.684 376.606 310.772 376.561C313.859 376.517 316.779 377.805 319.045 375.726C321.535 373.438 318.846 362.276 318.846 362.276C318.846 362.276 316.202 363.688 313.804 363.661C310.349 363.623 308.608 362.424 308.608 362.424L308.604 362.428Z" fill="#331832"/>
<path d="M311.462 364.757C305.084 364.038 300.399 358.48 300.839 352.141C303.329 316.329 306.695 298.293 318.925 283.369C326.78 273.78 338.255 264.683 352.014 259.712C363.877 255.424 373.872 253.614 386.84 253.968C407.991 254.545 417.635 258.489 417.635 258.489C430.597 292.336 405.483 294.538 387.105 293.868C386.497 293.847 385.889 293.827 385.274 293.813C374.136 293.559 354.191 294.665 345.787 304.92C339.131 313.041 333.979 324.805 329.531 355.896C328.676 361.864 323.191 366.079 317.139 365.396L311.462 364.757Z" fill="#764678"/>
<path d="M341.789 369.21C335.411 368.491 330.727 362.933 331.166 356.594C333.656 320.782 337.022 302.746 349.253 287.822C357.108 278.233 368.26 271.441 382.393 267.635C392.48 264.917 404.172 263.718 417.141 264.072C438.291 264.649 441.564 258.768 441.564 258.768C454.969 301.825 399.844 291.852 382.084 308.195C374.346 315.316 364.31 329.258 359.859 360.349C359.004 366.317 353.519 370.532 347.467 369.849L341.789 369.21Z" fill="#764678"/>
<path d="M449.278 202.037C449.278 202.037 435.9 185.254 413.692 186.432C391.484 187.611 382.207 217.139 369.798 254.975C369.798 254.975 369.778 258.977 388.462 264.013C400.596 267.284 413.713 263.859 437.992 279.666C443.71 283.39 454.832 279.044 455.209 272.279C455.962 258.809 458.668 232.846 449.278 202.04V202.037Z" fill="#92A5E6"/>
<path d="M461.907 204.96L442.392 211.079C442.392 211.079 401.987 215.758 391.216 214.05C380.446 212.343 377.368 203.916 377.368 203.916C377.368 203.916 388.616 190.984 408.008 187.236C409.832 186.882 411.721 186.611 413.685 186.439C416.979 186.15 420.149 185.852 423.381 186.188C454.979 189.466 461.903 204.963 461.903 204.963L461.907 204.96Z" fill="#92A5E6"/>
<path d="M461.907 204.96C462.951 207.262 458.379 209.423 452.774 211.478C447.169 213.532 442.172 213.948 441.612 212.402C441.052 210.856 445.139 207.939 450.744 205.884C456.35 203.83 461.23 203.462 461.907 204.96Z" fill="#331832"/>
<path d="M417.694 183.471L414.348 177.634L413.376 175.933L407.651 165.943L409.564 176.7L410.715 183.155L411.079 185.199C411.326 186.587 410.543 187.058 409.777 188.477C409.468 189.05 407.441 192.565 410.769 193.235C414.912 194.07 421.424 190.04 423.385 186.182C423.364 186.182 418.772 185.357 417.694 183.471Z" fill="#FFB27D"/>
<path d="M398.127 163.789C398.127 163.789 398.017 166.53 399.418 169.636C400.823 172.742 402.396 164.022 402.396 164.022L398.124 163.789H398.127Z" fill="#5C305D"/>
<path d="M410.114 181.514C415.535 181.025 419.455 175.386 418.871 168.919C418.288 162.453 413.42 157.607 408 158.097C402.58 158.587 398.66 164.226 399.244 170.692C399.827 177.159 404.694 182.004 410.114 181.514Z" fill="#FFB27D"/>
<path d="M418.377 165.668L413.613 166.197C412.566 166.314 411.508 165.97 410.762 165.232C409.481 163.96 408.166 163.449 403.856 164.551C398.398 165.946 394.046 163.486 392.82 160.765C391.57 157.989 393.95 155.406 397.021 156.196C400.091 156.986 398.154 153.839 400.73 152.905C405.549 151.156 407.318 154.743 411.357 153.74C416.653 152.424 427.09 154.365 424.614 164.634L418.377 165.664V165.668Z" fill="#331832"/>
<path d="M408.434 169.461C408.376 169.44 408.331 169.395 408.311 169.334C408.28 169.23 408.338 169.121 408.441 169.086C408.503 169.069 409.901 168.495 410.969 169.866C411.038 169.952 411.024 170.076 410.938 170.144C410.852 170.213 410.742 170.182 410.656 170.113C409.794 169.43 408.609 169.447 408.558 169.464C408.513 169.478 408.472 169.474 408.431 169.464L408.434 169.461Z" fill="#080435"/>
<path d="M409.828 171.756C409.804 172.226 409.506 172.594 409.159 172.577C408.812 172.56 408.554 172.164 408.578 171.694C408.602 171.223 408.901 170.855 409.248 170.873C409.595 170.89 409.852 171.285 409.828 171.756Z" fill="#080435"/>
<path d="M401.087 170.45C401.039 170.45 400.995 170.426 400.96 170.378C400.905 170.292 400.912 170.169 400.977 170.1C401.015 170.059 401.833 169.014 403.018 169.894C403.093 169.949 403.121 170.069 403.083 170.162C403.042 170.258 402.956 170.268 402.873 170.237C402.049 169.921 401.211 170.375 401.18 170.406C401.153 170.433 401.122 170.447 401.091 170.45H401.087Z" fill="#080435"/>
<path d="M403.306 172.044C403.464 172.487 403.33 172.941 403.004 173.054C402.677 173.168 402.286 172.9 402.124 172.456C401.966 172.013 402.1 171.56 402.427 171.446C402.753 171.333 403.144 171.601 403.306 172.044Z" fill="#080435"/>
<path d="M424.618 164.637C424.618 164.637 422.917 172.202 418.466 173.697C418.466 173.697 420.998 167.664 412.518 166.156C412.518 166.156 419.411 163.5 424.618 164.641V164.637Z" fill="#5C305D"/>
<path d="M419.023 169.821C418.181 170.646 416.897 170.715 416.151 169.972C415.406 169.23 415.482 167.959 416.323 167.131C417.165 166.307 418.449 166.238 419.194 166.98C419.94 167.722 419.864 168.993 419.023 169.821Z" fill="#FFB27D"/>
<path d="M412.517 166.153C412.517 166.153 414.413 171.783 413.469 173.13C412.524 174.477 404.797 176.641 400.833 176.033C401.592 179.75 404.951 182.447 408.777 182.262C410.045 182.2 411.305 181.929 412.514 181.441C414.973 180.444 417.23 178.861 417.765 176.284C417.927 175.501 416.024 171.306 416.024 171.306C416.024 171.306 415.104 168.801 416.323 167.132C416.323 167.132 414.228 165.953 412.517 166.153Z" fill="#5C305D"/>
<path d="M403.224 177.695C403.224 177.695 406.401 177.85 409.612 176.826C409.612 176.826 409.794 179.935 406.346 180.052C404.34 180.121 403.227 177.695 403.227 177.695H403.224Z" fill="white"/>
<path d="M397.433 155.633L397.385 155.372C398.669 155.135 398.553 154.107 398.546 154.07L398.814 154.032C398.814 154.032 398.965 155.354 397.436 155.636L397.433 155.633Z" fill="#331832"/>
<path d="M401.96 163.366C401.699 163.345 395.571 162.906 394.64 159.882C394.373 159.013 394.397 158.384 394.713 157.962C395.149 157.378 396.055 157.309 396.945 157.309C397.234 157.309 397.519 157.312 397.783 157.312H397.824V157.45H397.783C397.522 157.45 397.234 157.44 396.948 157.44C396.09 157.44 395.221 157.508 394.822 158.044C394.534 158.429 394.517 159.017 394.768 159.844C395.671 162.778 401.905 163.225 401.97 163.228L401.96 163.366Z" fill="white"/>
<path d="M409.715 155.09C406.579 155.09 404.742 153.712 404.718 153.695L404.8 153.588C404.838 153.616 408.293 156.21 413.84 154.196L413.885 154.324C412.325 154.887 410.924 155.093 409.719 155.093L409.715 155.09Z" fill="white"/>
<path d="M332.784 336.458C332.784 336.321 332.804 322.654 337.936 307.971C340.951 299.347 345.117 292.061 350.314 286.327C356.815 279.147 364.955 274.381 374.517 272.159L374.572 272.392C365.065 274.605 356.963 279.346 350.496 286.481C345.32 292.195 341.171 299.454 338.169 308.046C333.048 322.685 333.028 336.317 333.031 336.455H332.787L332.784 336.458Z" fill="#020202"/>
<path d="M594.513 369.831L600.056 370.958L599.709 300.578L595.443 302.385L594.513 369.831Z" fill="#331832"/>
<path d="M578.133 373.744C578.133 373.744 607.481 374.27 617.267 374.345C618.348 374.352 619.121 372.868 619.121 371.786C619.121 370.704 617.541 369.422 616.463 369.426C606.88 369.477 578.133 369.828 578.133 369.828C577.051 369.828 576.175 370.704 576.175 371.786C576.175 372.868 577.051 373.744 578.133 373.744Z" fill="#331832"/>
<path d="M617.72 377.259C617.363 375.112 615.481 373.748 613.306 373.748C611.132 373.748 608.893 375.184 608.893 377.362C608.893 380.073 611.634 381.98 613.808 381.98C615.982 381.98 618.173 379.973 617.72 377.263V377.259Z" fill="#331832"/>
<path d="M586.414 377.259C586.057 375.112 584.174 373.748 582 373.748C579.826 373.748 577.587 375.184 577.587 377.362C577.587 380.073 580.328 381.98 582.502 381.98C584.676 381.98 586.867 379.973 586.414 377.263V377.259Z" fill="#331832"/>
<path d="M612.011 306.487C612.011 306.487 613.323 314.124 599.839 316.587C586.355 319.051 580.551 306.487 580.551 306.487H612.011Z" fill="#331832"/>
<path d="M559.717 309.459C566.486 312.544 625.035 310.146 630.321 309.572C630.435 309.572 630.551 309.545 630.665 309.545C634.522 308.975 637.204 305.374 636.806 301.516C636.15 295.432 633.206 277.928 633.766 263.553C634.584 242.586 640.268 222.001 631.07 221.228C630.095 221.149 619.125 221.132 619.125 248.482C619.125 262.894 616.363 278.845 617.019 284.929C617.418 288.815 573.228 298.799 554.149 297.998C550.007 301.169 549.98 305.027 559.72 309.456L559.717 309.459Z" fill="#EF8062"/>
<path d="M504.612 367.849C504.612 367.849 504.702 373.222 501.137 374.885C497.571 376.551 487.11 378.358 491.183 381.642C493.522 383.529 504.094 381.804 507.096 381.677C510.097 381.55 512.969 382.742 515.115 380.639C517.475 378.327 514.562 367.43 514.562 367.43C514.562 367.43 512.031 368.886 509.699 368.924C506.34 368.979 504.616 367.845 504.616 367.845L504.612 367.849Z" fill="#331832"/>
<path d="M519.429 367.849C519.429 367.849 519.519 373.222 515.953 374.885C512.388 376.551 501.927 378.358 506 381.642C508.339 383.529 518.911 381.804 521.912 381.677C524.914 381.55 527.786 382.742 529.929 380.639C532.288 378.327 529.376 367.43 529.376 367.43C529.376 367.43 526.844 368.886 524.512 368.924C521.153 368.979 519.429 367.845 519.429 367.845V367.849Z" fill="#572D58"/>
<path d="M507.597 289.344C512.464 267.7 566.218 262.042 578.813 261.303C599.348 260.101 615.254 269.016 615.254 269.016C625.839 306.49 586.077 300.578 550.117 300.578C544.271 300.578 532.288 302.419 528.795 306.49C528.795 306.49 504.867 301.492 507.6 289.34L507.597 289.344Z" fill="#366F90"/>
<path d="M532.755 334.026C527.978 350.225 522.07 369.67 515.246 371.109C501.964 373.916 497.334 364.249 499.57 348.95C500.402 343.264 504.99 315.797 507.202 306.487C510.101 294.281 536.272 322.112 532.759 334.026H532.755Z" fill="#366F90"/>
<path d="M538.395 300.578C533.398 302.014 541.771 363.723 531.193 369.608C519.33 376.211 512.055 368.34 509.675 353.063C507.632 339.939 503.146 295.03 508.504 287.444C516.895 275.567 525.828 279.295 530.461 276.639C540.538 270.864 548.081 297.795 538.395 300.575V300.578Z" fill="#366F90"/>
<path d="M604.314 195.062C598.781 188.288 586.881 181.791 576.34 186.522C561.406 193.224 555.183 230.071 553.414 260.015C553.414 260.015 576.828 282.562 616.332 286.874C622.408 287.537 619.523 268.146 618.087 257.922C614.921 235.396 615.649 208.942 604.311 195.066L604.314 195.062Z" fill="#73A0D1"/>
<path d="M575.368 188.823C577.968 189.081 586.173 185.017 586.173 185.017C584.916 184.416 583.766 182.509 583.309 181.423L581.169 176.081L580.427 174.281L576.144 163.655L576.601 174.539L576.886 181.052L576.972 183.138C577.03 184.536 576.137 186.12 575.224 187.436C575.052 187.635 574.417 188.834 575.371 188.823H575.368Z" fill="#FFB27D"/>
<path d="M576.886 181.062C576.886 181.062 580.565 180.049 581.832 177.74L576.45 179.386L576.886 181.062Z" fill="#331832"/>
<path d="M567.118 160.298C567.118 160.298 566.651 162.992 567.616 166.242C568.581 169.492 571.264 161.082 571.264 161.082L567.122 160.298H567.118Z" fill="#5C305D"/>
<path d="M586.702 168.14C587.005 161.677 582.908 156.233 577.549 155.982C572.191 155.73 567.601 160.765 567.297 167.228C566.994 173.691 571.091 179.134 576.45 179.386C581.808 179.638 586.398 174.603 586.702 168.14Z" fill="#FFB27D"/>
<path d="M586.661 164.778L581.935 164.685C580.894 164.665 579.909 164.191 579.277 163.363C578.191 161.94 576.972 161.267 572.614 161.796C567.098 162.466 563.165 159.474 562.327 156.629C561.468 153.723 564.134 151.483 567.032 152.661C569.931 153.836 568.447 150.479 571.089 149.889C576.028 148.786 577.285 152.558 581.361 152.091C586.709 151.476 596.656 154.746 592.891 164.572L586.661 164.782V164.778Z" fill="#331832"/>
<path d="M576.447 167.238C576.395 167.21 576.354 167.159 576.344 167.097C576.327 166.99 576.399 166.887 576.505 166.87C576.567 166.86 578.01 166.475 578.875 167.97C578.93 168.062 578.903 168.183 578.81 168.241C578.717 168.296 578.614 168.255 578.539 168.176C577.783 167.389 576.625 167.252 576.57 167.262C576.526 167.269 576.485 167.262 576.447 167.241V167.238Z" fill="#080435"/>
<path d="M577.508 169.684C577.422 170.148 577.082 170.471 576.746 170.409C576.409 170.347 576.206 169.921 576.292 169.461C576.378 168.997 576.718 168.674 577.055 168.736C577.391 168.798 577.594 169.224 577.508 169.684Z" fill="#080435"/>
<path d="M569.141 167.262C569.097 167.259 569.052 167.228 569.028 167.173C568.987 167.083 569.011 166.96 569.083 166.901C569.124 166.867 570.062 165.939 571.102 166.96C571.168 167.025 571.181 167.145 571.13 167.235C571.078 167.324 570.992 167.324 570.917 167.283C570.154 166.864 569.275 167.204 569.241 167.231C569.21 167.255 569.179 167.266 569.145 167.262H569.141Z" fill="#080435"/>
<path d="M571.099 169.124C571.195 169.585 571.003 170.014 570.67 170.083C570.337 170.155 569.986 169.839 569.89 169.378C569.794 168.918 569.986 168.489 570.319 168.42C570.652 168.348 571.003 168.664 571.099 169.124Z" fill="#080435"/>
<path d="M592.895 164.569C592.895 164.569 590.244 171.825 585.7 172.721C585.7 172.721 587.757 166.397 580.874 164.5C580.874 164.5 587.96 162.769 592.895 164.569Z" fill="#5C305D"/>
<path d="M586.616 169.21C585.96 170.444 584.683 171.048 583.762 170.557C582.842 170.066 582.625 168.671 583.285 167.434C583.941 166.201 585.219 165.596 586.139 166.087C587.06 166.579 587.276 167.973 586.616 169.21Z" fill="#FFB27D"/>
<path d="M570.632 173.649C570.632 173.649 573.716 174.212 576.986 173.618C576.986 173.618 576.759 176.713 573.373 176.383C571.405 176.191 570.632 173.649 570.632 173.649Z" fill="white"/>
<path d="M567.51 152.153L567.496 151.892C568.774 151.823 568.801 150.792 568.805 150.748H569.066C569.066 150.748 569.038 152.074 567.51 152.153Z" fill="#331832"/>
<path d="M570.917 160.377C570.663 160.329 564.731 159.093 564.219 155.99C564.072 155.097 564.178 154.479 564.549 154.104C565.136 153.506 566.26 153.661 567.249 153.812C567.393 153.836 567.537 153.857 567.671 153.871L567.651 154.008C567.513 153.987 567.372 153.97 567.228 153.946C566.27 153.809 565.184 153.644 564.642 154.2C564.305 154.54 564.209 155.124 564.35 155.976C564.844 158.986 570.879 160.243 570.941 160.257L570.917 160.384V160.377Z" fill="white"/>
<path d="M581.011 153.293C577.02 153.293 574.904 151.201 574.88 151.177L574.973 151.081C575.004 151.115 578.047 154.121 583.728 152.857L583.755 152.984C582.763 153.207 581.846 153.296 581.011 153.296V153.293Z" fill="white"/>
<path d="M517.966 370.549C517.928 370.549 517.894 370.539 517.863 370.518C513.233 367.969 509.912 356.762 507.999 337.211C506.58 322.699 506.505 308.744 506.505 308.603C506.505 308.483 506.601 308.383 506.725 308.383C506.845 308.383 506.941 308.48 506.945 308.603C506.945 309.156 507.305 364.204 518.073 370.137C518.179 370.195 518.217 370.326 518.158 370.432C518.121 370.501 518.045 370.546 517.97 370.546L517.966 370.549Z" fill="#331832"/>
<path d="M572.93 205.074C572.658 207.266 578.758 209.825 586.551 210.787C594.344 211.749 600.88 210.749 601.152 208.557C601.423 206.365 595.323 203.806 587.53 202.844C579.737 201.882 573.201 202.882 572.93 205.074Z" fill="#331832"/>
<path d="M195.604 159.034C195.604 159.034 193.471 166.513 199.303 172.137C202.964 175.666 197.448 181.063 193.57 179.936C189.693 178.809 190.228 185.838 183.686 181.499C179.203 178.527 195.604 159.031 195.604 159.031V159.034Z" fill="#331832"/>
<path d="M163.751 364.197L159.139 365.348L159.427 293.556L162.975 295.397L163.751 364.197Z" fill="#331832"/>
<path d="M177.376 367.667C177.376 367.667 152.96 368.107 144.82 368.168C143.92 368.175 143.274 366.939 143.274 366.038C143.274 365.138 144.586 364.07 145.486 364.077C153.458 364.118 177.376 364.41 177.376 364.41C178.276 364.41 179.004 365.138 179.004 366.038C179.004 366.939 178.276 367.667 177.376 367.667Z" fill="#331832"/>
<path d="M144.445 370.591C144.744 368.804 146.307 367.667 148.117 367.667C149.927 367.667 151.788 368.863 151.788 370.673C151.788 372.927 149.508 374.514 147.698 374.514C145.888 374.514 144.068 372.844 144.442 370.591H144.445Z" fill="#331832"/>
<path d="M170.49 370.591C170.789 368.804 172.351 367.667 174.161 367.667C175.971 367.667 177.833 368.863 177.833 370.673C177.833 372.927 175.552 374.514 173.742 374.514C171.932 374.514 170.112 372.844 170.486 370.591H170.49Z" fill="#331832"/>
<path d="M150.94 299.53C150.94 299.53 150.064 305.353 159.08 307.233C168.096 309.112 171.977 299.53 171.977 299.53H150.94Z" fill="#331832"/>
<path d="M178.997 288.285C179.093 277.381 184.208 221.121 168.955 217.033C151.686 212.405 129.903 212.333 123.398 227.521C116.893 242.713 129.217 258.767 132.727 290.539C133.104 293.975 137.071 300.77 141.485 301.237C145.898 301.701 198.454 303.333 198.454 301.237C198.454 287.475 186.68 290.512 178.997 288.285Z" fill="#EF8062"/>
<path d="M212.206 201.301C212.206 201.301 233.748 232.784 261.413 239.494L256.839 250.704C256.839 250.704 221.895 247.001 200.958 213.985L212.21 201.301H212.206Z" fill="#FFB27D"/>
<path d="M235.726 365.503C235.726 365.503 235.572 370.701 239.003 372.357C242.434 374.012 252.535 375.888 248.551 379.018C246.267 380.815 236.053 379.018 233.15 378.857C230.248 378.699 227.453 379.815 225.402 377.754C223.146 375.486 226.099 364.977 226.099 364.977C226.099 364.977 228.531 366.42 230.788 366.482C234.037 366.575 235.723 365.503 235.723 365.503H235.726Z" fill="#331832"/>
<path d="M271.439 360.916C271.439 360.916 271.285 366.114 274.716 367.77C278.147 369.426 288.248 371.301 284.264 374.431C281.98 376.228 271.766 374.431 268.863 374.27C265.961 374.112 263.165 375.228 261.115 373.167C258.858 370.899 261.812 360.39 261.812 360.39C261.812 360.39 264.247 361.833 266.5 361.895C269.75 361.988 271.436 360.916 271.436 360.916H271.439Z" fill="#331832"/>
<path d="M275.2 356.622C272.631 322.572 272.026 299.595 261.252 284.833C249.461 268.679 217.853 257.252 205.667 256.538C185.791 255.377 176.428 258.335 176.428 258.335C161.508 289.368 184.877 293.483 202.164 294.332C202.734 294.359 203.307 294.39 203.884 294.428C214.349 295.088 232.958 297.747 239.999 308.146C245.577 316.381 249.447 327.945 251.079 357.772C251.391 363.496 256.193 367.935 261.922 367.777C261.922 367.777 276.131 368.862 275.207 356.618L275.2 356.622Z" fill="#71A99E"/>
<path d="M246.992 358.377C247.332 324.232 248.39 306.8 238.144 291.666C231.56 281.944 221.662 274.605 208.724 269.854C199.488 266.463 188.625 264.381 176.439 263.67C156.563 262.509 147.633 260.107 147.633 260.107C131.549 299.829 190.386 291.398 205.705 308.322C212.378 315.698 220.648 329.722 222.28 359.549C222.592 365.272 227.394 369.711 233.123 369.553C233.123 369.553 246.872 370.862 246.995 358.377H246.992Z" fill="#71A99E"/>
<path d="M246.878 324.884C246.851 324.712 244.312 307.988 242.472 300.341C239.332 287.296 231.484 279.027 218.471 275.059L218.539 274.846C231.632 278.834 239.535 287.162 242.695 300.293C244.539 307.944 247.077 324.678 247.101 324.843L246.878 324.881V324.884Z" fill="#020202"/>
<path d="M156.721 194.729C156.721 194.729 170.184 182.581 189.676 187.017C209.167 191.452 209.85 207.85 218.505 259.19C218.505 259.19 200.46 258.527 153.049 274.258C147.434 276.121 139.198 274.643 142.079 265.075C147.441 247.286 147.623 209.499 156.721 194.733V194.729Z" fill="#764678"/>
<path d="M144.507 204.847L160.337 205.029C160.337 205.029 185.372 210.014 195.16 210.708C211.248 211.849 214.768 202.71 214.768 202.71C214.768 202.71 210.678 188.343 180.962 185.557C148.011 182.472 144.507 204.844 144.507 204.844V204.847Z" fill="#764678"/>
<path d="M144.507 204.847C144.545 206.486 149.329 207.805 155.189 207.795C161.051 207.784 165.771 206.448 165.733 204.809C165.695 203.17 160.911 201.851 155.051 201.861C149.188 201.872 144.469 203.208 144.507 204.847Z" fill="#331832"/>
<path d="M185.503 190.614C181.68 192.125 173.241 185.295 173.255 185.292C175.36 184.859 176.878 183.901 177.538 181.857L179.602 175.442L179.64 175.326L180.179 173.642L180.2 173.58L183.724 162.642L183.978 173.601V173.608L184.129 180.187V180.207L184.17 182.066C184.204 183.595 184.263 185.55 185.88 186.117C185.88 186.117 187.945 189.645 185.506 190.607L185.503 190.614Z" fill="#FFB27D"/>
<path d="M184.125 180.19V180.211C183.744 180.077 180.22 178.751 179.657 175.453C179.65 175.415 179.643 175.37 179.636 175.329C179.629 175.315 179.629 175.294 179.626 175.274C179.519 174.456 179.753 173.941 180.179 173.645C180.203 173.625 180.23 173.608 180.254 173.59C181.151 173.037 182.789 173.298 183.974 173.601V173.608L184.125 180.187V180.19Z" fill="#E7945E"/>
<path d="M185.583 176.962C191.233 176.424 195.275 170.336 194.611 163.364C193.948 156.393 188.83 151.177 183.18 151.715C177.53 152.254 173.488 158.342 174.152 165.313C174.815 172.285 179.933 177.5 185.583 176.962Z" fill="#FFB27D"/>
<path d="M175.7 167.087C176.964 168.083 178.596 168.042 179.344 166.994C180.093 165.946 179.674 164.291 178.41 163.294C177.146 162.298 175.515 162.339 174.766 163.387C174.017 164.435 174.436 166.091 175.7 167.087Z" fill="#FFB27D"/>
<path d="M192.014 171.866C189.699 171.656 188.003 169.251 188.229 166.506C188.35 165.036 189.009 163.696 190.036 162.834C190.853 162.146 191.849 161.817 192.838 161.906C195.15 162.116 196.85 164.52 196.623 167.265C196.503 168.736 195.844 170.076 194.817 170.938C194.181 171.47 193.44 171.79 192.674 171.862C192.454 171.883 192.234 171.883 192.014 171.862V171.866ZM190.197 163.023C189.222 163.844 188.593 165.118 188.477 166.527C188.26 169.138 189.857 171.422 192.038 171.618C192.962 171.701 193.893 171.395 194.659 170.749C195.634 169.928 196.263 168.653 196.38 167.245C196.596 164.634 194.999 162.353 192.818 162.153C192.612 162.136 192.409 162.136 192.203 162.153C191.489 162.222 190.791 162.521 190.197 163.023Z" fill="#764678"/>
<path d="M181.982 171.416C179.67 171.206 177.97 168.801 178.197 166.056C178.317 164.586 178.977 163.246 180.004 162.384C180.821 161.697 181.817 161.367 182.806 161.456C185.121 161.666 186.818 164.071 186.591 166.816C186.471 168.286 185.811 169.626 184.785 170.488C184.149 171.021 183.407 171.34 182.641 171.412C182.422 171.433 182.202 171.433 181.982 171.412V171.416ZM180.165 162.573C179.19 163.394 178.561 164.668 178.444 166.077C178.228 168.688 179.825 170.969 182.003 171.168C182.926 171.254 183.857 170.945 184.623 170.299C185.599 169.478 186.227 168.204 186.344 166.795C186.56 164.184 184.963 161.903 182.782 161.704C182.576 161.686 182.373 161.686 182.167 161.704C181.453 161.772 180.756 162.071 180.162 162.573H180.165Z" fill="#764678"/>
<path d="M189.486 166.86C189.524 166.857 189.562 166.836 189.583 166.798C189.617 166.74 189.596 166.664 189.538 166.63C189.48 166.596 188.075 165.802 185.805 166.369C185.739 166.386 185.698 166.451 185.715 166.52C185.733 166.585 185.798 166.627 185.866 166.61C188.034 166.07 189.404 166.84 189.418 166.847C189.442 166.86 189.466 166.864 189.49 166.864L189.486 166.86Z" fill="#764678"/>
<path d="M184.582 164.72C184.647 164.696 184.702 164.641 184.723 164.565C184.76 164.442 184.688 164.311 184.565 164.277C184.492 164.256 182.847 163.6 181.618 165.235C181.539 165.338 181.556 165.482 181.659 165.565C181.762 165.644 181.886 165.606 181.989 165.524C182.988 164.703 184.376 164.706 184.438 164.727C184.489 164.74 184.541 164.737 184.585 164.72H184.582Z" fill="#080435"/>
<path d="M182.985 167.451C183.019 168.008 183.376 168.437 183.781 168.413C184.187 168.389 184.486 167.915 184.448 167.358C184.413 166.802 184.056 166.372 183.651 166.396C183.246 166.421 182.947 166.895 182.985 167.451Z" fill="#080435"/>
<path d="M193.003 165.143C193.076 165.143 193.144 165.115 193.192 165.057C193.271 164.957 193.258 164.809 193.158 164.727C193.1 164.679 191.829 163.445 190.067 164.49C189.957 164.555 189.916 164.696 189.978 164.809C190.043 164.923 190.173 164.936 190.297 164.899C191.533 164.521 192.815 165.053 192.866 165.094C192.907 165.129 192.955 165.143 193.003 165.146V165.143Z" fill="#080435"/>
<path d="M190.486 167.06C190.308 167.589 190.472 168.121 190.854 168.252C191.238 168.382 191.692 168.059 191.874 167.53C192.052 167.001 191.887 166.469 191.506 166.338C191.125 166.208 190.668 166.53 190.486 167.06Z" fill="#080435"/>
<path d="M187.127 154.101C187.127 154.101 187.498 158.278 182.418 159.714C177.335 161.147 174.072 163.84 175.288 167.475C176.507 171.11 186.821 180.3 181.106 184.158C175.388 188.02 175.03 179.627 168.56 181.856C162.089 184.086 156.896 177.524 163.5 169.567C167.952 164.208 163.518 149.394 180.855 148.576C202.126 147.577 194.597 161.893 194.597 161.893C194.597 161.893 187.755 158.684 187.124 154.097L187.127 154.101Z" fill="#331832"/>
<path d="M180.165 184.791L180.093 184.663C181.127 184.069 181.714 183.272 181.844 182.296C182.305 178.823 177.057 173.536 173.22 169.674C172.482 168.925 171.781 168.221 171.173 167.582C169.071 165.373 168.508 162.467 169.696 159.996C170.902 157.492 173.533 156.018 176.689 156.018C176.991 156.018 177.304 156.032 177.616 156.063C178.046 156.097 178.451 156.118 178.843 156.118C184.468 156.118 186.337 152.431 186.354 152.394L186.481 152.452C186.46 152.497 184.558 156.259 178.843 156.259C178.448 156.259 178.035 156.238 177.599 156.2C177.29 156.176 176.988 156.162 176.686 156.162C173.588 156.162 171.005 157.605 169.82 160.062C168.638 162.515 169.181 165.291 171.273 167.489C171.877 168.125 172.578 168.833 173.32 169.575C177.173 173.46 182.452 178.775 181.978 182.314C181.841 183.341 181.23 184.176 180.161 184.794L180.165 184.791Z" fill="white"/>
<path d="M531.907 385.975L532.601 385.913C533.14 385.865 533.545 385.057 533.508 384.112L528.424 264.529L518.213 259.987L530.3 383.57C530.386 384.985 531.1 386.05 531.907 385.975Z" fill="#331832"/>
<path d="M209.758 385.287L209.064 385.226C208.525 385.177 208.119 384.374 208.157 383.436L213.223 264.505L223.431 259.987L211.362 382.896C211.276 384.301 210.565 385.363 209.754 385.291L209.758 385.287Z" fill="#331832"/>
<path d="M373.958 283.348C475.749 283.348 558.268 277.199 558.268 269.613C558.268 262.027 475.749 255.878 373.958 255.878C272.166 255.878 189.648 262.027 189.648 269.613C189.648 277.199 272.166 283.348 373.958 283.348Z" fill="#68A1BF"/>
<path d="M558.264 263.279H189.648V269.614H558.264V263.279Z" fill="#68A1BF"/>
<path d="M373.958 277.013C475.749 277.013 558.268 270.864 558.268 263.278C558.268 255.692 475.749 249.543 373.958 249.543C272.166 249.543 189.648 255.692 189.648 263.278C189.648 270.864 272.166 277.013 373.958 277.013Z" fill="#B8D5DC"/>
<path d="M212.151 263.104C212.151 263.104 211.798 263.189 211.808 263.313C211.822 263.512 212.138 263.543 212.138 263.543L212.148 263.104H212.151Z" fill="#331832"/>
<path d="M227.799 262.159C227.799 262.159 227.799 262.169 227.799 262.172C227.806 262.313 227.923 262.42 228.06 262.416L235.012 262.152C235.033 262.162 235.088 262.227 235.112 262.361L235.259 263.674C235.276 263.811 235.4 263.911 235.537 263.897C235.675 263.88 235.774 263.756 235.761 263.619L235.613 262.299C235.613 262.299 235.613 262.289 235.613 262.286C235.548 261.894 235.3 261.636 235.002 261.647L228.043 261.911C227.909 261.918 227.803 262.025 227.799 262.159Z" fill="#EF8062"/>
<path d="M214.099 265.092L236.193 265.422C236.403 265.422 236.581 265.147 236.588 264.804L236.609 263.955C236.619 263.615 236.458 263.33 236.248 263.319L214.212 262.062L214.095 265.089L214.099 265.092Z" fill="#331832"/>
<path d="M236.616 263.89L237.99 264.072C238.103 264.086 238.189 264.244 238.185 264.433V264.591C238.175 264.787 238.076 264.945 237.955 264.941L236.592 264.907L236.619 263.89H236.616Z" fill="#EF8062"/>
<path d="M233.109 263.138C233.109 263.138 233.308 264.072 233.051 265.395L231.643 265.381C231.643 265.381 232.038 264.151 231.704 263.055L233.109 263.138Z" fill="#EF8062"/>
<path d="M214.099 265.093L212.141 263.543L212.151 263.103L214.219 262.066L214.099 265.093Z" fill="#EF8062"/>
<path d="M205.238 254.957L209.641 242.115C194.944 240.672 170.332 229.524 163.782 205.001C163.614 204.366 158.946 201.813 150.034 205.001C148.265 205.633 147.076 207.276 147.241 207.969C155.635 243.496 178.905 250.838 205.238 254.957Z" fill="#FFB27D"/>
<g opacity="0.3">
<path d="M170.339 238.501C170.28 238.501 170.219 238.501 170.16 238.498C169.181 238.419 168.065 237.749 167.179 236.705C165.785 235.052 165.472 233.09 166.468 232.238C166.798 231.957 167.21 231.809 167.759 231.864C168.738 231.943 169.851 232.613 170.734 233.657C172.128 235.31 172.444 237.271 171.448 238.123C171.156 238.371 170.778 238.501 170.342 238.501H170.339ZM167.615 236.33C168.395 237.244 169.384 237.859 170.201 237.921C170.576 237.924 170.854 237.866 171.07 237.684C171.798 237.065 171.441 235.389 170.291 234.025C169.514 233.111 168.525 232.503 167.708 232.434C167.347 232.445 167.055 232.489 166.839 232.671C166.111 233.29 166.468 234.966 167.619 236.33H167.615Z" fill="#EC865C"/>
</g>
<path d="M209.641 242.115C209.641 242.115 221.397 238.855 225.525 242.129C229.654 245.4 234.078 252.958 231.086 251.474C228.098 249.99 224.801 247.039 224.801 247.039C224.801 247.039 231.615 254.597 229.379 255.5C227.143 256.407 221.62 249.333 221.62 249.333C221.62 249.333 228.562 256.706 226.171 256.878C223.784 257.05 218.309 252.017 218.309 252.017C218.309 252.017 224.296 257.431 221.517 257.565C218.739 257.699 216.764 253.676 214.48 254.449C207.267 256.878 201.319 253.776 197.345 252.381L209.637 242.119L209.641 242.115Z" fill="#FFB27D"/>
<path d="M224.801 247.255C224.722 247.255 224.643 247.207 224.605 247.135C224.598 247.114 223.829 245.613 221.476 245.156C221.359 245.132 221.28 245.019 221.304 244.898C221.328 244.782 221.445 244.733 221.558 244.727C224.138 245.228 224.959 246.87 224.993 246.946C225.048 247.052 225 247.18 224.893 247.234C224.866 247.248 224.831 247.259 224.797 247.259L224.801 247.255Z" fill="#E9845C"/>
<path d="M221.62 249.55C221.565 249.55 221.507 249.525 221.466 249.481C221.445 249.46 219.333 247.365 217.41 247.365C217.389 247.365 217.379 247.378 217.344 247.368C217.228 247.368 217.131 247.272 217.128 247.155C217.128 247.035 217.221 246.935 217.341 246.932H217.413C219.515 246.932 221.682 249.082 221.775 249.178C221.861 249.261 221.861 249.398 221.775 249.484C221.734 249.522 221.679 249.546 221.62 249.546V249.55Z" fill="#E9845C"/>
<path d="M218.313 252.23C218.23 252.23 218.151 252.175 218.113 252.099C218.083 252.02 217.289 250.271 214.6 249.876C214.48 249.863 214.401 249.749 214.418 249.632C214.432 249.512 214.535 249.443 214.662 249.447C217.602 249.876 218.474 251.841 218.512 251.924C218.557 252.037 218.508 252.161 218.399 252.212C218.371 252.223 218.344 252.233 218.313 252.233V252.23Z" fill="#E9845C"/>
<path d="M261.41 239.498L256.832 250.708C256.832 250.708 236.53 248.554 217.605 232.908L244.247 232.098C249.564 235.361 255.338 238.024 261.41 239.494V239.498Z" fill="#FFB27D"/>
<path d="M235.452 258.767H273.507C274.304 258.767 275.011 258.259 275.262 257.51L283.172 233.887C283.57 232.699 282.677 231.469 281.416 231.469H244.821C243.152 231.469 241.672 232.53 241.146 234.1L233.696 256.349C233.298 257.538 234.191 258.767 235.452 258.767Z" fill="#945C98"/>
<path d="M237.838 258.767H275.893C276.69 258.767 277.398 258.259 277.648 257.51L285.558 233.887C285.957 232.699 285.064 231.469 283.803 231.469H247.208C245.539 231.469 244.058 232.53 243.533 234.1L236.083 256.349C235.685 257.538 236.578 258.767 237.838 258.767Z" fill="#945C98"/>
<path d="M264.505 244.345C264.505 243.449 263.471 243.084 262.568 243.084C261.664 243.084 260.191 244.07 260.201 245.324C260.212 246.681 261.269 246.857 262.173 246.857C263.076 246.857 264.505 245.486 264.505 244.345Z" fill="#DAEBE8"/>
<path d="M214.367 255.432H275.914V258.771H213.278C212.656 258.771 212.155 258.266 212.155 257.648C212.155 256.425 213.144 255.435 214.367 255.435V255.432Z" fill="#945C98"/>
<path d="M240.569 243.418L240.28 243.339C240.359 243.05 242.176 236.234 243.402 234.028C244.646 231.782 246.177 231.338 246.243 231.325L246.322 231.606C246.322 231.606 244.845 232.043 243.663 234.173C242.458 236.341 240.589 243.342 240.572 243.414L240.569 243.418Z" fill="#331832"/>
<path d="M234.919 255.576V255.284C236.149 255.284 236.455 254.779 236.458 254.772L239.412 245.936L239.694 246.032L236.726 254.892C236.702 254.94 236.345 255.572 234.916 255.572L234.919 255.576Z" fill="#331832"/>
<path d="M187.117 172.855C185.331 172.855 184.05 172.034 184.032 172.02C183.953 171.972 183.933 171.866 183.984 171.787C184.039 171.704 184.142 171.684 184.221 171.739C184.245 171.749 186.952 173.47 189.923 171.735C190.005 171.673 190.112 171.711 190.16 171.794C190.204 171.876 190.18 171.979 190.098 172.027C189.04 172.649 188.013 172.859 187.117 172.859V172.855Z" fill="#331832"/>
<path d="M401.132 260.959C397.333 260.403 399.769 245.321 399.751 245.314C399.789 245.335 439.005 247.901 441.99 213.683C442.014 213.422 443.326 210.234 449.11 208.341C455.354 206.297 459.146 206.163 459.146 206.163C460.076 209.619 460.966 219.355 458.524 229.462C449.907 265.14 407.393 261.873 401.132 260.956V260.959Z" fill="#FFB27D"/>
<g opacity="0.3">
<path d="M443.381 248.99C443.051 248.99 442.759 248.897 442.519 248.708C442.237 248.488 442.062 248.145 442.014 247.722C441.911 246.822 442.368 245.606 443.206 244.548C444.49 242.933 446.204 242.229 447.114 242.933C447.396 243.156 447.571 243.503 447.619 243.926C447.722 244.826 447.265 246.042 446.424 247.1C445.479 248.293 444.298 248.993 443.381 248.993V248.99ZM446.245 243.18C445.51 243.18 444.449 243.833 443.621 244.878C442.876 245.816 442.453 246.905 442.539 247.66C442.574 247.949 442.677 248.165 442.848 248.296C443.491 248.808 444.95 248.117 446.015 246.767C446.76 245.829 447.186 244.74 447.1 243.984C447.066 243.696 446.963 243.479 446.791 243.349C446.647 243.232 446.462 243.177 446.249 243.177L446.245 243.18Z" fill="#EC865C"/>
</g>
<path d="M411.961 247.193C411.961 247.193 389.894 242.899 385.099 245.596C380.301 248.289 376.169 255.349 379.491 254.308C382.812 253.267 386.7 250.766 386.7 250.766C386.7 250.766 378.639 256.5 380.772 257.795C382.905 259.091 389.87 254.037 389.87 254.037C389.87 254.037 380.813 261.623 383.231 262.186C385.649 262.753 392.49 256.94 392.49 256.94C392.49 256.94 384.34 264.33 387.163 264.924C389.987 265.515 393.861 258.771 395.994 260.07C398.127 261.365 404.312 262.712 408.691 257.163L411.965 247.19L411.961 247.193Z" fill="#FFB27D"/>
<path d="M386.837 250.914L386.556 250.622C386.642 250.536 388.719 248.595 390.464 248.946L390.382 249.344C390.258 249.313 390.131 249.306 390.004 249.306C388.527 249.306 386.854 250.897 386.837 250.918V250.914Z" fill="#E9845C"/>
<path d="M390.011 254.182L389.722 253.9C389.805 253.817 391.752 251.9 394.276 251.9H394.314V252.309H394.276C391.92 252.309 390.028 254.168 390.007 254.182H390.011Z" fill="#E9845C"/>
<path d="M392.624 257.088L392.343 256.796C392.446 256.699 394.884 254.384 396.722 254.927L396.605 255.315C394.987 254.823 392.648 257.067 392.624 257.084V257.088Z" fill="#E9845C"/>
<path d="M385.203 264.539H344.036C343.174 264.539 342.408 263.997 342.136 263.193L333.581 237.914C333.152 236.64 334.113 235.327 335.48 235.327H375.067C376.87 235.327 378.474 236.461 379.041 238.144L387.099 261.953C387.528 263.227 386.566 264.539 385.199 264.539H385.203Z" fill="#EF8062"/>
<path d="M382.62 264.54H341.453C340.591 264.54 339.825 263.997 339.553 263.193L330.998 237.915C330.569 236.64 331.53 235.328 332.897 235.328H372.484C374.287 235.328 375.891 236.461 376.458 238.145L384.515 261.953C384.945 263.228 383.983 264.54 382.616 264.54H382.62Z" fill="#EF8062"/>
<path d="M353.772 249.107C353.772 248.149 354.892 247.757 355.868 247.757C356.843 247.757 358.44 248.812 358.43 250.155C358.419 251.605 357.272 251.794 356.297 251.794C355.321 251.794 353.772 250.327 353.772 249.107Z" fill="#DAEBE8"/>
<path d="M397.776 260.97H341.429V264.543H398.941C399.607 264.543 400.143 264.003 400.143 263.34C400.143 262.031 399.082 260.973 397.776 260.973V260.97Z" fill="#EF8062"/>
<path d="M379.666 248.117C379.645 248.038 377.626 240.549 376.321 238.227C375.043 235.956 373.456 235.492 373.442 235.488L373.525 235.176C373.597 235.196 375.249 235.67 376.599 238.068C377.924 240.429 379.889 247.722 379.972 248.028L379.666 248.114V248.117Z" fill="#331832"/>
<path d="M385.776 261.131C384.234 261.131 383.849 260.451 383.832 260.42L380.617 250.911L380.919 250.804L384.127 260.29C384.127 260.29 384.478 260.808 385.779 260.808V261.128L385.776 261.131Z" fill="#331832"/>
<path d="M482.46 260.578C482.46 261.293 483.03 261.835 483.717 261.835H496.827C497.798 261.835 498.396 260.777 497.912 259.949L487.629 228.123C484.658 228.435 482.175 228.837 482.288 229.122L490.084 257.606C490.428 258.434 489.827 259.321 488.941 259.321H483.713C483.026 259.321 482.456 259.891 482.456 260.578H482.46Z" fill="#331832"/>
<path d="M482.46 260.578C482.46 261.293 483.03 261.836 483.717 261.836H496.827C497.799 261.836 498.396 260.778 497.912 259.95L478.671 195.279L473.732 196.708L490.084 257.607C490.428 258.435 489.827 259.321 488.941 259.321H483.713C483.026 259.321 482.456 259.891 482.456 260.578H482.46Z" fill="#331832"/>
<path d="M479.86 207.719H495.748V203.968H479.86V207.719Z" fill="#331832"/>
<path d="M490.339 159.69L509.954 236.107C510.132 236.804 509.617 237.488 508.896 237.488C505.715 237.488 498.207 237.192 497.524 234.509L481.182 170.804C480.056 166.3 479.245 160.116 484.424 158.131L486.482 157.512C488.154 157.007 489.909 158 490.342 159.69H490.339Z" fill="#764678"/>
<path d="M484.383 175.923L480.337 183.258L490.184 217.421L495.748 221.616L484.383 175.923Z" fill="#764678"/>
<path d="M540.401 264.917L510.585 262.715V266.302L540.401 264.917Z" fill="#764678"/>
<path d="M505.519 253.786L510.585 262.715V266.302L505.519 256.83V253.786Z" fill="#331832"/>
<path d="M540.401 264.917L529.262 255.215L505.519 253.786L510.585 262.715L540.401 264.917Z" fill="#331832"/>
<path d="M538.924 250.182C538.924 250.182 527.192 246.19 523.403 247.89C519.615 249.591 516.06 254.631 518.633 254.074C521.205 253.518 524.296 251.9 524.296 251.9C524.296 251.9 517.857 255.669 519.388 256.795C520.924 257.919 526.491 254.59 526.491 254.59C526.491 254.59 519.186 259.685 520.979 260.279C522.771 260.873 528.294 256.96 528.294 256.96C528.294 256.96 521.686 261.973 523.785 262.615C525.883 263.254 529.218 258.438 530.753 259.561C532.289 260.684 534.308 263.34 539.8 261.907L538.924 250.182Z" fill="#FFB27D"/>
<path d="M590.71 256.665C582.955 263.883 561.668 263.773 538.326 262.114L537.502 249.859C550.364 247.306 571.882 245.499 574.056 242.899C577.656 238.587 574.777 214.377 577 205.846C577.175 205.177 598.291 205.644 598.366 209.224C598.754 227.164 598.971 248.976 590.71 256.665Z" fill="#FFB27D"/>
<path d="M690.379 336.175C690.379 336.175 702.661 289.325 692.437 272.085C682.212 254.846 647.938 252.3 635.337 264.871C622.732 277.441 621.162 292.788 640.805 299.271C660.447 305.754 686.598 282.296 691.499 284.708C696.4 287.119 686.636 334.334 686.636 334.334L690.383 336.179L690.379 336.175Z" fill="#B0B271"/>
<path d="M630.511 287.123L630.206 286.721C630.302 286.649 639.816 279.365 651.874 273.934C658.967 270.742 665.541 268.805 671.414 268.176C678.781 267.386 685.063 268.664 690.087 271.976L689.809 272.398C684.888 269.155 678.716 267.901 671.465 268.681C665.644 269.303 659.121 271.227 652.08 274.398C640.073 279.802 630.607 287.051 630.511 287.123Z" fill="#C2C68E"/>
<path d="M704.183 373.345H678.186C674.209 373.345 670.895 370.909 670.551 367.734L666.801 332.871H714.541L711.145 368.178C710.863 371.091 707.83 373.341 704.179 373.341L704.183 373.345Z" fill="#6DA49A"/>
<path d="M716.262 325.446V332.379C716.262 336.667 704.911 340.144 690.905 340.144C676.899 340.144 665.547 336.667 665.547 332.379V325.446C665.547 323.268 672.087 321.403 681.357 320.633C684.304 320.386 687.529 320.249 690.905 320.249C704.911 320.249 716.262 322.574 716.262 325.446Z" fill="#558F85"/>
<path d="M716.262 325.446C716.262 325.865 716.022 326.267 715.572 326.659C714.442 327.628 711.979 328.497 708.596 329.17C707.277 329.435 705.818 329.672 704.245 329.871C703.839 329.922 703.424 329.974 702.998 330.019C702.754 330.05 702.503 330.074 702.249 330.101C700.944 330.239 699.57 330.352 698.145 330.434C698.045 330.445 697.946 330.452 697.843 330.452C697.101 330.496 696.349 330.534 695.583 330.561C695.061 330.582 694.535 330.599 694.003 330.613C693.797 330.613 693.591 330.623 693.381 330.627C692.567 330.644 691.736 330.651 690.901 330.651C690.541 330.651 690.184 330.651 689.83 330.644C689.617 330.644 689.4 330.644 689.187 330.637C688.343 330.623 687.511 330.606 686.691 330.575C685.324 330.531 683.991 330.458 682.706 330.369C682.466 330.352 682.229 330.335 681.989 330.318C681.796 330.3 681.607 330.287 681.419 330.269C681.202 330.252 680.989 330.232 680.773 330.214C679.365 330.091 678.022 329.936 676.761 329.764C669.999 328.833 665.551 327.246 665.551 325.449C665.551 324.347 667.227 323.326 670.081 322.485C671.702 322.007 673.708 321.588 676.002 321.248C676.126 321.227 676.253 321.207 676.38 321.193C676.607 321.158 676.837 321.128 677.067 321.097C678.413 320.915 679.846 320.76 681.353 320.636C681.432 320.629 681.511 320.622 681.594 320.619C683.084 320.499 684.647 320.403 686.265 320.344C687.24 320.303 688.24 320.279 689.256 320.265C689.799 320.255 690.352 320.251 690.901 320.251C691.77 320.251 692.625 320.262 693.47 320.279C693.68 320.279 693.889 320.286 694.096 320.293C695.586 320.33 697.039 320.396 698.437 320.485C698.815 320.506 699.192 320.537 699.567 320.564C700.762 320.65 701.913 320.756 703.015 320.88C704.595 321.055 706.079 321.265 707.435 321.505C707.666 321.547 707.892 321.588 708.112 321.629C708.263 321.657 708.414 321.684 708.565 321.715C710.812 322.162 712.656 322.694 713.975 323.285C715.445 323.941 716.262 324.673 716.262 325.446Z" fill="#080435"/>
<path d="M695.153 329.504C695.153 329.504 704.64 282.004 721.373 271.038C738.106 260.072 769.996 272.931 775.811 289.789C781.626 306.647 776.316 321.124 755.835 318.266C735.355 315.408 722.146 282.787 716.688 282.787C711.231 282.787 699.326 329.504 699.326 329.504H695.153Z" fill="#C2C68E"/>
<path d="M771.436 313.071C771.384 312.965 766.05 302.267 757.632 292.108C752.697 286.151 747.682 281.544 742.729 278.414C736.561 274.515 730.471 272.914 724.633 273.652L724.571 273.151C730.53 272.398 736.733 274.027 743.004 277.991C748.002 281.152 753.057 285.797 758.027 291.795C766.48 301.999 771.834 312.745 771.889 312.852L771.439 313.078L771.436 313.071Z" fill="#CCD39C"/>
<path d="M689.081 350.594C689.081 350.594 689.335 302.15 675.147 288.016C660.962 273.882 627.142 280.011 618.061 295.344C608.98 310.677 611.271 325.93 631.906 327.284C652.537 328.638 672.032 299.367 677.376 300.473C682.72 301.579 684.997 349.749 684.997 349.749L689.085 350.594H689.081Z" fill="#C2C68E"/>
<path d="M621.245 317.332L620.966 317.119C621.038 317.023 628.44 307.592 638.761 299.319C648.309 291.668 662.398 283.468 675.205 287.855L675.092 288.185C662.425 283.866 648.46 291.991 638.981 299.591C628.691 307.839 621.317 317.242 621.245 317.332Z" fill="#CCD39C"/>
<path d="M718.316 313.583C718.316 313.583 712.56 303.078 699.556 303.552C686.553 304.026 673.996 343.304 678.825 354.325C686.22 371.204 711.375 373.186 721.682 354.325C726.841 344.885 724.701 322.299 718.316 313.583Z" fill="#CCD39C"/>
<path d="M699.742 356.74L699.248 356.637C699.303 356.366 704.873 329.342 701.909 308.994L702.407 308.921C705.382 329.363 699.797 356.473 699.739 356.744L699.742 356.74Z" fill="#C2C68E"/>
<g opacity="0.5">
<path d="M410.866 54.5775C410.224 40.7186 397.781 29 383.908 29C364.259 29 357.812 44.0579 357.036 57.91C356.233 72.298 368.91 82.1442 382.778 82.1442C396.647 82.1442 411.66 71.7929 410.863 54.5775H410.866Z" fill="#68A1BF"/>
<path d="M405.989 56.0308C405.989 44.9959 394.975 33.236 383.946 32.8822C367.632 32.36 361.017 48.9158 361.017 59.9541C361.017 70.9925 372.406 77.5715 383.441 77.5715C394.477 77.5715 405.989 67.0691 405.989 56.0308Z" fill="#BFD7D3"/>
<path d="M386.313 55.6559C386.165 54.1477 384.564 53.1445 383.05 53.1445C381.535 53.1445 379.911 54.9688 379.911 56.4839C379.911 57.9989 381.535 59.2357 383.05 59.2357C384.564 59.2357 386.587 58.4524 386.313 55.6593V55.6559Z" fill="#68A1BF"/>
<path d="M383.05 57.0375H382.5C382.198 57.0375 381.958 56.7936 381.958 56.4947C381.958 56.1958 381.271 55.1754 381.573 55.1754L381.879 54.5364L382.531 39.6297L381.851 40.0454C381.679 40.2927 381.339 40.3546 381.095 40.1862C380.848 40.0144 380.786 39.6777 380.958 39.4304L382.631 37.0015C382.765 36.8057 383.012 36.7198 383.242 36.7919C383.469 36.8641 383.623 37.0736 383.623 37.3107L384.53 56.4569C384.53 56.7558 383.349 57.0409 383.05 57.0409V57.0375Z" fill="#68A1BF"/>
<path d="M384.929 40.1208C384.771 40.1208 384.613 40.0521 384.506 39.9215L382.442 38.4408C382.253 38.2072 382.504 37.0734 382.737 36.8845C382.967 36.6955 383.311 36.7299 383.503 36.9635L385.351 39.2344C385.54 39.468 385.506 39.8116 385.272 40.0005C385.172 40.083 385.049 40.1242 384.929 40.1242V40.1208Z" fill="#68A1BF"/>
<path d="M373.196 58.7993C373.055 58.7993 372.911 58.7443 372.805 58.6344L371.19 56.9613C371.039 56.8032 370.995 56.5696 371.08 56.3704C371.166 56.1711 371.362 56.0405 371.582 56.0405L384.417 55.3672C384.716 55.3672 384.887 56.3154 384.887 56.6143V57.164C384.887 57.4663 384.643 57.7068 384.345 57.7068C384.046 57.7068 383.366 57.9782 383.366 57.6759L383.799 57.1571L372.863 57.133L373.584 57.882C373.794 58.0984 373.787 58.442 373.57 58.6515C373.464 58.7546 373.327 58.8027 373.193 58.8027L373.196 58.7993Z" fill="#68A1BF"/>
<path d="M371.578 57.1264C371.458 57.1264 371.335 57.0851 371.235 57.0027C371.001 56.8137 370.967 56.4702 371.156 56.2366L372.667 54.3848C372.859 54.1512 373.203 54.1203 373.433 54.3092C373.667 54.4982 373.701 54.8417 373.512 55.0753L372.918 56.4599C372.811 56.5904 371.736 57.1264 371.578 57.1264Z" fill="#68A1BF"/>
</g>
<path d="M324.462 217.507C323.394 215.865 321.168 214.858 320.997 212.907C320.931 212.182 321.172 211.388 320.797 210.766C320.382 210.083 319.441 209.976 318.647 210.055C317.775 210.144 316.848 210.409 316.312 211.103C315.635 211.976 315.786 213.209 315.57 214.295C315.055 216.909 312.479 218.517 310.13 219.774C308.91 220.427 307.629 221.121 306.887 222.289C305.63 224.268 306.324 226.834 306.221 229.174C306.139 231.029 305.51 232.857 304.432 234.368C303.796 235.258 303.14 236.134 302.426 236.962C301.165 238.426 301.698 240.377 303.535 240.655C304.562 240.81 305.565 240.415 305.984 239.741C307.286 237.636 311.095 237.453 312.517 237.247C313.935 237.045 315.426 236.34 315.961 235.007C316.466 233.753 315.996 232.321 316.202 230.984C316.487 229.133 317.991 227.745 319.406 226.515C320.622 225.46 321.835 224.405 323.05 223.354C323.614 222.866 324.184 222.368 324.575 221.732C325.358 220.468 325.279 218.75 324.469 217.503L324.462 217.507ZM320.856 221.87C319.564 223.306 317.521 223.436 315.834 224.124C314.522 224.66 313.389 225.305 311.912 225.237C310.957 225.192 309.783 224.9 309.755 223.759C309.704 221.787 312.386 221.44 313.781 221.358C314.646 221.306 315.539 221.241 316.315 220.856C316.889 220.571 317.377 220.118 317.703 219.565C317.926 219.187 318.077 218.757 318.386 218.445C318.592 218.238 318.857 218.098 319.135 218.022C319.956 217.799 320.9 218.18 321.337 218.908C321.886 219.829 321.574 221.076 320.856 221.87Z" fill="white"/>
<path d="M295.484 242.552C295.484 242.552 297.469 256.504 298.922 256.634C300.375 256.761 305.812 257.053 307.471 256.634C309.13 256.215 310.043 242.353 309.587 242.02C309.13 241.686 294.876 240.965 295.484 242.556V242.552Z" fill="#EF8062"/>
<path d="M309.154 250.986L308.508 249.722C310.294 248.808 312.911 247.039 313.148 245.946C313.179 245.795 313.155 245.692 313.066 245.582C311.898 244.122 309.233 245.723 309.205 245.743L308.46 244.527C308.615 244.434 312.224 242.246 314.179 244.692C314.539 245.139 314.663 245.678 314.539 246.248C314.079 248.382 309.975 250.574 309.157 250.986H309.154Z" fill="#EF8062"/>
<path d="M300.111 249.351C299.637 246.767 302.031 245.736 303.865 245.736C305.699 245.736 307.073 247.066 307.073 248.9C307.073 250.735 305.269 252.673 303.432 252.673C301.594 252.673 300.44 251.154 300.111 249.351Z" fill="#E06E57"/>
<path d="M303.044 252.226C301.357 252.226 300.021 250.9 299.644 248.842C299.472 247.897 299.657 247.097 300.19 246.458C301 245.479 302.422 245.135 303.477 245.135C305.379 245.135 306.763 246.496 306.763 248.378C306.763 250.261 304.888 252.226 303.044 252.226ZM299.798 248.811C300.159 250.79 301.433 252.072 303.04 252.072C304.802 252.072 306.599 250.21 306.599 248.378C306.599 246.547 305.283 245.29 303.473 245.29C302.453 245.29 301.086 245.627 300.306 246.554C299.802 247.162 299.633 247.921 299.795 248.811H299.798Z" fill="white"/>
<path d="M432.754 265.858C432.754 265.858 432.335 265.758 432.345 265.611C432.363 265.374 432.737 265.336 432.737 265.336L432.754 265.858Z" fill="#331832"/>
<path d="M451.297 266.81C451.297 266.81 451.297 266.796 451.297 266.793C451.301 266.628 451.438 266.497 451.603 266.504L459.843 266.741C459.867 266.727 459.932 266.648 459.959 266.49L460.121 264.934C460.138 264.769 460.286 264.652 460.451 264.666C460.615 264.683 460.736 264.831 460.718 264.996L460.557 266.563C460.557 266.563 460.557 266.573 460.557 266.58C460.485 267.047 460.196 267.353 459.839 267.342L451.593 267.105C451.435 267.102 451.308 266.971 451.304 266.817L451.297 266.81Z" fill="#EF8062"/>
<path d="M435.038 263.481L461.21 262.849C461.46 262.845 461.673 263.168 461.687 263.577L461.721 264.58C461.735 264.986 461.55 265.322 461.302 265.339L435.21 267.067L435.038 263.484V263.481Z" fill="#331832"/>
<path d="M461.725 264.659L463.353 264.429C463.487 264.408 463.586 264.223 463.58 263.999L463.573 263.814C463.566 263.58 463.442 263.395 463.298 263.402L461.68 263.46L461.721 264.662L461.725 264.659Z" fill="#EF8062"/>
<path d="M457.579 265.59C457.579 265.59 457.806 264.484 457.487 262.917L455.817 262.948C455.817 262.948 456.302 264.401 455.914 265.703L457.579 265.59Z" fill="#EF8062"/>
<path d="M435.038 263.48L432.734 265.336L432.754 265.858L435.21 267.064L435.038 263.48Z" fill="#DAEBE8"/>
</svg>
